M48
; DRILL file {KiCad 8.0.1} date 2024-06-13T00:26:46+0200
; FORMAT={-:-/ absolute / metric / decimal}
; #@! TF.CreationDate,2024-06-13T00:26:46+02:00
; #@! TF.GenerationSoftware,Kicad,Pcbnew,8.0.1
; #@! TF.FileFunction,Plated,1,2,PTH
FMAT,2
METRIC
; #@! TA.AperFunction,Plated,PTH,ViaDrill
T1C0.400
; #@! TA.AperFunction,Plated,PTH,ComponentDrill
T2C0.890
; #@! TA.AperFunction,Plated,PTH,ComponentDrill
T3C1.000
; #@! TA.AperFunction,Plated,PTH,ComponentDrill
T4C1.100
; #@! TA.AperFunction,Plated,PTH,ComponentDrill
T5C2.010
%
G90
G05
T1
X2.535Y38.195
X2.535Y35.655
X2.535Y33.115
X2.535Y30.575
X2.535Y28.035
X2.535Y25.495
X2.535Y22.955
X2.535Y20.415
X2.535Y17.875
X2.535Y15.335
X2.535Y12.795
X2.535Y10.255
X2.535Y7.715
X2.535Y5.175
X2.535Y2.635
X5.075Y38.195
X5.075Y25.495
X5.075Y22.955
X5.075Y15.335
X5.075Y12.795
X5.075Y2.635
X7.615Y38.195
X7.615Y30.575
X7.615Y22.955
X7.615Y15.335
X7.615Y12.795
X7.615Y10.255
X7.615Y7.715
X7.615Y5.175
X7.615Y2.635
X10.155Y38.195
X10.155Y35.655
X10.155Y33.115
X10.155Y30.575
X10.155Y12.795
X10.155Y10.255
X10.155Y7.715
X10.155Y2.635
X11.47Y22.36
X12.695Y38.195
X12.695Y35.655
X12.695Y33.115
X12.695Y30.575
X12.695Y28.035
X12.695Y17.875
X12.695Y10.255
X12.695Y2.635
X15.235Y38.195
X15.235Y35.655
X15.235Y33.115
X15.235Y30.575
X15.235Y28.035
X15.235Y22.955
X15.235Y15.335
X15.235Y10.255
X15.235Y7.715
X15.235Y5.175
X15.235Y2.635
X15.63Y18.5
X17.775Y38.195
X17.775Y20.415
X17.775Y10.255
X17.775Y7.715
X17.775Y5.175
X17.775Y2.635
X20.315Y38.195
X20.315Y20.415
X20.315Y5.175
X20.315Y2.635
X22.855Y38.195
X22.855Y35.655
X22.855Y33.115
X22.855Y30.575
X22.855Y22.955
X22.855Y20.415
X22.855Y5.175
X22.855Y2.635
X25.395Y38.195
X25.395Y35.655
X25.395Y33.115
X25.395Y30.575
X25.395Y28.035
X25.395Y25.495
X25.395Y22.955
X25.395Y20.415
X25.395Y10.255
X25.395Y5.175
X25.395Y2.635
X27.935Y38.195
X27.935Y25.495
X27.935Y22.955
X27.935Y20.415
X27.935Y10.255
X27.935Y5.175
X27.935Y2.635
X30.475Y38.195
X30.475Y28.035
X30.475Y25.495
X30.475Y22.955
X30.475Y20.415
X30.475Y10.255
X30.475Y5.175
X30.475Y2.635
X33.015Y38.195
X33.015Y28.035
X33.015Y25.495
X33.015Y22.955
X33.015Y20.415
X33.015Y2.635
X35.555Y38.195
X35.555Y25.495
X35.555Y22.955
X35.555Y20.415
X35.555Y17.875
X35.555Y10.255
X35.555Y7.715
X38.095Y38.195
X38.095Y35.655
X38.095Y33.115
X38.095Y30.575
X38.095Y22.955
X38.095Y20.415
X38.18Y15.2
X38.86Y11.07
X38.9Y17.29
X40.635Y38.195
X40.635Y35.655
X40.635Y33.115
X40.635Y30.575
X40.635Y5.175
X40.69Y13.57
X40.81Y9.91
X43.175Y38.195
X43.175Y28.035
X43.175Y25.495
X43.175Y22.955
X43.175Y5.175
X43.175Y2.635
X45.715Y38.195
X45.715Y25.495
X45.715Y22.955
X45.715Y20.415
X45.715Y12.795
X45.715Y10.255
X45.715Y5.175
X45.715Y2.635
X48.255Y38.195
X48.255Y35.655
X48.255Y33.115
X48.255Y30.575
X48.255Y28.035
X48.255Y25.495
X48.255Y22.955
X48.255Y20.415
X48.255Y15.335
X48.255Y12.795
X48.255Y5.175
X48.255Y2.635
X50.795Y38.195
X50.795Y35.655
X50.795Y28.035
X50.795Y25.495
X50.795Y22.955
X50.795Y20.415
X50.795Y15.335
X50.795Y12.795
X50.795Y10.255
X50.795Y7.715
X50.795Y5.175
X50.795Y2.635
X53.335Y38.195
X53.335Y35.655
X53.335Y28.035
X53.335Y25.495
X53.335Y22.955
X53.335Y12.795
X53.335Y10.255
X53.335Y7.715
X53.335Y5.175
X53.335Y2.635
X55.875Y38.195
X55.875Y35.655
X55.875Y33.115
X55.875Y30.575
X55.875Y28.035
X55.875Y25.495
X55.875Y22.955
X55.875Y20.415
X55.875Y17.875
X55.875Y15.335
X55.875Y12.795
X55.875Y10.255
X55.875Y7.715
X55.875Y5.175
X55.875Y2.635
T2
X20.81Y27.23
X23.35Y27.23
X37.52Y27.22
X40.06Y27.22
T3
X5.36Y8.99
X5.36Y6.45
X5.39Y27.99
X7.93Y27.99
T4
X5.56Y34.68
X6.63Y20.58
X6.63Y18.04
X8.1Y34.68
X52.98Y19.33
X52.98Y16.79
T5
X18.27Y32.31
X28.43Y32.31
X34.98Y32.3
X45.14Y32.3
M30
