%TF.GenerationSoftware,KiCad,Pcbnew,8.0.1*%
%TF.CreationDate,2024-06-13T00:26:55+02:00*%
%TF.ProjectId,CFT,4346542e-6b69-4636-9164-5f7063625858,rev?*%
%TF.SameCoordinates,PX52e4ef2PY60c692e*%
%TF.FileFunction,Copper,L2,Bot*%
%TF.FilePolarity,Positive*%
%FSLAX46Y46*%
G04 Gerber Fmt 4.6, Leading zero omitted, Abs format (unit mm)*
G04 Created by KiCad (PCBNEW 8.0.1) date 2024-06-13 00:26:55*
%MOMM*%
%LPD*%
G01*
G04 APERTURE LIST*
%TA.AperFunction,ComponentPad*%
%ADD10O,1.600000X2.500000*%
%TD*%
%TA.AperFunction,ComponentPad*%
%ADD11O,3.500000X7.000000*%
%TD*%
%TA.AperFunction,ComponentPad*%
%ADD12R,2.100000X2.100000*%
%TD*%
%TA.AperFunction,ComponentPad*%
%ADD13C,2.100000*%
%TD*%
%TA.AperFunction,ComponentPad*%
%ADD14R,1.700000X1.700000*%
%TD*%
%TA.AperFunction,ComponentPad*%
%ADD15O,1.700000X1.700000*%
%TD*%
%TA.AperFunction,ViaPad*%
%ADD16C,0.800000*%
%TD*%
%TA.AperFunction,Conductor*%
%ADD17C,0.500000*%
%TD*%
%TA.AperFunction,Conductor*%
%ADD18C,0.350000*%
%TD*%
G04 APERTURE END LIST*
D10*
%TO.P,J7,1,In*%
%TO.N,Net-(J6-Pin_1)*%
X40060000Y27220000D03*
D11*
%TO.P,J7,2,Ext*%
%TO.N,GND*%
X34980000Y32300000D03*
D10*
X37520000Y27220000D03*
D11*
X45140000Y32300000D03*
%TD*%
D10*
%TO.P,J3,1,In*%
%TO.N,Net-(J3-In)*%
X23350000Y27230000D03*
D11*
%TO.P,J3,2,Ext*%
%TO.N,GND*%
X18270000Y32310000D03*
D10*
X20810000Y27230000D03*
D11*
X28430000Y32310000D03*
%TD*%
D12*
%TO.P,J1,1,Pin_1*%
%TO.N,GND*%
X8100000Y34680000D03*
D13*
%TO.P,J1,2,Pin_2*%
%TO.N,/Vcc*%
X5560000Y34680000D03*
%TD*%
D12*
%TO.P,J4,1,Pin_1*%
%TO.N,Net-(J3-In)*%
X6630000Y18040000D03*
D13*
%TO.P,J4,2,Pin_2*%
%TO.N,GND*%
X6630000Y20580000D03*
%TD*%
D14*
%TO.P,J2,1,Pin_1*%
%TO.N,GND*%
X5360000Y6450000D03*
D15*
%TO.P,J2,2,Pin_2*%
X5360000Y8990000D03*
%TD*%
D14*
%TO.P,J5,1,Pin_1*%
%TO.N,/Vcc*%
X5390000Y27990000D03*
D15*
%TO.P,J5,2,Pin_2*%
%TO.N,Net-(J5-Pin_2)*%
X7930000Y27990000D03*
%TD*%
D12*
%TO.P,J6,1,Pin_1*%
%TO.N,Net-(J6-Pin_1)*%
X52980000Y16790000D03*
D13*
%TO.P,J6,2,Pin_2*%
%TO.N,GND*%
X52980000Y19330000D03*
%TD*%
D16*
%TO.N,/Vcc*%
X11470000Y22360000D03*
X15630000Y18500000D03*
%TO.N,GND*%
X50795000Y10255000D03*
X17775000Y20415000D03*
X2535000Y15335000D03*
X27935000Y20415000D03*
X7615000Y15335000D03*
X43175000Y25495000D03*
X12695000Y2635000D03*
X53335000Y25495000D03*
X22855000Y22955000D03*
X10155000Y35655000D03*
X15235000Y10255000D03*
X2535000Y33115000D03*
X7615000Y7715000D03*
X30475000Y20415000D03*
X55875000Y30575000D03*
X22855000Y35655000D03*
X22855000Y33115000D03*
X27935000Y38195000D03*
X2535000Y22955000D03*
X48255000Y33115000D03*
X5075000Y25495000D03*
X43175000Y5175000D03*
X50795000Y20415000D03*
X20315000Y38195000D03*
X15235000Y28035000D03*
X40635000Y5175000D03*
X55875000Y33115000D03*
X25395000Y38195000D03*
X55875000Y12795000D03*
X40635000Y33115000D03*
X45715000Y38195000D03*
X7615000Y2635000D03*
X48255000Y15335000D03*
X25395000Y2635000D03*
X17775000Y2635000D03*
X7615000Y12795000D03*
X22855000Y5175000D03*
X55875000Y35655000D03*
X5075000Y12795000D03*
X10155000Y12795000D03*
X48255000Y35655000D03*
X33015000Y25495000D03*
X12695000Y35655000D03*
X17775000Y7715000D03*
X50795000Y28035000D03*
X48255000Y25495000D03*
X45715000Y25495000D03*
X55875000Y28035000D03*
X27935000Y10255000D03*
X7615000Y30575000D03*
X40810000Y9910000D03*
X33015000Y2635000D03*
X12695000Y33115000D03*
X12695000Y10255000D03*
X7615000Y22955000D03*
X7615000Y38195000D03*
X20315000Y5175000D03*
X50795000Y22955000D03*
X15235000Y7715000D03*
X50795000Y35655000D03*
X35555000Y25495000D03*
X30475000Y28035000D03*
X12695000Y38195000D03*
X35555000Y10255000D03*
X55875000Y5175000D03*
X40635000Y35655000D03*
X12695000Y30575000D03*
X25395000Y25495000D03*
X53335000Y38195000D03*
X2535000Y12795000D03*
X10155000Y33115000D03*
X20315000Y2635000D03*
X22855000Y30575000D03*
X25395000Y35655000D03*
X33015000Y22955000D03*
X25395000Y30575000D03*
X5075000Y2635000D03*
X53335000Y10255000D03*
X45715000Y5175000D03*
X27935000Y2635000D03*
X30475000Y25495000D03*
X35555000Y22955000D03*
X10155000Y2635000D03*
X27935000Y22955000D03*
X2535000Y17875000D03*
X15235000Y35655000D03*
X25395000Y10255000D03*
X48255000Y5175000D03*
X2535000Y25495000D03*
X55875000Y25495000D03*
X55875000Y2635000D03*
X30475000Y22955000D03*
X30475000Y2635000D03*
X5075000Y15335000D03*
X22855000Y20415000D03*
X30475000Y10255000D03*
X53335000Y35655000D03*
X22855000Y38195000D03*
X55875000Y7715000D03*
X50795000Y15335000D03*
X2535000Y5175000D03*
X53335000Y5175000D03*
X2535000Y38195000D03*
X10155000Y38195000D03*
X48255000Y30575000D03*
X33015000Y20415000D03*
X40635000Y38195000D03*
X10155000Y30575000D03*
X45715000Y20415000D03*
X2535000Y10255000D03*
X17775000Y5175000D03*
X43175000Y22955000D03*
X45715000Y2635000D03*
X5075000Y22955000D03*
X7615000Y5175000D03*
X15235000Y5175000D03*
X38095000Y35655000D03*
X50795000Y38195000D03*
X15235000Y22955000D03*
X17775000Y10255000D03*
X25395000Y33115000D03*
X50795000Y12795000D03*
X45715000Y10255000D03*
X45715000Y12795000D03*
X38095000Y33115000D03*
X53335000Y2635000D03*
X50795000Y7715000D03*
X15235000Y33115000D03*
X53335000Y7715000D03*
X43175000Y38195000D03*
X25395000Y28035000D03*
X33015000Y38195000D03*
X48255000Y38195000D03*
X55875000Y20415000D03*
X25395000Y22955000D03*
X10155000Y7715000D03*
X38095000Y30575000D03*
X55875000Y17875000D03*
X12695000Y17875000D03*
X53335000Y12795000D03*
X33015000Y28035000D03*
X17775000Y38195000D03*
X38095000Y20415000D03*
X40635000Y30575000D03*
X27935000Y5175000D03*
X38095000Y38195000D03*
X43175000Y2635000D03*
X27935000Y25495000D03*
X48255000Y28035000D03*
X48255000Y12795000D03*
X25395000Y5175000D03*
X45715000Y22955000D03*
X30475000Y38195000D03*
X22855000Y2635000D03*
X2535000Y7715000D03*
X50795000Y2635000D03*
X35555000Y20415000D03*
X48255000Y20415000D03*
X48255000Y2635000D03*
X12695000Y28035000D03*
X2535000Y20415000D03*
X55875000Y22955000D03*
X53335000Y22955000D03*
X35555000Y7715000D03*
X2535000Y30575000D03*
X35555000Y17875000D03*
X15235000Y30575000D03*
X53335000Y28035000D03*
X7615000Y10255000D03*
X2535000Y35655000D03*
X48255000Y22955000D03*
X20315000Y20415000D03*
X15235000Y2635000D03*
X2535000Y28035000D03*
X5075000Y38195000D03*
X10155000Y10255000D03*
X15235000Y38195000D03*
X43175000Y28035000D03*
X55875000Y10255000D03*
X25395000Y20415000D03*
X35555000Y38195000D03*
X55875000Y15335000D03*
X50795000Y5175000D03*
X38095000Y22955000D03*
X2535000Y2635000D03*
X55875000Y38195000D03*
X50795000Y25495000D03*
X15235000Y15335000D03*
X30475000Y5175000D03*
%TO.N,Net-(U1B--)*%
X38900000Y17290000D03*
X38180000Y15200000D03*
%TO.N,Net-(U1A-+)*%
X38860000Y11070000D03*
X40690000Y13570000D03*
%TD*%
D17*
%TO.N,/Vcc*%
X11770000Y22360000D02*
X15630000Y18500000D01*
X11470000Y22360000D02*
X11770000Y22360000D01*
D18*
%TO.N,Net-(U1B--)*%
X38820000Y17100000D02*
X38820000Y17210000D01*
X38820000Y15840000D02*
X38820000Y17100000D01*
X38180000Y15200000D02*
X38820000Y15840000D01*
X38820000Y17210000D02*
X38900000Y17290000D01*
D17*
%TO.N,Net-(U1A-+)*%
X40690000Y12900000D02*
X38860000Y11070000D01*
X40690000Y13570000D02*
X40690000Y12900000D01*
%TD*%
%TA.AperFunction,Conductor*%
%TO.N,GND*%
G36*
X5610000Y6883012D02*
G01*
X5552993Y6915925D01*
X5425826Y6950000D01*
X5294174Y6950000D01*
X5167007Y6915925D01*
X5110000Y6883012D01*
X5110000Y8556988D01*
X5167007Y8524075D01*
X5294174Y8490000D01*
X5425826Y8490000D01*
X5552993Y8524075D01*
X5610000Y8556988D01*
X5610000Y6883012D01*
G37*
%TD.AperFunction*%
%TA.AperFunction,Conductor*%
G36*
X57043071Y41250315D02*
G01*
X57088826Y41197511D01*
X57100032Y41146030D01*
X57103657Y26182820D01*
X57108764Y5100000D01*
X57109970Y124030D01*
X57090302Y56986D01*
X57037509Y11218D01*
X56985970Y0D01*
X144000Y0D01*
X76961Y19685D01*
X31206Y72489D01*
X20000Y124000D01*
X20000Y5552156D01*
X4010000Y5552156D01*
X4016401Y5492628D01*
X4016403Y5492621D01*
X4066645Y5357914D01*
X4066649Y5357907D01*
X4152809Y5242813D01*
X4152812Y5242810D01*
X4267906Y5156650D01*
X4267913Y5156646D01*
X4402620Y5106404D01*
X4402627Y5106402D01*
X4462155Y5100001D01*
X4462172Y5100000D01*
X5110000Y5100000D01*
X5110000Y6016988D01*
X5167007Y5984075D01*
X5294174Y5950000D01*
X5425826Y5950000D01*
X5552993Y5984075D01*
X5610000Y6016988D01*
X5610000Y5100000D01*
X6257828Y5100000D01*
X6257844Y5100001D01*
X6317372Y5106402D01*
X6317379Y5106404D01*
X6452086Y5156646D01*
X6452093Y5156650D01*
X6567187Y5242810D01*
X6567190Y5242813D01*
X6653350Y5357907D01*
X6653354Y5357914D01*
X6667283Y5395259D01*
X10709500Y5395259D01*
X10734446Y5205785D01*
X10739452Y5167762D01*
X10757609Y5100000D01*
X10798842Y4946113D01*
X10886650Y4734124D01*
X10886657Y4734110D01*
X11001392Y4535383D01*
X11141081Y4353339D01*
X11141089Y4353330D01*
X11303330Y4191089D01*
X11303338Y4191082D01*
X11485382Y4051393D01*
X11485385Y4051392D01*
X11485388Y4051389D01*
X11684112Y3936656D01*
X11684117Y3936654D01*
X11684123Y3936651D01*
X11775480Y3898810D01*
X11896113Y3848842D01*
X12117762Y3789452D01*
X12345266Y3759500D01*
X12345273Y3759500D01*
X12574727Y3759500D01*
X12574734Y3759500D01*
X12802238Y3789452D01*
X13023887Y3848842D01*
X13235888Y3936656D01*
X13434612Y4051389D01*
X13616661Y4191081D01*
X13616665Y4191086D01*
X13616670Y4191089D01*
X13778911Y4353330D01*
X13778914Y4353335D01*
X13778919Y4353339D01*
X13918611Y4535388D01*
X14033344Y4734112D01*
X14121158Y4946113D01*
X14180548Y5167762D01*
X14210500Y5395266D01*
X14210500Y5624734D01*
X14180548Y5852238D01*
X14121158Y6073887D01*
X14033344Y6285888D01*
X13918611Y6484612D01*
X13918608Y6484615D01*
X13918607Y6484618D01*
X13778918Y6666662D01*
X13778911Y6666670D01*
X13616670Y6828911D01*
X13616661Y6828919D01*
X13434617Y6968608D01*
X13235890Y7083343D01*
X13235876Y7083350D01*
X13023887Y7171158D01*
X12802238Y7230548D01*
X12764215Y7235554D01*
X12574741Y7260500D01*
X12574734Y7260500D01*
X12345266Y7260500D01*
X12345258Y7260500D01*
X12128715Y7231991D01*
X12117762Y7230548D01*
X12024076Y7205446D01*
X11896112Y7171158D01*
X11684123Y7083350D01*
X11684109Y7083343D01*
X11485382Y6968608D01*
X11303338Y6828919D01*
X11141081Y6666662D01*
X11001392Y6484618D01*
X10886657Y6285891D01*
X10886650Y6285877D01*
X10798842Y6073888D01*
X10739453Y5852241D01*
X10739451Y5852230D01*
X10709500Y5624742D01*
X10709500Y5395259D01*
X6667283Y5395259D01*
X6703596Y5492621D01*
X6703598Y5492628D01*
X6709999Y5552156D01*
X6710000Y5552173D01*
X6710000Y6200000D01*
X5793012Y6200000D01*
X5825925Y6257007D01*
X5860000Y6384174D01*
X5860000Y6515826D01*
X5825925Y6642993D01*
X5793012Y6700000D01*
X6710000Y6700000D01*
X6710000Y7347828D01*
X6709999Y7347845D01*
X6703598Y7407373D01*
X6703596Y7407380D01*
X6653354Y7542087D01*
X6653350Y7542094D01*
X6567190Y7657188D01*
X6567187Y7657191D01*
X6452093Y7743351D01*
X6452086Y7743355D01*
X6320013Y7792615D01*
X6264079Y7834486D01*
X6239662Y7899951D01*
X6254514Y7968224D01*
X6275665Y7996479D01*
X6398108Y8118922D01*
X6533600Y8312422D01*
X6633429Y8526508D01*
X6633432Y8526514D01*
X6690636Y8740000D01*
X5793012Y8740000D01*
X5825925Y8797007D01*
X5860000Y8924174D01*
X5860000Y9055826D01*
X5825925Y9182993D01*
X5793012Y9240000D01*
X6690636Y9240000D01*
X6690635Y9240001D01*
X6633432Y9453487D01*
X6633429Y9453493D01*
X6533600Y9667578D01*
X6533599Y9667580D01*
X6398113Y9861074D01*
X6398108Y9861080D01*
X6231082Y10028106D01*
X6037578Y10163601D01*
X5823492Y10263430D01*
X5823486Y10263433D01*
X5610000Y10320636D01*
X5610000Y9423012D01*
X5552993Y9455925D01*
X5425826Y9490000D01*
X5294174Y9490000D01*
X5167007Y9455925D01*
X5110000Y9423012D01*
X5110000Y10320636D01*
X5109999Y10320636D01*
X4896513Y10263433D01*
X4896507Y10263430D01*
X4682422Y10163601D01*
X4682420Y10163600D01*
X4488926Y10028114D01*
X4488920Y10028109D01*
X4321891Y9861080D01*
X4321886Y9861074D01*
X4186400Y9667580D01*
X4186399Y9667578D01*
X4086570Y9453493D01*
X4086567Y9453487D01*
X4029364Y9240001D01*
X4029364Y9240000D01*
X4926988Y9240000D01*
X4894075Y9182993D01*
X4860000Y9055826D01*
X4860000Y8924174D01*
X4894075Y8797007D01*
X4926988Y8740000D01*
X4029364Y8740000D01*
X4086567Y8526514D01*
X4086570Y8526508D01*
X4186399Y8312422D01*
X4321894Y8118918D01*
X4444334Y7996478D01*
X4477819Y7935155D01*
X4472835Y7865463D01*
X4430963Y7809530D01*
X4399987Y7792615D01*
X4267911Y7743354D01*
X4267906Y7743351D01*
X4152812Y7657191D01*
X4152809Y7657188D01*
X4066649Y7542094D01*
X4066645Y7542087D01*
X4016403Y7407380D01*
X4016401Y7407373D01*
X4010000Y7347845D01*
X4010000Y6700000D01*
X4926988Y6700000D01*
X4894075Y6642993D01*
X4860000Y6515826D01*
X4860000Y6384174D01*
X4894075Y6257007D01*
X4926988Y6200000D01*
X4010000Y6200000D01*
X4010000Y5552156D01*
X20000Y5552156D01*
X20000Y11070000D01*
X37946496Y11070000D01*
X37966458Y10880072D01*
X37966459Y10880069D01*
X38025470Y10698451D01*
X38025473Y10698444D01*
X38120960Y10533056D01*
X38248747Y10391134D01*
X38403248Y10278882D01*
X38577712Y10201206D01*
X38764513Y10161500D01*
X38955487Y10161500D01*
X39142288Y10201206D01*
X39316752Y10278882D01*
X39471253Y10391134D01*
X39599040Y10533056D01*
X39694527Y10698444D01*
X39749537Y10867747D01*
X39779783Y10917104D01*
X41279166Y12416485D01*
X41362174Y12540716D01*
X41419351Y12678753D01*
X41448500Y12825295D01*
X41448500Y12974705D01*
X41448500Y13033537D01*
X41465113Y13095537D01*
X41502459Y13160222D01*
X41524527Y13198444D01*
X41583542Y13380072D01*
X41603504Y13570000D01*
X41583542Y13759928D01*
X41524527Y13941556D01*
X41429040Y14106944D01*
X41301253Y14248866D01*
X41146752Y14361118D01*
X40972288Y14438794D01*
X40972286Y14438795D01*
X40785487Y14478500D01*
X40594513Y14478500D01*
X40407714Y14438795D01*
X40233246Y14361117D01*
X40078745Y14248865D01*
X39950959Y14106943D01*
X39855473Y13941557D01*
X39855470Y13941550D01*
X39796459Y13759932D01*
X39796458Y13759928D01*
X39776496Y13570000D01*
X39796458Y13380072D01*
X39796459Y13380069D01*
X39846776Y13225208D01*
X39848771Y13155367D01*
X39816526Y13099209D01*
X38703248Y11985931D01*
X38641925Y11952446D01*
X38641351Y11952322D01*
X38577712Y11938794D01*
X38403244Y11861116D01*
X38248745Y11748865D01*
X38120959Y11606943D01*
X38025473Y11441557D01*
X38025470Y11441550D01*
X37966459Y11259932D01*
X37966458Y11259928D01*
X37946496Y11070000D01*
X20000Y11070000D01*
X20000Y15200000D01*
X37266496Y15200000D01*
X37286458Y15010072D01*
X37286459Y15010069D01*
X37345470Y14828451D01*
X37345473Y14828444D01*
X37440960Y14663056D01*
X37568747Y14521134D01*
X37723248Y14408882D01*
X37897712Y14331206D01*
X38084513Y14291500D01*
X38275487Y14291500D01*
X38462288Y14331206D01*
X38636752Y14408882D01*
X38791253Y14521134D01*
X38919040Y14663056D01*
X39014527Y14828444D01*
X39073542Y15010072D01*
X39082676Y15096985D01*
X39109261Y15161597D01*
X39118306Y15171693D01*
X39350909Y15404294D01*
X39425710Y15516241D01*
X39473161Y15630799D01*
X39477234Y15640631D01*
X39487322Y15691346D01*
X51421500Y15691346D01*
X51428011Y15630797D01*
X51479111Y15493796D01*
X51566739Y15376739D01*
X51683796Y15289111D01*
X51820799Y15238011D01*
X51848050Y15235082D01*
X51881345Y15231501D01*
X51881362Y15231500D01*
X54078638Y15231500D01*
X54078654Y15231501D01*
X54105692Y15234409D01*
X54139201Y15238011D01*
X54276204Y15289111D01*
X54393261Y15376739D01*
X54480889Y15493796D01*
X54531989Y15630799D01*
X54535383Y15662377D01*
X54538499Y15691346D01*
X54538500Y15691363D01*
X54538500Y17888638D01*
X54538499Y17888655D01*
X54535157Y17919730D01*
X54531989Y17949201D01*
X54526821Y17963056D01*
X54482786Y18081117D01*
X54480889Y18086204D01*
X54393261Y18203261D01*
X54287762Y18282237D01*
X54245892Y18338170D01*
X54240908Y18407862D01*
X54256347Y18446293D01*
X54365331Y18624139D01*
X54458696Y18849543D01*
X54515651Y19086781D01*
X54534792Y19330000D01*
X54515651Y19573220D01*
X54458696Y19810458D01*
X54365331Y20035862D01*
X54241494Y20237943D01*
X53503787Y19500237D01*
X53492518Y19542292D01*
X53420110Y19667708D01*
X53317708Y19770110D01*
X53192292Y19842518D01*
X53150234Y19853788D01*
X53887941Y20591496D01*
X53685861Y20715332D01*
X53460457Y20808697D01*
X53223219Y20865652D01*
X53223220Y20865652D01*
X52980000Y20884793D01*
X52736780Y20865652D01*
X52499542Y20808697D01*
X52274138Y20715332D01*
X52072057Y20591496D01*
X52809766Y19853788D01*
X52767708Y19842518D01*
X52642292Y19770110D01*
X52539890Y19667708D01*
X52467482Y19542292D01*
X52456212Y19500235D01*
X51718504Y20237943D01*
X51594668Y20035862D01*
X51501303Y19810458D01*
X51444348Y19573220D01*
X51425207Y19330000D01*
X51444348Y19086781D01*
X51501303Y18849543D01*
X51594666Y18624144D01*
X51703653Y18446293D01*
X51721897Y18378847D01*
X51700780Y18312244D01*
X51672236Y18282237D01*
X51566741Y18203263D01*
X51566740Y18203262D01*
X51566739Y18203261D01*
X51563175Y18198500D01*
X51479111Y18086205D01*
X51428011Y17949205D01*
X51428011Y17949203D01*
X51421500Y17888655D01*
X51421500Y15691346D01*
X39487322Y15691346D01*
X39503500Y15772682D01*
X39503500Y15907319D01*
X39503500Y16554925D01*
X39523185Y16621964D01*
X39535350Y16637897D01*
X39639040Y16753056D01*
X39734527Y16918444D01*
X39793542Y17100072D01*
X39813504Y17290000D01*
X39793542Y17479928D01*
X39734527Y17661556D01*
X39639040Y17826944D01*
X39511253Y17968866D01*
X39356752Y18081118D01*
X39182288Y18158794D01*
X39182286Y18158795D01*
X38995487Y18198500D01*
X38804513Y18198500D01*
X38617714Y18158795D01*
X38617712Y18158794D01*
X38454672Y18086204D01*
X38443246Y18081117D01*
X38288745Y17968865D01*
X38160959Y17826943D01*
X38065473Y17661557D01*
X38065470Y17661550D01*
X38006459Y17479932D01*
X38006458Y17479928D01*
X37986496Y17290000D01*
X38006458Y17100072D01*
X38006459Y17100069D01*
X38065470Y16918451D01*
X38065473Y16918444D01*
X38087207Y16880799D01*
X38119887Y16824197D01*
X38136500Y16762197D01*
X38136500Y16219964D01*
X38116815Y16152925D01*
X38064011Y16107170D01*
X38038282Y16098674D01*
X37897713Y16068795D01*
X37723246Y15991117D01*
X37568745Y15878865D01*
X37440959Y15736943D01*
X37345473Y15571557D01*
X37345470Y15571550D01*
X37286459Y15389932D01*
X37286458Y15389928D01*
X37266496Y15200000D01*
X20000Y15200000D01*
X20000Y16941346D01*
X5071500Y16941346D01*
X5078011Y16880798D01*
X5078011Y16880796D01*
X5109855Y16795422D01*
X5129111Y16743796D01*
X5216739Y16626739D01*
X5333796Y16539111D01*
X5470799Y16488011D01*
X5498050Y16485082D01*
X5531345Y16481501D01*
X5531362Y16481500D01*
X7728638Y16481500D01*
X7728654Y16481501D01*
X7755692Y16484409D01*
X7789201Y16488011D01*
X7926204Y16539111D01*
X8043261Y16626739D01*
X8130889Y16743796D01*
X8181989Y16880799D01*
X8186037Y16918451D01*
X8188499Y16941346D01*
X8188500Y16941363D01*
X8188500Y19138638D01*
X8188499Y19138655D01*
X8184175Y19178866D01*
X8181989Y19199201D01*
X8130889Y19336204D01*
X8043261Y19453261D01*
X7937762Y19532237D01*
X7895892Y19588170D01*
X7890908Y19657862D01*
X7906347Y19696293D01*
X8015331Y19874139D01*
X8108696Y20099543D01*
X8165651Y20336781D01*
X8184792Y20580000D01*
X8165651Y20823220D01*
X8108696Y21060458D01*
X8015331Y21285862D01*
X7891494Y21487943D01*
X7153787Y20750237D01*
X7142518Y20792292D01*
X7070110Y20917708D01*
X6967708Y21020110D01*
X6842292Y21092518D01*
X6800234Y21103788D01*
X7537941Y21841496D01*
X7335861Y21965332D01*
X7110457Y22058697D01*
X6873219Y22115652D01*
X6873220Y22115652D01*
X6630000Y22134793D01*
X6386780Y22115652D01*
X6149542Y22058697D01*
X5924138Y21965332D01*
X5722057Y21841496D01*
X6459766Y21103788D01*
X6417708Y21092518D01*
X6292292Y21020110D01*
X6189890Y20917708D01*
X6117482Y20792292D01*
X6106212Y20750235D01*
X5368504Y21487943D01*
X5244668Y21285862D01*
X5151303Y21060458D01*
X5094348Y20823220D01*
X5075207Y20580000D01*
X5094348Y20336781D01*
X5151303Y20099543D01*
X5244666Y19874144D01*
X5353653Y19696293D01*
X5371897Y19628847D01*
X5350780Y19562244D01*
X5322236Y19532237D01*
X5216741Y19453263D01*
X5216740Y19453262D01*
X5216739Y19453261D01*
X5188794Y19415931D01*
X5129111Y19336205D01*
X5078011Y19199205D01*
X5078011Y19199203D01*
X5071500Y19138655D01*
X5071500Y16941346D01*
X20000Y16941346D01*
X20000Y22360000D01*
X10556496Y22360000D01*
X10576458Y22170072D01*
X10576459Y22170069D01*
X10635470Y21988451D01*
X10635473Y21988444D01*
X10730960Y21823056D01*
X10858747Y21681134D01*
X11013248Y21568882D01*
X11187712Y21491206D01*
X11374513Y21451500D01*
X11554457Y21451500D01*
X11621496Y21431815D01*
X11642138Y21415181D01*
X14710213Y18347106D01*
X14740463Y18297744D01*
X14795471Y18128448D01*
X14795473Y18128444D01*
X14890960Y17963056D01*
X14957951Y17888655D01*
X15013516Y17826943D01*
X15018747Y17821134D01*
X15173248Y17708882D01*
X15347712Y17631206D01*
X15534513Y17591500D01*
X15725487Y17591500D01*
X15912288Y17631206D01*
X16086752Y17708882D01*
X16241253Y17821134D01*
X16369040Y17963056D01*
X16464527Y18128444D01*
X16523542Y18310072D01*
X16543504Y18500000D01*
X16523542Y18689928D01*
X16464527Y18871556D01*
X16369040Y19036944D01*
X16241253Y19178866D01*
X16086752Y19291118D01*
X15912288Y19368794D01*
X15912286Y19368795D01*
X15848648Y19382322D01*
X15787167Y19415516D01*
X15786750Y19415931D01*
X12253518Y22949164D01*
X12253515Y22949167D01*
X12129290Y23032171D01*
X12129285Y23032173D01*
X12129284Y23032174D01*
X12089675Y23048581D01*
X12052538Y23063964D01*
X12027107Y23078207D01*
X11926756Y23151116D01*
X11926752Y23151118D01*
X11752288Y23228794D01*
X11752286Y23228795D01*
X11565487Y23268500D01*
X11374513Y23268500D01*
X11187714Y23228795D01*
X11013246Y23151117D01*
X10858745Y23038865D01*
X10730959Y22896943D01*
X10635473Y22731557D01*
X10635470Y22731550D01*
X10576459Y22549932D01*
X10576458Y22549928D01*
X10556496Y22360000D01*
X20000Y22360000D01*
X20000Y27091346D01*
X4031500Y27091346D01*
X4038011Y27030798D01*
X4038011Y27030796D01*
X4089111Y26893796D01*
X4176739Y26776739D01*
X4293796Y26689111D01*
X4430799Y26638011D01*
X4458050Y26635082D01*
X4491345Y26631501D01*
X4491362Y26631500D01*
X6288638Y26631500D01*
X6288654Y26631501D01*
X6315692Y26634409D01*
X6349201Y26638011D01*
X6486204Y26689111D01*
X6603261Y26776739D01*
X6690889Y26893796D01*
X6736138Y27015113D01*
X6778009Y27071044D01*
X6843474Y27095461D01*
X6911746Y27080609D01*
X6943545Y27055764D01*
X7006760Y26987094D01*
X7184424Y26848811D01*
X7184425Y26848811D01*
X7184427Y26848809D01*
X7246299Y26815326D01*
X7382426Y26741658D01*
X7595365Y26668556D01*
X7817431Y26631500D01*
X8042569Y26631500D01*
X8264635Y26668556D01*
X8291221Y26677683D01*
X19510000Y26677683D01*
X19542009Y26475583D01*
X19605244Y26280969D01*
X19698140Y26098651D01*
X19818417Y25933106D01*
X19818417Y25933105D01*
X19963104Y25788418D01*
X20128650Y25668141D01*
X20310968Y25575246D01*
X20505578Y25512012D01*
X20560000Y25503393D01*
X20560000Y26860496D01*
X20638236Y26815326D01*
X20751415Y26785000D01*
X20868585Y26785000D01*
X20981764Y26815326D01*
X21060000Y26860496D01*
X21060000Y25503394D01*
X21114421Y25512012D01*
X21309031Y25575246D01*
X21491349Y25668141D01*
X21656894Y25788418D01*
X21656895Y25788418D01*
X21801582Y25933105D01*
X21801582Y25933106D01*
X21921861Y26098653D01*
X21964745Y26182819D01*
X22012718Y26233615D01*
X22080539Y26250411D01*
X22146674Y26227874D01*
X22185715Y26182820D01*
X22230873Y26094194D01*
X22351926Y25927577D01*
X22351930Y25927572D01*
X22497571Y25781931D01*
X22497576Y25781927D01*
X22642908Y25676339D01*
X22664197Y25660871D01*
X22781128Y25601291D01*
X22847705Y25567368D01*
X22847707Y25567368D01*
X22847710Y25567366D01*
X22952707Y25533251D01*
X23043591Y25503720D01*
X23108787Y25493394D01*
X23247019Y25471500D01*
X23247020Y25471500D01*
X23452980Y25471500D01*
X23452981Y25471500D01*
X23656408Y25503720D01*
X23852290Y25567366D01*
X24035803Y25660871D01*
X24202430Y25781932D01*
X24348068Y25927570D01*
X24469129Y26094197D01*
X24562634Y26277710D01*
X24626280Y26473592D01*
X24657021Y26667683D01*
X36220000Y26667683D01*
X36252009Y26465583D01*
X36315244Y26270969D01*
X36408140Y26088651D01*
X36528417Y25923106D01*
X36528417Y25923105D01*
X36673104Y25778418D01*
X36838650Y25658141D01*
X37020968Y25565246D01*
X37215578Y25502012D01*
X37270000Y25493393D01*
X37270000Y26850496D01*
X37348236Y26805326D01*
X37461415Y26775000D01*
X37578585Y26775000D01*
X37691764Y26805326D01*
X37770000Y26850496D01*
X37770000Y25493394D01*
X37824421Y25502012D01*
X38019031Y25565246D01*
X38201349Y25658141D01*
X38366894Y25778418D01*
X38366895Y25778418D01*
X38511582Y25923105D01*
X38511582Y25923106D01*
X38631861Y26088653D01*
X38674745Y26172819D01*
X38722718Y26223615D01*
X38790539Y26240411D01*
X38856674Y26217874D01*
X38895715Y26172820D01*
X38935777Y26094194D01*
X38940873Y26084194D01*
X39061926Y25917577D01*
X39061930Y25917572D01*
X39207571Y25771931D01*
X39207576Y25771927D01*
X39350427Y25668141D01*
X39374197Y25650871D01*
X39491128Y25591291D01*
X39557705Y25557368D01*
X39557707Y25557368D01*
X39557710Y25557366D01*
X39662707Y25523251D01*
X39753591Y25493720D01*
X39855305Y25477610D01*
X39957019Y25461500D01*
X39957020Y25461500D01*
X40162980Y25461500D01*
X40162981Y25461500D01*
X40366408Y25493720D01*
X40562290Y25557366D01*
X40745803Y25650871D01*
X40912430Y25771932D01*
X41058068Y25917570D01*
X41179129Y26084197D01*
X41272634Y26267710D01*
X41336280Y26463592D01*
X41368500Y26667019D01*
X41368500Y27772981D01*
X41336280Y27976408D01*
X41333677Y27984418D01*
X41306749Y28067293D01*
X41272634Y28172290D01*
X41272632Y28172293D01*
X41272632Y28172295D01*
X41224284Y28267182D01*
X41179129Y28355803D01*
X41123322Y28432615D01*
X41058073Y28522424D01*
X41058069Y28522429D01*
X40912428Y28668070D01*
X40912423Y28668074D01*
X40745806Y28789127D01*
X40745805Y28789128D01*
X40745803Y28789129D01*
X40688496Y28818329D01*
X40562294Y28882633D01*
X40366408Y28946281D01*
X40190794Y28974095D01*
X40162981Y28978500D01*
X39957019Y28978500D01*
X39932550Y28974625D01*
X39753591Y28946281D01*
X39557705Y28882633D01*
X39374193Y28789127D01*
X39207576Y28668074D01*
X39207571Y28668070D01*
X39061930Y28522429D01*
X39061926Y28522424D01*
X38940871Y28355805D01*
X38895714Y28267180D01*
X38847740Y28216385D01*
X38779918Y28199590D01*
X38713784Y28222128D01*
X38674745Y28267182D01*
X38631861Y28351348D01*
X38511582Y28516895D01*
X38511582Y28516896D01*
X38366895Y28661583D01*
X38201349Y28781860D01*
X38019029Y28874756D01*
X37824413Y28937991D01*
X37770000Y28946610D01*
X37770000Y27589505D01*
X37691764Y27634674D01*
X37578585Y27665000D01*
X37461415Y27665000D01*
X37348236Y27634674D01*
X37270000Y27589505D01*
X37270000Y28946610D01*
X37215586Y28937991D01*
X37020970Y28874756D01*
X36838650Y28781860D01*
X36673105Y28661583D01*
X36673104Y28661583D01*
X36528417Y28516896D01*
X36528417Y28516895D01*
X36408140Y28351350D01*
X36315244Y28169032D01*
X36252009Y27974418D01*
X36220000Y27772318D01*
X36220000Y27470000D01*
X37150496Y27470000D01*
X37105326Y27391764D01*
X37075000Y27278585D01*
X37075000Y27161415D01*
X37105326Y27048236D01*
X37150496Y26970000D01*
X36220000Y26970000D01*
X36220000Y26667683D01*
X24657021Y26667683D01*
X24658500Y26677019D01*
X24658500Y27782981D01*
X24626280Y27986408D01*
X24562634Y28182290D01*
X24562632Y28182293D01*
X24562632Y28182295D01*
X24514284Y28277182D01*
X24469129Y28365803D01*
X24433505Y28414836D01*
X24348073Y28532424D01*
X24348069Y28532429D01*
X24202428Y28678070D01*
X24202423Y28678074D01*
X24035806Y28799127D01*
X24035805Y28799128D01*
X24035803Y28799129D01*
X23978496Y28828329D01*
X23852294Y28892633D01*
X23656408Y28956281D01*
X23480794Y28984095D01*
X23452981Y28988500D01*
X23247019Y28988500D01*
X23222550Y28984625D01*
X23043591Y28956281D01*
X22847705Y28892633D01*
X22664193Y28799127D01*
X22497576Y28678074D01*
X22497571Y28678070D01*
X22351930Y28532429D01*
X22351926Y28532424D01*
X22230871Y28365805D01*
X22185714Y28277180D01*
X22137740Y28226385D01*
X22069918Y28209590D01*
X22003784Y28232128D01*
X21964745Y28277182D01*
X21921861Y28361348D01*
X21801582Y28526895D01*
X21801582Y28526896D01*
X21656895Y28671583D01*
X21491349Y28791860D01*
X21309029Y28884756D01*
X21114413Y28947991D01*
X21060000Y28956610D01*
X21060000Y27599505D01*
X20981764Y27644674D01*
X20868585Y27675000D01*
X20751415Y27675000D01*
X20638236Y27644674D01*
X20560000Y27599505D01*
X20560000Y28956610D01*
X20505586Y28947991D01*
X20310970Y28884756D01*
X20128650Y28791860D01*
X19963105Y28671583D01*
X19963104Y28671583D01*
X19818417Y28526896D01*
X19818417Y28526895D01*
X19698140Y28361350D01*
X19605244Y28179032D01*
X19542009Y27984418D01*
X19510000Y27782318D01*
X19510000Y27480000D01*
X20440496Y27480000D01*
X20395326Y27401764D01*
X20365000Y27288585D01*
X20365000Y27171415D01*
X20395326Y27058236D01*
X20440496Y26980000D01*
X19510000Y26980000D01*
X19510000Y26677683D01*
X8291221Y26677683D01*
X8477574Y26741658D01*
X8675576Y26848811D01*
X8853240Y26987094D01*
X9005722Y27152732D01*
X9128860Y27341209D01*
X9219296Y27547384D01*
X9274564Y27765632D01*
X9292030Y27976409D01*
X9293156Y27989995D01*
X9293156Y27990006D01*
X9274565Y28214360D01*
X9274563Y28214372D01*
X9249461Y28313498D01*
X9219296Y28432616D01*
X9128860Y28638791D01*
X9109732Y28668068D01*
X9005723Y28827266D01*
X9005715Y28827277D01*
X8853243Y28992903D01*
X8853238Y28992908D01*
X8675577Y29131188D01*
X8675572Y29131192D01*
X8477580Y29238339D01*
X8477577Y29238341D01*
X8477574Y29238342D01*
X8477571Y29238343D01*
X8477569Y29238344D01*
X8264637Y29311444D01*
X8042569Y29348500D01*
X7817431Y29348500D01*
X7595362Y29311444D01*
X7382430Y29238344D01*
X7382419Y29238339D01*
X7184427Y29131192D01*
X7184422Y29131188D01*
X7006761Y28992908D01*
X6943548Y28924240D01*
X6883661Y28888250D01*
X6813823Y28890351D01*
X6756207Y28929876D01*
X6736138Y28964890D01*
X6690889Y29086204D01*
X6657214Y29131188D01*
X6603261Y29203261D01*
X6486204Y29290889D01*
X6349203Y29341989D01*
X6288654Y29348500D01*
X6288638Y29348500D01*
X4491362Y29348500D01*
X4491345Y29348500D01*
X4430797Y29341989D01*
X4430795Y29341989D01*
X4293795Y29290889D01*
X4176739Y29203261D01*
X4089111Y29086205D01*
X4038011Y28949205D01*
X4038011Y28949203D01*
X4031500Y28888655D01*
X4031500Y27091346D01*
X20000Y27091346D01*
X20000Y30412534D01*
X16020000Y30412534D01*
X16020001Y30412517D01*
X16058496Y30120116D01*
X16058499Y30120103D01*
X16134835Y29835210D01*
X16134838Y29835200D01*
X16247704Y29562719D01*
X16247709Y29562708D01*
X16395174Y29307293D01*
X16395185Y29307277D01*
X16574729Y29073291D01*
X16574735Y29073284D01*
X16783283Y28864736D01*
X16783290Y28864730D01*
X17017276Y28685186D01*
X17017292Y28685175D01*
X17272707Y28537710D01*
X17272718Y28537705D01*
X17545199Y28424839D01*
X17545209Y28424836D01*
X17830102Y28348500D01*
X17830115Y28348497D01*
X18020000Y28323498D01*
X18020000Y31335039D01*
X18171016Y31305000D01*
X18368984Y31305000D01*
X18520000Y31335039D01*
X18520000Y28323499D01*
X18709884Y28348497D01*
X18709897Y28348500D01*
X18994790Y28424836D01*
X18994800Y28424839D01*
X19267281Y28537705D01*
X19267292Y28537710D01*
X19522707Y28685175D01*
X19522723Y28685186D01*
X19756709Y28864730D01*
X19756716Y28864736D01*
X19965264Y29073284D01*
X19965270Y29073291D01*
X20144814Y29307277D01*
X20144825Y29307293D01*
X20292290Y29562708D01*
X20292295Y29562719D01*
X20405161Y29835200D01*
X20405164Y29835210D01*
X20481500Y30120103D01*
X20481503Y30120116D01*
X20519998Y30412517D01*
X20520000Y30412534D01*
X26180000Y30412534D01*
X26180001Y30412517D01*
X26218496Y30120116D01*
X26218499Y30120103D01*
X26294835Y29835210D01*
X26294838Y29835200D01*
X26407704Y29562719D01*
X26407709Y29562708D01*
X26555174Y29307293D01*
X26555185Y29307277D01*
X26734729Y29073291D01*
X26734735Y29073284D01*
X26943283Y28864736D01*
X26943290Y28864730D01*
X27177276Y28685186D01*
X27177292Y28685175D01*
X27432707Y28537710D01*
X27432718Y28537705D01*
X27705199Y28424839D01*
X27705209Y28424836D01*
X27990102Y28348500D01*
X27990115Y28348497D01*
X28180000Y28323498D01*
X28180000Y31335039D01*
X28331016Y31305000D01*
X28528984Y31305000D01*
X28680000Y31335039D01*
X28680000Y28323499D01*
X28869884Y28348497D01*
X28869897Y28348500D01*
X29154790Y28424836D01*
X29154800Y28424839D01*
X29427281Y28537705D01*
X29427292Y28537710D01*
X29682707Y28685175D01*
X29682723Y28685186D01*
X29916709Y28864730D01*
X29916716Y28864736D01*
X30125264Y29073284D01*
X30125270Y29073291D01*
X30304814Y29307277D01*
X30304825Y29307293D01*
X30452290Y29562708D01*
X30452295Y29562719D01*
X30565161Y29835200D01*
X30565164Y29835210D01*
X30641500Y30120103D01*
X30641503Y30120116D01*
X30678684Y30402534D01*
X32730000Y30402534D01*
X32730001Y30402517D01*
X32768496Y30110116D01*
X32768499Y30110103D01*
X32844835Y29825210D01*
X32844838Y29825200D01*
X32957704Y29552719D01*
X32957709Y29552708D01*
X33105174Y29297293D01*
X33105185Y29297277D01*
X33284729Y29063291D01*
X33284735Y29063284D01*
X33493283Y28854736D01*
X33493290Y28854730D01*
X33727276Y28675186D01*
X33727292Y28675175D01*
X33982707Y28527710D01*
X33982718Y28527705D01*
X34255199Y28414839D01*
X34255209Y28414836D01*
X34540102Y28338500D01*
X34540115Y28338497D01*
X34730000Y28313498D01*
X34730000Y31325039D01*
X34881016Y31295000D01*
X35078984Y31295000D01*
X35230000Y31325039D01*
X35230000Y28313499D01*
X35419884Y28338497D01*
X35419897Y28338500D01*
X35704790Y28414836D01*
X35704800Y28414839D01*
X35977281Y28527705D01*
X35977292Y28527710D01*
X36232707Y28675175D01*
X36232723Y28675186D01*
X36466709Y28854730D01*
X36466716Y28854736D01*
X36675264Y29063284D01*
X36675270Y29063291D01*
X36854814Y29297277D01*
X36854825Y29297293D01*
X37002290Y29552708D01*
X37002295Y29552719D01*
X37115161Y29825200D01*
X37115164Y29825210D01*
X37191500Y30110103D01*
X37191503Y30110116D01*
X37229998Y30402517D01*
X37230000Y30402534D01*
X42890000Y30402534D01*
X42890001Y30402517D01*
X42928496Y30110116D01*
X42928499Y30110103D01*
X43004835Y29825210D01*
X43004838Y29825200D01*
X43117704Y29552719D01*
X43117709Y29552708D01*
X43265174Y29297293D01*
X43265185Y29297277D01*
X43444729Y29063291D01*
X43444735Y29063284D01*
X43653283Y28854736D01*
X43653290Y28854730D01*
X43887276Y28675186D01*
X43887292Y28675175D01*
X44142707Y28527710D01*
X44142718Y28527705D01*
X44415199Y28414839D01*
X44415209Y28414836D01*
X44700102Y28338500D01*
X44700115Y28338497D01*
X44890000Y28313498D01*
X44890000Y31325039D01*
X45041016Y31295000D01*
X45238984Y31295000D01*
X45390000Y31325039D01*
X45390000Y28313499D01*
X45579884Y28338497D01*
X45579897Y28338500D01*
X45864790Y28414836D01*
X45864800Y28414839D01*
X46137281Y28527705D01*
X46137292Y28527710D01*
X46392707Y28675175D01*
X46392723Y28675186D01*
X46626709Y28854730D01*
X46626716Y28854736D01*
X46835264Y29063284D01*
X46835270Y29063291D01*
X47014814Y29297277D01*
X47014825Y29297293D01*
X47162290Y29552708D01*
X47162295Y29552719D01*
X47275161Y29825200D01*
X47275164Y29825210D01*
X47351500Y30110103D01*
X47351503Y30110116D01*
X47389998Y30402517D01*
X47390000Y30402534D01*
X47390000Y32050000D01*
X46114962Y32050000D01*
X46145000Y32201016D01*
X46145000Y32255259D01*
X50569500Y32255259D01*
X50576642Y32201016D01*
X50599452Y32027762D01*
X50605055Y32006852D01*
X50658842Y31806113D01*
X50746650Y31594124D01*
X50746657Y31594110D01*
X50861392Y31395383D01*
X51001081Y31213339D01*
X51001089Y31213330D01*
X51163330Y31051089D01*
X51163338Y31051082D01*
X51345382Y30911393D01*
X51345385Y30911392D01*
X51345388Y30911389D01*
X51544112Y30796656D01*
X51544117Y30796654D01*
X51544123Y30796651D01*
X51635480Y30758810D01*
X51756113Y30708842D01*
X51977762Y30649452D01*
X52205266Y30619500D01*
X52205273Y30619500D01*
X52434727Y30619500D01*
X52434734Y30619500D01*
X52662238Y30649452D01*
X52883887Y30708842D01*
X53095888Y30796656D01*
X53294612Y30911389D01*
X53476661Y31051081D01*
X53476665Y31051086D01*
X53476670Y31051089D01*
X53638911Y31213330D01*
X53638914Y31213335D01*
X53638919Y31213339D01*
X53778611Y31395388D01*
X53893344Y31594112D01*
X53981158Y31806113D01*
X54040548Y32027762D01*
X54070500Y32255266D01*
X54070500Y32484734D01*
X54040548Y32712238D01*
X53981158Y32933887D01*
X53897470Y33135928D01*
X53893349Y33145877D01*
X53893346Y33145883D01*
X53893344Y33145888D01*
X53778611Y33344612D01*
X53778608Y33344615D01*
X53778607Y33344618D01*
X53642019Y33522621D01*
X53638919Y33526661D01*
X53638918Y33526662D01*
X53638911Y33526670D01*
X53476670Y33688911D01*
X53476661Y33688919D01*
X53294617Y33828608D01*
X53095890Y33943343D01*
X53095876Y33943350D01*
X52883887Y34031158D01*
X52662238Y34090548D01*
X52624215Y34095554D01*
X52434741Y34120500D01*
X52434734Y34120500D01*
X52205266Y34120500D01*
X52205258Y34120500D01*
X51988715Y34091991D01*
X51977762Y34090548D01*
X51884076Y34065446D01*
X51756112Y34031158D01*
X51544123Y33943350D01*
X51544109Y33943343D01*
X51345382Y33828608D01*
X51163338Y33688919D01*
X51001081Y33526662D01*
X50861392Y33344618D01*
X50746657Y33145891D01*
X50746650Y33145877D01*
X50658842Y32933888D01*
X50599453Y32712241D01*
X50599451Y32712230D01*
X50569500Y32484742D01*
X50569500Y32255259D01*
X46145000Y32255259D01*
X46145000Y32398984D01*
X46114962Y32550000D01*
X47390000Y32550000D01*
X47390000Y34197467D01*
X47389998Y34197484D01*
X47351503Y34489885D01*
X47351500Y34489898D01*
X47275164Y34774791D01*
X47275161Y34774801D01*
X47162295Y35047282D01*
X47162290Y35047293D01*
X47014825Y35302708D01*
X47014814Y35302724D01*
X46835270Y35536710D01*
X46835264Y35536717D01*
X46626716Y35745265D01*
X46626709Y35745271D01*
X46392723Y35924815D01*
X46392707Y35924826D01*
X46137292Y36072291D01*
X46137281Y36072296D01*
X45864800Y36185162D01*
X45864790Y36185165D01*
X45579897Y36261501D01*
X45579886Y36261503D01*
X45390000Y36286504D01*
X45390000Y33274962D01*
X45238984Y33305000D01*
X45041016Y33305000D01*
X44890000Y33274962D01*
X44890000Y36286504D01*
X44889999Y36286504D01*
X44700113Y36261503D01*
X44700102Y36261501D01*
X44415209Y36185165D01*
X44415199Y36185162D01*
X44142718Y36072296D01*
X44142707Y36072291D01*
X43887292Y35924826D01*
X43887276Y35924815D01*
X43653290Y35745271D01*
X43653283Y35745265D01*
X43444735Y35536717D01*
X43444729Y35536710D01*
X43265185Y35302724D01*
X43265174Y35302708D01*
X43117709Y35047293D01*
X43117704Y35047282D01*
X43004838Y34774801D01*
X43004835Y34774791D01*
X42928499Y34489898D01*
X42928496Y34489885D01*
X42890001Y34197484D01*
X42890000Y34197467D01*
X42890000Y32550000D01*
X44165038Y32550000D01*
X44135000Y32398984D01*
X44135000Y32201016D01*
X44165038Y32050000D01*
X42890000Y32050000D01*
X42890000Y30402534D01*
X37230000Y30402534D01*
X37230000Y32050000D01*
X35954962Y32050000D01*
X35985000Y32201016D01*
X35985000Y32398984D01*
X35954962Y32550000D01*
X37230000Y32550000D01*
X37230000Y34197467D01*
X37229998Y34197484D01*
X37191503Y34489885D01*
X37191500Y34489898D01*
X37115164Y34774791D01*
X37115161Y34774801D01*
X37002295Y35047282D01*
X37002290Y35047293D01*
X36854825Y35302708D01*
X36854814Y35302724D01*
X36675270Y35536710D01*
X36675264Y35536717D01*
X36466716Y35745265D01*
X36466709Y35745271D01*
X36232723Y35924815D01*
X36232707Y35924826D01*
X35977292Y36072291D01*
X35977281Y36072296D01*
X35704800Y36185162D01*
X35704790Y36185165D01*
X35419897Y36261501D01*
X35419886Y36261503D01*
X35230000Y36286504D01*
X35230000Y33274962D01*
X35078984Y33305000D01*
X34881016Y33305000D01*
X34730000Y33274962D01*
X34730000Y36286504D01*
X34729999Y36286504D01*
X34540113Y36261503D01*
X34540102Y36261501D01*
X34255209Y36185165D01*
X34255199Y36185162D01*
X33982718Y36072296D01*
X33982707Y36072291D01*
X33727292Y35924826D01*
X33727276Y35924815D01*
X33493290Y35745271D01*
X33493283Y35745265D01*
X33284735Y35536717D01*
X33284729Y35536710D01*
X33105185Y35302724D01*
X33105174Y35302708D01*
X32957709Y35047293D01*
X32957704Y35047282D01*
X32844838Y34774801D01*
X32844835Y34774791D01*
X32768499Y34489898D01*
X32768496Y34489885D01*
X32730001Y34197484D01*
X32730000Y34197467D01*
X32730000Y32550000D01*
X34005038Y32550000D01*
X33975000Y32398984D01*
X33975000Y32201016D01*
X34005038Y32050000D01*
X32730000Y32050000D01*
X32730000Y30402534D01*
X30678684Y30402534D01*
X30679998Y30412517D01*
X30680000Y30412534D01*
X30680000Y32060000D01*
X29404962Y32060000D01*
X29435000Y32211016D01*
X29435000Y32408984D01*
X29404962Y32560000D01*
X30680000Y32560000D01*
X30680000Y34207467D01*
X30679998Y34207484D01*
X30641503Y34499885D01*
X30641500Y34499898D01*
X30565164Y34784791D01*
X30565161Y34784801D01*
X30452295Y35057282D01*
X30452290Y35057293D01*
X30304825Y35312708D01*
X30304814Y35312724D01*
X30125270Y35546710D01*
X30125264Y35546717D01*
X29916716Y35755265D01*
X29916709Y35755271D01*
X29682723Y35934815D01*
X29682707Y35934826D01*
X29427292Y36082291D01*
X29427281Y36082296D01*
X29154800Y36195162D01*
X29154790Y36195165D01*
X28869897Y36271501D01*
X28869886Y36271503D01*
X28680000Y36296504D01*
X28680000Y33284962D01*
X28528984Y33315000D01*
X28331016Y33315000D01*
X28180000Y33284962D01*
X28180000Y36296504D01*
X28179999Y36296504D01*
X27990113Y36271503D01*
X27990102Y36271501D01*
X27705209Y36195165D01*
X27705199Y36195162D01*
X27432718Y36082296D01*
X27432707Y36082291D01*
X27177292Y35934826D01*
X27177276Y35934815D01*
X26943290Y35755271D01*
X26943283Y35755265D01*
X26734735Y35546717D01*
X26734729Y35546710D01*
X26555185Y35312724D01*
X26555174Y35312708D01*
X26407709Y35057293D01*
X26407704Y35057282D01*
X26294838Y34784801D01*
X26294835Y34784791D01*
X26218499Y34499898D01*
X26218496Y34499885D01*
X26180001Y34207484D01*
X26180000Y34207467D01*
X26180000Y32560000D01*
X27455038Y32560000D01*
X27425000Y32408984D01*
X27425000Y32211016D01*
X27455038Y32060000D01*
X26180000Y32060000D01*
X26180000Y30412534D01*
X20520000Y30412534D01*
X20520000Y32060000D01*
X19244962Y32060000D01*
X19275000Y32211016D01*
X19275000Y32408984D01*
X19244962Y32560000D01*
X20520000Y32560000D01*
X20520000Y34207467D01*
X20519998Y34207484D01*
X20481503Y34499885D01*
X20481500Y34499898D01*
X20405164Y34784791D01*
X20405161Y34784801D01*
X20292295Y35057282D01*
X20292290Y35057293D01*
X20144825Y35312708D01*
X20144814Y35312724D01*
X19965270Y35546710D01*
X19965264Y35546717D01*
X19756716Y35755265D01*
X19756709Y35755271D01*
X19522723Y35934815D01*
X19522707Y35934826D01*
X19267292Y36082291D01*
X19267281Y36082296D01*
X18994800Y36195162D01*
X18994790Y36195165D01*
X18709897Y36271501D01*
X18709886Y36271503D01*
X18520000Y36296504D01*
X18520000Y33284962D01*
X18368984Y33315000D01*
X18171016Y33315000D01*
X18020000Y33284962D01*
X18020000Y36296504D01*
X18019999Y36296504D01*
X17830113Y36271503D01*
X17830102Y36271501D01*
X17545209Y36195165D01*
X17545199Y36195162D01*
X17272718Y36082296D01*
X17272707Y36082291D01*
X17017292Y35934826D01*
X17017276Y35934815D01*
X16783290Y35755271D01*
X16783283Y35755265D01*
X16574735Y35546717D01*
X16574729Y35546710D01*
X16395185Y35312724D01*
X16395174Y35312708D01*
X16247709Y35057293D01*
X16247704Y35057282D01*
X16134838Y34784801D01*
X16134835Y34784791D01*
X16058499Y34499898D01*
X16058496Y34499885D01*
X16020001Y34207484D01*
X16020000Y34207467D01*
X16020000Y32560000D01*
X17295038Y32560000D01*
X17265000Y32408984D01*
X17265000Y32211016D01*
X17295038Y32060000D01*
X16020000Y32060000D01*
X16020000Y30412534D01*
X20000Y30412534D01*
X20000Y34680000D01*
X3996681Y34680000D01*
X4015927Y34435446D01*
X4073193Y34196913D01*
X4167071Y33970270D01*
X4295246Y33761107D01*
X4295248Y33761104D01*
X4454567Y33574567D01*
X4641104Y33415248D01*
X4641106Y33415247D01*
X4850269Y33287072D01*
X4900227Y33266379D01*
X5076908Y33193195D01*
X5315443Y33135928D01*
X5560000Y33116681D01*
X5804557Y33135928D01*
X6043092Y33193195D01*
X6269732Y33287073D01*
X6456103Y33401281D01*
X6523547Y33419524D01*
X6590150Y33398407D01*
X6620157Y33369863D01*
X6692809Y33272813D01*
X6692812Y33272810D01*
X6807906Y33186650D01*
X6807913Y33186646D01*
X6942620Y33136404D01*
X6942627Y33136402D01*
X7002155Y33130001D01*
X7002172Y33130000D01*
X7850000Y33130000D01*
X7850000Y34189253D01*
X7887708Y34167482D01*
X8027591Y34130000D01*
X8172409Y34130000D01*
X8312292Y34167482D01*
X8350000Y34189253D01*
X8350000Y33130000D01*
X9197828Y33130000D01*
X9197844Y33130001D01*
X9257372Y33136402D01*
X9257379Y33136404D01*
X9392086Y33186646D01*
X9392093Y33186650D01*
X9507187Y33272810D01*
X9507190Y33272813D01*
X9593350Y33387907D01*
X9593354Y33387914D01*
X9643596Y33522621D01*
X9643598Y33522628D01*
X9649999Y33582156D01*
X9650000Y33582173D01*
X9650000Y34430000D01*
X8590748Y34430000D01*
X8612518Y34467708D01*
X8650000Y34607591D01*
X8650000Y34752409D01*
X8612518Y34892292D01*
X8590748Y34930000D01*
X9650000Y34930000D01*
X9650000Y35777828D01*
X9649999Y35777845D01*
X9643598Y35837373D01*
X9643596Y35837380D01*
X9593354Y35972087D01*
X9593350Y35972094D01*
X9507190Y36087188D01*
X9507187Y36087191D01*
X9392093Y36173351D01*
X9392086Y36173355D01*
X9257379Y36223597D01*
X9257372Y36223599D01*
X9197844Y36230000D01*
X8350000Y36230000D01*
X8350000Y35170748D01*
X8312292Y35192518D01*
X8172409Y35230000D01*
X8027591Y35230000D01*
X7887708Y35192518D01*
X7850000Y35170748D01*
X7850000Y36230000D01*
X7002155Y36230000D01*
X6942627Y36223599D01*
X6942620Y36223597D01*
X6807913Y36173355D01*
X6807906Y36173351D01*
X6692812Y36087191D01*
X6620157Y35990137D01*
X6564223Y35948267D01*
X6494531Y35943283D01*
X6456102Y35958721D01*
X6270770Y36072291D01*
X6269732Y36072927D01*
X6269727Y36072929D01*
X6043087Y36166807D01*
X5804553Y36224073D01*
X5804554Y36224073D01*
X5560000Y36243319D01*
X5315445Y36224073D01*
X5076912Y36166807D01*
X4850269Y36072929D01*
X4641106Y35944754D01*
X4454567Y35785433D01*
X4295246Y35598894D01*
X4167071Y35389731D01*
X4073193Y35163088D01*
X4015927Y34924555D01*
X3996681Y34680000D01*
X20000Y34680000D01*
X20000Y41146000D01*
X39685Y41213039D01*
X92489Y41258794D01*
X144000Y41270000D01*
X56976032Y41270000D01*
X57043071Y41250315D01*
G37*
%TD.AperFunction*%
%TD*%
M02*
