%TF.GenerationSoftware,KiCad,Pcbnew,8.0.1*%
%TF.CreationDate,2024-06-13T00:26:55+02:00*%
%TF.ProjectId,CFT,4346542e-6b69-4636-9164-5f7063625858,rev?*%
%TF.SameCoordinates,PX52e4ef2PY60c692e*%
%TF.FileFunction,Legend,Top*%
%TF.FilePolarity,Positive*%
%FSLAX46Y46*%
G04 Gerber Fmt 4.6, Leading zero omitted, Abs format (unit mm)*
G04 Created by KiCad (PCBNEW 8.0.1) date 2024-06-13 00:26:55*
%MOMM*%
%LPD*%
G01*
G04 APERTURE LIST*
%ADD10C,0.150000*%
%ADD11C,0.120000*%
G04 APERTURE END LIST*
D10*
X4800588Y4282562D02*
X4705350Y4330181D01*
X4705350Y4330181D02*
X4562493Y4330181D01*
X4562493Y4330181D02*
X4419636Y4282562D01*
X4419636Y4282562D02*
X4324398Y4187324D01*
X4324398Y4187324D02*
X4276779Y4092086D01*
X4276779Y4092086D02*
X4229160Y3901610D01*
X4229160Y3901610D02*
X4229160Y3758753D01*
X4229160Y3758753D02*
X4276779Y3568277D01*
X4276779Y3568277D02*
X4324398Y3473039D01*
X4324398Y3473039D02*
X4419636Y3377800D01*
X4419636Y3377800D02*
X4562493Y3330181D01*
X4562493Y3330181D02*
X4657731Y3330181D01*
X4657731Y3330181D02*
X4800588Y3377800D01*
X4800588Y3377800D02*
X4848207Y3425420D01*
X4848207Y3425420D02*
X4848207Y3758753D01*
X4848207Y3758753D02*
X4657731Y3758753D01*
X5276779Y3330181D02*
X5276779Y4330181D01*
X5276779Y4330181D02*
X5848207Y3330181D01*
X5848207Y3330181D02*
X5848207Y4330181D01*
X6324398Y3330181D02*
X6324398Y4330181D01*
X6324398Y4330181D02*
X6562493Y4330181D01*
X6562493Y4330181D02*
X6705350Y4282562D01*
X6705350Y4282562D02*
X6800588Y4187324D01*
X6800588Y4187324D02*
X6848207Y4092086D01*
X6848207Y4092086D02*
X6895826Y3901610D01*
X6895826Y3901610D02*
X6895826Y3758753D01*
X6895826Y3758753D02*
X6848207Y3568277D01*
X6848207Y3568277D02*
X6800588Y3473039D01*
X6800588Y3473039D02*
X6705350Y3377800D01*
X6705350Y3377800D02*
X6562493Y3330181D01*
X6562493Y3330181D02*
X6324398Y3330181D01*
X20046779Y23460181D02*
X20046779Y24460181D01*
X20522969Y23460181D02*
X20522969Y24460181D01*
X20522969Y24460181D02*
X21094397Y23460181D01*
X21094397Y23460181D02*
X21094397Y24460181D01*
X21570588Y23460181D02*
X21570588Y24460181D01*
X21570588Y24460181D02*
X21951540Y24460181D01*
X21951540Y24460181D02*
X22046778Y24412562D01*
X22046778Y24412562D02*
X22094397Y24364943D01*
X22094397Y24364943D02*
X22142016Y24269705D01*
X22142016Y24269705D02*
X22142016Y24126848D01*
X22142016Y24126848D02*
X22094397Y24031610D01*
X22094397Y24031610D02*
X22046778Y23983991D01*
X22046778Y23983991D02*
X21951540Y23936372D01*
X21951540Y23936372D02*
X21570588Y23936372D01*
X22570588Y24460181D02*
X22570588Y23650658D01*
X22570588Y23650658D02*
X22618207Y23555420D01*
X22618207Y23555420D02*
X22665826Y23507800D01*
X22665826Y23507800D02*
X22761064Y23460181D01*
X22761064Y23460181D02*
X22951540Y23460181D01*
X22951540Y23460181D02*
X23046778Y23507800D01*
X23046778Y23507800D02*
X23094397Y23555420D01*
X23094397Y23555420D02*
X23142016Y23650658D01*
X23142016Y23650658D02*
X23142016Y24460181D01*
X23475350Y24460181D02*
X24046778Y24460181D01*
X23761064Y23460181D02*
X23761064Y24460181D01*
X24142017Y23364943D02*
X24903921Y23364943D01*
X25094398Y23507800D02*
X25237255Y23460181D01*
X25237255Y23460181D02*
X25475350Y23460181D01*
X25475350Y23460181D02*
X25570588Y23507800D01*
X25570588Y23507800D02*
X25618207Y23555420D01*
X25618207Y23555420D02*
X25665826Y23650658D01*
X25665826Y23650658D02*
X25665826Y23745896D01*
X25665826Y23745896D02*
X25618207Y23841134D01*
X25618207Y23841134D02*
X25570588Y23888753D01*
X25570588Y23888753D02*
X25475350Y23936372D01*
X25475350Y23936372D02*
X25284874Y23983991D01*
X25284874Y23983991D02*
X25189636Y24031610D01*
X25189636Y24031610D02*
X25142017Y24079229D01*
X25142017Y24079229D02*
X25094398Y24174467D01*
X25094398Y24174467D02*
X25094398Y24269705D01*
X25094398Y24269705D02*
X25142017Y24364943D01*
X25142017Y24364943D02*
X25189636Y24412562D01*
X25189636Y24412562D02*
X25284874Y24460181D01*
X25284874Y24460181D02*
X25522969Y24460181D01*
X25522969Y24460181D02*
X25665826Y24412562D01*
X26094398Y23460181D02*
X26094398Y24460181D01*
X27094397Y24412562D02*
X26999159Y24460181D01*
X26999159Y24460181D02*
X26856302Y24460181D01*
X26856302Y24460181D02*
X26713445Y24412562D01*
X26713445Y24412562D02*
X26618207Y24317324D01*
X26618207Y24317324D02*
X26570588Y24222086D01*
X26570588Y24222086D02*
X26522969Y24031610D01*
X26522969Y24031610D02*
X26522969Y23888753D01*
X26522969Y23888753D02*
X26570588Y23698277D01*
X26570588Y23698277D02*
X26618207Y23603039D01*
X26618207Y23603039D02*
X26713445Y23507800D01*
X26713445Y23507800D02*
X26856302Y23460181D01*
X26856302Y23460181D02*
X26951540Y23460181D01*
X26951540Y23460181D02*
X27094397Y23507800D01*
X27094397Y23507800D02*
X27142016Y23555420D01*
X27142016Y23555420D02*
X27142016Y23888753D01*
X27142016Y23888753D02*
X26951540Y23888753D01*
X3626779Y39311134D02*
X4388684Y39311134D01*
X4007731Y38930181D02*
X4007731Y39692086D01*
X5341064Y39930181D02*
X4864874Y39930181D01*
X4864874Y39930181D02*
X4817255Y39453991D01*
X4817255Y39453991D02*
X4864874Y39501610D01*
X4864874Y39501610D02*
X4960112Y39549229D01*
X4960112Y39549229D02*
X5198207Y39549229D01*
X5198207Y39549229D02*
X5293445Y39501610D01*
X5293445Y39501610D02*
X5341064Y39453991D01*
X5341064Y39453991D02*
X5388683Y39358753D01*
X5388683Y39358753D02*
X5388683Y39120658D01*
X5388683Y39120658D02*
X5341064Y39025420D01*
X5341064Y39025420D02*
X5293445Y38977800D01*
X5293445Y38977800D02*
X5198207Y38930181D01*
X5198207Y38930181D02*
X4960112Y38930181D01*
X4960112Y38930181D02*
X4864874Y38977800D01*
X4864874Y38977800D02*
X4817255Y39025420D01*
X5674398Y39930181D02*
X6007731Y38930181D01*
X6007731Y38930181D02*
X6341064Y39930181D01*
X6674398Y39311134D02*
X7436303Y39311134D01*
X8436302Y39882562D02*
X8341064Y39930181D01*
X8341064Y39930181D02*
X8198207Y39930181D01*
X8198207Y39930181D02*
X8055350Y39882562D01*
X8055350Y39882562D02*
X7960112Y39787324D01*
X7960112Y39787324D02*
X7912493Y39692086D01*
X7912493Y39692086D02*
X7864874Y39501610D01*
X7864874Y39501610D02*
X7864874Y39358753D01*
X7864874Y39358753D02*
X7912493Y39168277D01*
X7912493Y39168277D02*
X7960112Y39073039D01*
X7960112Y39073039D02*
X8055350Y38977800D01*
X8055350Y38977800D02*
X8198207Y38930181D01*
X8198207Y38930181D02*
X8293445Y38930181D01*
X8293445Y38930181D02*
X8436302Y38977800D01*
X8436302Y38977800D02*
X8483921Y39025420D01*
X8483921Y39025420D02*
X8483921Y39358753D01*
X8483921Y39358753D02*
X8293445Y39358753D01*
X8912493Y38930181D02*
X8912493Y39930181D01*
X8912493Y39930181D02*
X9483921Y38930181D01*
X9483921Y38930181D02*
X9483921Y39930181D01*
X9960112Y38930181D02*
X9960112Y39930181D01*
X9960112Y39930181D02*
X10198207Y39930181D01*
X10198207Y39930181D02*
X10341064Y39882562D01*
X10341064Y39882562D02*
X10436302Y39787324D01*
X10436302Y39787324D02*
X10483921Y39692086D01*
X10483921Y39692086D02*
X10531540Y39501610D01*
X10531540Y39501610D02*
X10531540Y39358753D01*
X10531540Y39358753D02*
X10483921Y39168277D01*
X10483921Y39168277D02*
X10436302Y39073039D01*
X10436302Y39073039D02*
X10341064Y38977800D01*
X10341064Y38977800D02*
X10198207Y38930181D01*
X10198207Y38930181D02*
X9960112Y38930181D01*
X3126779Y13770181D02*
X3126779Y14770181D01*
X3602969Y13770181D02*
X3602969Y14770181D01*
X3602969Y14770181D02*
X4174397Y13770181D01*
X4174397Y13770181D02*
X4174397Y14770181D01*
X4650588Y13770181D02*
X4650588Y14770181D01*
X4650588Y14770181D02*
X5031540Y14770181D01*
X5031540Y14770181D02*
X5126778Y14722562D01*
X5126778Y14722562D02*
X5174397Y14674943D01*
X5174397Y14674943D02*
X5222016Y14579705D01*
X5222016Y14579705D02*
X5222016Y14436848D01*
X5222016Y14436848D02*
X5174397Y14341610D01*
X5174397Y14341610D02*
X5126778Y14293991D01*
X5126778Y14293991D02*
X5031540Y14246372D01*
X5031540Y14246372D02*
X4650588Y14246372D01*
X5650588Y14770181D02*
X5650588Y13960658D01*
X5650588Y13960658D02*
X5698207Y13865420D01*
X5698207Y13865420D02*
X5745826Y13817800D01*
X5745826Y13817800D02*
X5841064Y13770181D01*
X5841064Y13770181D02*
X6031540Y13770181D01*
X6031540Y13770181D02*
X6126778Y13817800D01*
X6126778Y13817800D02*
X6174397Y13865420D01*
X6174397Y13865420D02*
X6222016Y13960658D01*
X6222016Y13960658D02*
X6222016Y14770181D01*
X6555350Y14770181D02*
X7126778Y14770181D01*
X6841064Y13770181D02*
X6841064Y14770181D01*
X7222017Y13674943D02*
X7983921Y13674943D01*
X8174398Y13817800D02*
X8317255Y13770181D01*
X8317255Y13770181D02*
X8555350Y13770181D01*
X8555350Y13770181D02*
X8650588Y13817800D01*
X8650588Y13817800D02*
X8698207Y13865420D01*
X8698207Y13865420D02*
X8745826Y13960658D01*
X8745826Y13960658D02*
X8745826Y14055896D01*
X8745826Y14055896D02*
X8698207Y14151134D01*
X8698207Y14151134D02*
X8650588Y14198753D01*
X8650588Y14198753D02*
X8555350Y14246372D01*
X8555350Y14246372D02*
X8364874Y14293991D01*
X8364874Y14293991D02*
X8269636Y14341610D01*
X8269636Y14341610D02*
X8222017Y14389229D01*
X8222017Y14389229D02*
X8174398Y14484467D01*
X8174398Y14484467D02*
X8174398Y14579705D01*
X8174398Y14579705D02*
X8222017Y14674943D01*
X8222017Y14674943D02*
X8269636Y14722562D01*
X8269636Y14722562D02*
X8364874Y14770181D01*
X8364874Y14770181D02*
X8602969Y14770181D01*
X8602969Y14770181D02*
X8745826Y14722562D01*
X9174398Y13770181D02*
X9174398Y14770181D01*
X10174397Y14722562D02*
X10079159Y14770181D01*
X10079159Y14770181D02*
X9936302Y14770181D01*
X9936302Y14770181D02*
X9793445Y14722562D01*
X9793445Y14722562D02*
X9698207Y14627324D01*
X9698207Y14627324D02*
X9650588Y14532086D01*
X9650588Y14532086D02*
X9602969Y14341610D01*
X9602969Y14341610D02*
X9602969Y14198753D01*
X9602969Y14198753D02*
X9650588Y14008277D01*
X9650588Y14008277D02*
X9698207Y13913039D01*
X9698207Y13913039D02*
X9793445Y13817800D01*
X9793445Y13817800D02*
X9936302Y13770181D01*
X9936302Y13770181D02*
X10031540Y13770181D01*
X10031540Y13770181D02*
X10174397Y13817800D01*
X10174397Y13817800D02*
X10222016Y13865420D01*
X10222016Y13865420D02*
X10222016Y14198753D01*
X10222016Y14198753D02*
X10031540Y14198753D01*
X48387255Y14360181D02*
X48577731Y14360181D01*
X48577731Y14360181D02*
X48672969Y14312562D01*
X48672969Y14312562D02*
X48768207Y14217324D01*
X48768207Y14217324D02*
X48815826Y14026848D01*
X48815826Y14026848D02*
X48815826Y13693515D01*
X48815826Y13693515D02*
X48768207Y13503039D01*
X48768207Y13503039D02*
X48672969Y13407800D01*
X48672969Y13407800D02*
X48577731Y13360181D01*
X48577731Y13360181D02*
X48387255Y13360181D01*
X48387255Y13360181D02*
X48292017Y13407800D01*
X48292017Y13407800D02*
X48196779Y13503039D01*
X48196779Y13503039D02*
X48149160Y13693515D01*
X48149160Y13693515D02*
X48149160Y14026848D01*
X48149160Y14026848D02*
X48196779Y14217324D01*
X48196779Y14217324D02*
X48292017Y14312562D01*
X48292017Y14312562D02*
X48387255Y14360181D01*
X49244398Y14360181D02*
X49244398Y13550658D01*
X49244398Y13550658D02*
X49292017Y13455420D01*
X49292017Y13455420D02*
X49339636Y13407800D01*
X49339636Y13407800D02*
X49434874Y13360181D01*
X49434874Y13360181D02*
X49625350Y13360181D01*
X49625350Y13360181D02*
X49720588Y13407800D01*
X49720588Y13407800D02*
X49768207Y13455420D01*
X49768207Y13455420D02*
X49815826Y13550658D01*
X49815826Y13550658D02*
X49815826Y14360181D01*
X50149160Y14360181D02*
X50720588Y14360181D01*
X50434874Y13360181D02*
X50434874Y14360181D01*
X51053922Y13360181D02*
X51053922Y14360181D01*
X51053922Y14360181D02*
X51434874Y14360181D01*
X51434874Y14360181D02*
X51530112Y14312562D01*
X51530112Y14312562D02*
X51577731Y14264943D01*
X51577731Y14264943D02*
X51625350Y14169705D01*
X51625350Y14169705D02*
X51625350Y14026848D01*
X51625350Y14026848D02*
X51577731Y13931610D01*
X51577731Y13931610D02*
X51530112Y13883991D01*
X51530112Y13883991D02*
X51434874Y13836372D01*
X51434874Y13836372D02*
X51053922Y13836372D01*
X52053922Y14360181D02*
X52053922Y13550658D01*
X52053922Y13550658D02*
X52101541Y13455420D01*
X52101541Y13455420D02*
X52149160Y13407800D01*
X52149160Y13407800D02*
X52244398Y13360181D01*
X52244398Y13360181D02*
X52434874Y13360181D01*
X52434874Y13360181D02*
X52530112Y13407800D01*
X52530112Y13407800D02*
X52577731Y13455420D01*
X52577731Y13455420D02*
X52625350Y13550658D01*
X52625350Y13550658D02*
X52625350Y14360181D01*
X52958684Y14360181D02*
X53530112Y14360181D01*
X53244398Y13360181D02*
X53244398Y14360181D01*
X53625351Y13264943D02*
X54387255Y13264943D01*
X54577732Y13407800D02*
X54720589Y13360181D01*
X54720589Y13360181D02*
X54958684Y13360181D01*
X54958684Y13360181D02*
X55053922Y13407800D01*
X55053922Y13407800D02*
X55101541Y13455420D01*
X55101541Y13455420D02*
X55149160Y13550658D01*
X55149160Y13550658D02*
X55149160Y13645896D01*
X55149160Y13645896D02*
X55101541Y13741134D01*
X55101541Y13741134D02*
X55053922Y13788753D01*
X55053922Y13788753D02*
X54958684Y13836372D01*
X54958684Y13836372D02*
X54768208Y13883991D01*
X54768208Y13883991D02*
X54672970Y13931610D01*
X54672970Y13931610D02*
X54625351Y13979229D01*
X54625351Y13979229D02*
X54577732Y14074467D01*
X54577732Y14074467D02*
X54577732Y14169705D01*
X54577732Y14169705D02*
X54625351Y14264943D01*
X54625351Y14264943D02*
X54672970Y14312562D01*
X54672970Y14312562D02*
X54768208Y14360181D01*
X54768208Y14360181D02*
X55006303Y14360181D01*
X55006303Y14360181D02*
X55149160Y14312562D01*
X55577732Y13360181D02*
X55577732Y14360181D01*
X56577731Y14312562D02*
X56482493Y14360181D01*
X56482493Y14360181D02*
X56339636Y14360181D01*
X56339636Y14360181D02*
X56196779Y14312562D01*
X56196779Y14312562D02*
X56101541Y14217324D01*
X56101541Y14217324D02*
X56053922Y14122086D01*
X56053922Y14122086D02*
X56006303Y13931610D01*
X56006303Y13931610D02*
X56006303Y13788753D01*
X56006303Y13788753D02*
X56053922Y13598277D01*
X56053922Y13598277D02*
X56101541Y13503039D01*
X56101541Y13503039D02*
X56196779Y13407800D01*
X56196779Y13407800D02*
X56339636Y13360181D01*
X56339636Y13360181D02*
X56434874Y13360181D01*
X56434874Y13360181D02*
X56577731Y13407800D01*
X56577731Y13407800D02*
X56625350Y13455420D01*
X56625350Y13455420D02*
X56625350Y13788753D01*
X56625350Y13788753D02*
X56434874Y13788753D01*
X36427255Y24440181D02*
X36617731Y24440181D01*
X36617731Y24440181D02*
X36712969Y24392562D01*
X36712969Y24392562D02*
X36808207Y24297324D01*
X36808207Y24297324D02*
X36855826Y24106848D01*
X36855826Y24106848D02*
X36855826Y23773515D01*
X36855826Y23773515D02*
X36808207Y23583039D01*
X36808207Y23583039D02*
X36712969Y23487800D01*
X36712969Y23487800D02*
X36617731Y23440181D01*
X36617731Y23440181D02*
X36427255Y23440181D01*
X36427255Y23440181D02*
X36332017Y23487800D01*
X36332017Y23487800D02*
X36236779Y23583039D01*
X36236779Y23583039D02*
X36189160Y23773515D01*
X36189160Y23773515D02*
X36189160Y24106848D01*
X36189160Y24106848D02*
X36236779Y24297324D01*
X36236779Y24297324D02*
X36332017Y24392562D01*
X36332017Y24392562D02*
X36427255Y24440181D01*
X37284398Y24440181D02*
X37284398Y23630658D01*
X37284398Y23630658D02*
X37332017Y23535420D01*
X37332017Y23535420D02*
X37379636Y23487800D01*
X37379636Y23487800D02*
X37474874Y23440181D01*
X37474874Y23440181D02*
X37665350Y23440181D01*
X37665350Y23440181D02*
X37760588Y23487800D01*
X37760588Y23487800D02*
X37808207Y23535420D01*
X37808207Y23535420D02*
X37855826Y23630658D01*
X37855826Y23630658D02*
X37855826Y24440181D01*
X38189160Y24440181D02*
X38760588Y24440181D01*
X38474874Y23440181D02*
X38474874Y24440181D01*
X39093922Y23440181D02*
X39093922Y24440181D01*
X39093922Y24440181D02*
X39474874Y24440181D01*
X39474874Y24440181D02*
X39570112Y24392562D01*
X39570112Y24392562D02*
X39617731Y24344943D01*
X39617731Y24344943D02*
X39665350Y24249705D01*
X39665350Y24249705D02*
X39665350Y24106848D01*
X39665350Y24106848D02*
X39617731Y24011610D01*
X39617731Y24011610D02*
X39570112Y23963991D01*
X39570112Y23963991D02*
X39474874Y23916372D01*
X39474874Y23916372D02*
X39093922Y23916372D01*
X40093922Y24440181D02*
X40093922Y23630658D01*
X40093922Y23630658D02*
X40141541Y23535420D01*
X40141541Y23535420D02*
X40189160Y23487800D01*
X40189160Y23487800D02*
X40284398Y23440181D01*
X40284398Y23440181D02*
X40474874Y23440181D01*
X40474874Y23440181D02*
X40570112Y23487800D01*
X40570112Y23487800D02*
X40617731Y23535420D01*
X40617731Y23535420D02*
X40665350Y23630658D01*
X40665350Y23630658D02*
X40665350Y24440181D01*
X40998684Y24440181D02*
X41570112Y24440181D01*
X41284398Y23440181D02*
X41284398Y24440181D01*
X41665351Y23344943D02*
X42427255Y23344943D01*
X42617732Y23487800D02*
X42760589Y23440181D01*
X42760589Y23440181D02*
X42998684Y23440181D01*
X42998684Y23440181D02*
X43093922Y23487800D01*
X43093922Y23487800D02*
X43141541Y23535420D01*
X43141541Y23535420D02*
X43189160Y23630658D01*
X43189160Y23630658D02*
X43189160Y23725896D01*
X43189160Y23725896D02*
X43141541Y23821134D01*
X43141541Y23821134D02*
X43093922Y23868753D01*
X43093922Y23868753D02*
X42998684Y23916372D01*
X42998684Y23916372D02*
X42808208Y23963991D01*
X42808208Y23963991D02*
X42712970Y24011610D01*
X42712970Y24011610D02*
X42665351Y24059229D01*
X42665351Y24059229D02*
X42617732Y24154467D01*
X42617732Y24154467D02*
X42617732Y24249705D01*
X42617732Y24249705D02*
X42665351Y24344943D01*
X42665351Y24344943D02*
X42712970Y24392562D01*
X42712970Y24392562D02*
X42808208Y24440181D01*
X42808208Y24440181D02*
X43046303Y24440181D01*
X43046303Y24440181D02*
X43189160Y24392562D01*
X43617732Y23440181D02*
X43617732Y24440181D01*
X44617731Y24392562D02*
X44522493Y24440181D01*
X44522493Y24440181D02*
X44379636Y24440181D01*
X44379636Y24440181D02*
X44236779Y24392562D01*
X44236779Y24392562D02*
X44141541Y24297324D01*
X44141541Y24297324D02*
X44093922Y24202086D01*
X44093922Y24202086D02*
X44046303Y24011610D01*
X44046303Y24011610D02*
X44046303Y23868753D01*
X44046303Y23868753D02*
X44093922Y23678277D01*
X44093922Y23678277D02*
X44141541Y23583039D01*
X44141541Y23583039D02*
X44236779Y23487800D01*
X44236779Y23487800D02*
X44379636Y23440181D01*
X44379636Y23440181D02*
X44474874Y23440181D01*
X44474874Y23440181D02*
X44617731Y23487800D01*
X44617731Y23487800D02*
X44665350Y23535420D01*
X44665350Y23535420D02*
X44665350Y23868753D01*
X44665350Y23868753D02*
X44474874Y23868753D01*
X43293333Y6255181D02*
X42960000Y6731372D01*
X42721905Y6255181D02*
X42721905Y7255181D01*
X42721905Y7255181D02*
X43102857Y7255181D01*
X43102857Y7255181D02*
X43198095Y7207562D01*
X43198095Y7207562D02*
X43245714Y7159943D01*
X43245714Y7159943D02*
X43293333Y7064705D01*
X43293333Y7064705D02*
X43293333Y6921848D01*
X43293333Y6921848D02*
X43245714Y6826610D01*
X43245714Y6826610D02*
X43198095Y6778991D01*
X43198095Y6778991D02*
X43102857Y6731372D01*
X43102857Y6731372D02*
X42721905Y6731372D01*
X43626667Y7255181D02*
X44293333Y7255181D01*
X44293333Y7255181D02*
X43864762Y6255181D01*
X40768333Y18535181D02*
X40435000Y19011372D01*
X40196905Y18535181D02*
X40196905Y19535181D01*
X40196905Y19535181D02*
X40577857Y19535181D01*
X40577857Y19535181D02*
X40673095Y19487562D01*
X40673095Y19487562D02*
X40720714Y19439943D01*
X40720714Y19439943D02*
X40768333Y19344705D01*
X40768333Y19344705D02*
X40768333Y19201848D01*
X40768333Y19201848D02*
X40720714Y19106610D01*
X40720714Y19106610D02*
X40673095Y19058991D01*
X40673095Y19058991D02*
X40577857Y19011372D01*
X40577857Y19011372D02*
X40196905Y19011372D01*
X41625476Y19201848D02*
X41625476Y18535181D01*
X41387381Y19582800D02*
X41149286Y18868515D01*
X41149286Y18868515D02*
X41768333Y18868515D01*
X49063333Y10755181D02*
X48730000Y11231372D01*
X48491905Y10755181D02*
X48491905Y11755181D01*
X48491905Y11755181D02*
X48872857Y11755181D01*
X48872857Y11755181D02*
X48968095Y11707562D01*
X48968095Y11707562D02*
X49015714Y11659943D01*
X49015714Y11659943D02*
X49063333Y11564705D01*
X49063333Y11564705D02*
X49063333Y11421848D01*
X49063333Y11421848D02*
X49015714Y11326610D01*
X49015714Y11326610D02*
X48968095Y11278991D01*
X48968095Y11278991D02*
X48872857Y11231372D01*
X48872857Y11231372D02*
X48491905Y11231372D01*
X49634762Y11326610D02*
X49539524Y11374229D01*
X49539524Y11374229D02*
X49491905Y11421848D01*
X49491905Y11421848D02*
X49444286Y11517086D01*
X49444286Y11517086D02*
X49444286Y11564705D01*
X49444286Y11564705D02*
X49491905Y11659943D01*
X49491905Y11659943D02*
X49539524Y11707562D01*
X49539524Y11707562D02*
X49634762Y11755181D01*
X49634762Y11755181D02*
X49825238Y11755181D01*
X49825238Y11755181D02*
X49920476Y11707562D01*
X49920476Y11707562D02*
X49968095Y11659943D01*
X49968095Y11659943D02*
X50015714Y11564705D01*
X50015714Y11564705D02*
X50015714Y11517086D01*
X50015714Y11517086D02*
X49968095Y11421848D01*
X49968095Y11421848D02*
X49920476Y11374229D01*
X49920476Y11374229D02*
X49825238Y11326610D01*
X49825238Y11326610D02*
X49634762Y11326610D01*
X49634762Y11326610D02*
X49539524Y11278991D01*
X49539524Y11278991D02*
X49491905Y11231372D01*
X49491905Y11231372D02*
X49444286Y11136134D01*
X49444286Y11136134D02*
X49444286Y10945658D01*
X49444286Y10945658D02*
X49491905Y10850420D01*
X49491905Y10850420D02*
X49539524Y10802800D01*
X49539524Y10802800D02*
X49634762Y10755181D01*
X49634762Y10755181D02*
X49825238Y10755181D01*
X49825238Y10755181D02*
X49920476Y10802800D01*
X49920476Y10802800D02*
X49968095Y10850420D01*
X49968095Y10850420D02*
X50015714Y10945658D01*
X50015714Y10945658D02*
X50015714Y11136134D01*
X50015714Y11136134D02*
X49968095Y11231372D01*
X49968095Y11231372D02*
X49920476Y11278991D01*
X49920476Y11278991D02*
X49825238Y11326610D01*
X13863333Y26855181D02*
X13530000Y27331372D01*
X13291905Y26855181D02*
X13291905Y27855181D01*
X13291905Y27855181D02*
X13672857Y27855181D01*
X13672857Y27855181D02*
X13768095Y27807562D01*
X13768095Y27807562D02*
X13815714Y27759943D01*
X13815714Y27759943D02*
X13863333Y27664705D01*
X13863333Y27664705D02*
X13863333Y27521848D01*
X13863333Y27521848D02*
X13815714Y27426610D01*
X13815714Y27426610D02*
X13768095Y27378991D01*
X13768095Y27378991D02*
X13672857Y27331372D01*
X13672857Y27331372D02*
X13291905Y27331372D01*
X14815714Y26855181D02*
X14244286Y26855181D01*
X14530000Y26855181D02*
X14530000Y27855181D01*
X14530000Y27855181D02*
X14434762Y27712324D01*
X14434762Y27712324D02*
X14339524Y27617086D01*
X14339524Y27617086D02*
X14244286Y27569467D01*
X32333333Y14520420D02*
X32285714Y14472800D01*
X32285714Y14472800D02*
X32142857Y14425181D01*
X32142857Y14425181D02*
X32047619Y14425181D01*
X32047619Y14425181D02*
X31904762Y14472800D01*
X31904762Y14472800D02*
X31809524Y14568039D01*
X31809524Y14568039D02*
X31761905Y14663277D01*
X31761905Y14663277D02*
X31714286Y14853753D01*
X31714286Y14853753D02*
X31714286Y14996610D01*
X31714286Y14996610D02*
X31761905Y15187086D01*
X31761905Y15187086D02*
X31809524Y15282324D01*
X31809524Y15282324D02*
X31904762Y15377562D01*
X31904762Y15377562D02*
X32047619Y15425181D01*
X32047619Y15425181D02*
X32142857Y15425181D01*
X32142857Y15425181D02*
X32285714Y15377562D01*
X32285714Y15377562D02*
X32333333Y15329943D01*
X33285714Y14425181D02*
X32714286Y14425181D01*
X33000000Y14425181D02*
X33000000Y15425181D01*
X33000000Y15425181D02*
X32904762Y15282324D01*
X32904762Y15282324D02*
X32809524Y15187086D01*
X32809524Y15187086D02*
X32714286Y15139467D01*
X17788095Y9455181D02*
X17788095Y8645658D01*
X17788095Y8645658D02*
X17835714Y8550420D01*
X17835714Y8550420D02*
X17883333Y8502800D01*
X17883333Y8502800D02*
X17978571Y8455181D01*
X17978571Y8455181D02*
X18169047Y8455181D01*
X18169047Y8455181D02*
X18264285Y8502800D01*
X18264285Y8502800D02*
X18311904Y8550420D01*
X18311904Y8550420D02*
X18359523Y8645658D01*
X18359523Y8645658D02*
X18359523Y9455181D01*
X18788095Y9359943D02*
X18835714Y9407562D01*
X18835714Y9407562D02*
X18930952Y9455181D01*
X18930952Y9455181D02*
X19169047Y9455181D01*
X19169047Y9455181D02*
X19264285Y9407562D01*
X19264285Y9407562D02*
X19311904Y9359943D01*
X19311904Y9359943D02*
X19359523Y9264705D01*
X19359523Y9264705D02*
X19359523Y9169467D01*
X19359523Y9169467D02*
X19311904Y9026610D01*
X19311904Y9026610D02*
X18740476Y8455181D01*
X18740476Y8455181D02*
X19359523Y8455181D01*
X13083333Y31325181D02*
X12750000Y31801372D01*
X12511905Y31325181D02*
X12511905Y32325181D01*
X12511905Y32325181D02*
X12892857Y32325181D01*
X12892857Y32325181D02*
X12988095Y32277562D01*
X12988095Y32277562D02*
X13035714Y32229943D01*
X13035714Y32229943D02*
X13083333Y32134705D01*
X13083333Y32134705D02*
X13083333Y31991848D01*
X13083333Y31991848D02*
X13035714Y31896610D01*
X13035714Y31896610D02*
X12988095Y31848991D01*
X12988095Y31848991D02*
X12892857Y31801372D01*
X12892857Y31801372D02*
X12511905Y31801372D01*
X13559524Y31325181D02*
X13750000Y31325181D01*
X13750000Y31325181D02*
X13845238Y31372800D01*
X13845238Y31372800D02*
X13892857Y31420420D01*
X13892857Y31420420D02*
X13988095Y31563277D01*
X13988095Y31563277D02*
X14035714Y31753753D01*
X14035714Y31753753D02*
X14035714Y32134705D01*
X14035714Y32134705D02*
X13988095Y32229943D01*
X13988095Y32229943D02*
X13940476Y32277562D01*
X13940476Y32277562D02*
X13845238Y32325181D01*
X13845238Y32325181D02*
X13654762Y32325181D01*
X13654762Y32325181D02*
X13559524Y32277562D01*
X13559524Y32277562D02*
X13511905Y32229943D01*
X13511905Y32229943D02*
X13464286Y32134705D01*
X13464286Y32134705D02*
X13464286Y31896610D01*
X13464286Y31896610D02*
X13511905Y31801372D01*
X13511905Y31801372D02*
X13559524Y31753753D01*
X13559524Y31753753D02*
X13654762Y31706134D01*
X13654762Y31706134D02*
X13845238Y31706134D01*
X13845238Y31706134D02*
X13940476Y31753753D01*
X13940476Y31753753D02*
X13988095Y31801372D01*
X13988095Y31801372D02*
X14035714Y31896610D01*
X21433333Y19540420D02*
X21385714Y19492800D01*
X21385714Y19492800D02*
X21242857Y19445181D01*
X21242857Y19445181D02*
X21147619Y19445181D01*
X21147619Y19445181D02*
X21004762Y19492800D01*
X21004762Y19492800D02*
X20909524Y19588039D01*
X20909524Y19588039D02*
X20861905Y19683277D01*
X20861905Y19683277D02*
X20814286Y19873753D01*
X20814286Y19873753D02*
X20814286Y20016610D01*
X20814286Y20016610D02*
X20861905Y20207086D01*
X20861905Y20207086D02*
X20909524Y20302324D01*
X20909524Y20302324D02*
X21004762Y20397562D01*
X21004762Y20397562D02*
X21147619Y20445181D01*
X21147619Y20445181D02*
X21242857Y20445181D01*
X21242857Y20445181D02*
X21385714Y20397562D01*
X21385714Y20397562D02*
X21433333Y20349943D01*
X21814286Y20349943D02*
X21861905Y20397562D01*
X21861905Y20397562D02*
X21957143Y20445181D01*
X21957143Y20445181D02*
X22195238Y20445181D01*
X22195238Y20445181D02*
X22290476Y20397562D01*
X22290476Y20397562D02*
X22338095Y20349943D01*
X22338095Y20349943D02*
X22385714Y20254705D01*
X22385714Y20254705D02*
X22385714Y20159467D01*
X22385714Y20159467D02*
X22338095Y20016610D01*
X22338095Y20016610D02*
X21766667Y19445181D01*
X21766667Y19445181D02*
X22385714Y19445181D01*
X26523333Y19395181D02*
X26190000Y19871372D01*
X25951905Y19395181D02*
X25951905Y20395181D01*
X25951905Y20395181D02*
X26332857Y20395181D01*
X26332857Y20395181D02*
X26428095Y20347562D01*
X26428095Y20347562D02*
X26475714Y20299943D01*
X26475714Y20299943D02*
X26523333Y20204705D01*
X26523333Y20204705D02*
X26523333Y20061848D01*
X26523333Y20061848D02*
X26475714Y19966610D01*
X26475714Y19966610D02*
X26428095Y19918991D01*
X26428095Y19918991D02*
X26332857Y19871372D01*
X26332857Y19871372D02*
X25951905Y19871372D01*
X26856667Y20395181D02*
X27475714Y20395181D01*
X27475714Y20395181D02*
X27142381Y20014229D01*
X27142381Y20014229D02*
X27285238Y20014229D01*
X27285238Y20014229D02*
X27380476Y19966610D01*
X27380476Y19966610D02*
X27428095Y19918991D01*
X27428095Y19918991D02*
X27475714Y19823753D01*
X27475714Y19823753D02*
X27475714Y19585658D01*
X27475714Y19585658D02*
X27428095Y19490420D01*
X27428095Y19490420D02*
X27380476Y19442800D01*
X27380476Y19442800D02*
X27285238Y19395181D01*
X27285238Y19395181D02*
X26999524Y19395181D01*
X26999524Y19395181D02*
X26904286Y19442800D01*
X26904286Y19442800D02*
X26856667Y19490420D01*
X15113333Y15100420D02*
X15065714Y15052800D01*
X15065714Y15052800D02*
X14922857Y15005181D01*
X14922857Y15005181D02*
X14827619Y15005181D01*
X14827619Y15005181D02*
X14684762Y15052800D01*
X14684762Y15052800D02*
X14589524Y15148039D01*
X14589524Y15148039D02*
X14541905Y15243277D01*
X14541905Y15243277D02*
X14494286Y15433753D01*
X14494286Y15433753D02*
X14494286Y15576610D01*
X14494286Y15576610D02*
X14541905Y15767086D01*
X14541905Y15767086D02*
X14589524Y15862324D01*
X14589524Y15862324D02*
X14684762Y15957562D01*
X14684762Y15957562D02*
X14827619Y16005181D01*
X14827619Y16005181D02*
X14922857Y16005181D01*
X14922857Y16005181D02*
X15065714Y15957562D01*
X15065714Y15957562D02*
X15113333Y15909943D01*
X15446667Y16005181D02*
X16065714Y16005181D01*
X16065714Y16005181D02*
X15732381Y15624229D01*
X15732381Y15624229D02*
X15875238Y15624229D01*
X15875238Y15624229D02*
X15970476Y15576610D01*
X15970476Y15576610D02*
X16018095Y15528991D01*
X16018095Y15528991D02*
X16065714Y15433753D01*
X16065714Y15433753D02*
X16065714Y15195658D01*
X16065714Y15195658D02*
X16018095Y15100420D01*
X16018095Y15100420D02*
X15970476Y15052800D01*
X15970476Y15052800D02*
X15875238Y15005181D01*
X15875238Y15005181D02*
X15589524Y15005181D01*
X15589524Y15005181D02*
X15494286Y15052800D01*
X15494286Y15052800D02*
X15446667Y15100420D01*
X43174819Y11658334D02*
X42698628Y11325001D01*
X43174819Y11086906D02*
X42174819Y11086906D01*
X42174819Y11086906D02*
X42174819Y11467858D01*
X42174819Y11467858D02*
X42222438Y11563096D01*
X42222438Y11563096D02*
X42270057Y11610715D01*
X42270057Y11610715D02*
X42365295Y11658334D01*
X42365295Y11658334D02*
X42508152Y11658334D01*
X42508152Y11658334D02*
X42603390Y11610715D01*
X42603390Y11610715D02*
X42651009Y11563096D01*
X42651009Y11563096D02*
X42698628Y11467858D01*
X42698628Y11467858D02*
X42698628Y11086906D01*
X42174819Y12515477D02*
X42174819Y12325001D01*
X42174819Y12325001D02*
X42222438Y12229763D01*
X42222438Y12229763D02*
X42270057Y12182144D01*
X42270057Y12182144D02*
X42412914Y12086906D01*
X42412914Y12086906D02*
X42603390Y12039287D01*
X42603390Y12039287D02*
X42984342Y12039287D01*
X42984342Y12039287D02*
X43079580Y12086906D01*
X43079580Y12086906D02*
X43127200Y12134525D01*
X43127200Y12134525D02*
X43174819Y12229763D01*
X43174819Y12229763D02*
X43174819Y12420239D01*
X43174819Y12420239D02*
X43127200Y12515477D01*
X43127200Y12515477D02*
X43079580Y12563096D01*
X43079580Y12563096D02*
X42984342Y12610715D01*
X42984342Y12610715D02*
X42746247Y12610715D01*
X42746247Y12610715D02*
X42651009Y12563096D01*
X42651009Y12563096D02*
X42603390Y12515477D01*
X42603390Y12515477D02*
X42555771Y12420239D01*
X42555771Y12420239D02*
X42555771Y12229763D01*
X42555771Y12229763D02*
X42603390Y12134525D01*
X42603390Y12134525D02*
X42651009Y12086906D01*
X42651009Y12086906D02*
X42746247Y12039287D01*
X10701905Y37835181D02*
X10701905Y38835181D01*
X10701905Y38835181D02*
X10940000Y38835181D01*
X10940000Y38835181D02*
X11082857Y38787562D01*
X11082857Y38787562D02*
X11178095Y38692324D01*
X11178095Y38692324D02*
X11225714Y38597086D01*
X11225714Y38597086D02*
X11273333Y38406610D01*
X11273333Y38406610D02*
X11273333Y38263753D01*
X11273333Y38263753D02*
X11225714Y38073277D01*
X11225714Y38073277D02*
X11178095Y37978039D01*
X11178095Y37978039D02*
X11082857Y37882800D01*
X11082857Y37882800D02*
X10940000Y37835181D01*
X10940000Y37835181D02*
X10701905Y37835181D01*
X11654286Y38739943D02*
X11701905Y38787562D01*
X11701905Y38787562D02*
X11797143Y38835181D01*
X11797143Y38835181D02*
X12035238Y38835181D01*
X12035238Y38835181D02*
X12130476Y38787562D01*
X12130476Y38787562D02*
X12178095Y38739943D01*
X12178095Y38739943D02*
X12225714Y38644705D01*
X12225714Y38644705D02*
X12225714Y38549467D01*
X12225714Y38549467D02*
X12178095Y38406610D01*
X12178095Y38406610D02*
X11606667Y37835181D01*
X11606667Y37835181D02*
X12225714Y37835181D01*
X48396666Y40045181D02*
X48396666Y39330896D01*
X48396666Y39330896D02*
X48349047Y39188039D01*
X48349047Y39188039D02*
X48253809Y39092800D01*
X48253809Y39092800D02*
X48110952Y39045181D01*
X48110952Y39045181D02*
X48015714Y39045181D01*
X48777619Y40045181D02*
X49444285Y40045181D01*
X49444285Y40045181D02*
X49015714Y39045181D01*
X31583333Y19510420D02*
X31535714Y19462800D01*
X31535714Y19462800D02*
X31392857Y19415181D01*
X31392857Y19415181D02*
X31297619Y19415181D01*
X31297619Y19415181D02*
X31154762Y19462800D01*
X31154762Y19462800D02*
X31059524Y19558039D01*
X31059524Y19558039D02*
X31011905Y19653277D01*
X31011905Y19653277D02*
X30964286Y19843753D01*
X30964286Y19843753D02*
X30964286Y19986610D01*
X30964286Y19986610D02*
X31011905Y20177086D01*
X31011905Y20177086D02*
X31059524Y20272324D01*
X31059524Y20272324D02*
X31154762Y20367562D01*
X31154762Y20367562D02*
X31297619Y20415181D01*
X31297619Y20415181D02*
X31392857Y20415181D01*
X31392857Y20415181D02*
X31535714Y20367562D01*
X31535714Y20367562D02*
X31583333Y20319943D01*
X32440476Y20081848D02*
X32440476Y19415181D01*
X32202381Y20462800D02*
X31964286Y19748515D01*
X31964286Y19748515D02*
X32583333Y19748515D01*
X45929405Y6265181D02*
X45929405Y7265181D01*
X45929405Y7265181D02*
X46167500Y7265181D01*
X46167500Y7265181D02*
X46310357Y7217562D01*
X46310357Y7217562D02*
X46405595Y7122324D01*
X46405595Y7122324D02*
X46453214Y7027086D01*
X46453214Y7027086D02*
X46500833Y6836610D01*
X46500833Y6836610D02*
X46500833Y6693753D01*
X46500833Y6693753D02*
X46453214Y6503277D01*
X46453214Y6503277D02*
X46405595Y6408039D01*
X46405595Y6408039D02*
X46310357Y6312800D01*
X46310357Y6312800D02*
X46167500Y6265181D01*
X46167500Y6265181D02*
X45929405Y6265181D01*
X47453214Y6265181D02*
X46881786Y6265181D01*
X47167500Y6265181D02*
X47167500Y7265181D01*
X47167500Y7265181D02*
X47072262Y7122324D01*
X47072262Y7122324D02*
X46977024Y7027086D01*
X46977024Y7027086D02*
X46881786Y6979467D01*
X13866666Y39745181D02*
X13866666Y39030896D01*
X13866666Y39030896D02*
X13819047Y38888039D01*
X13819047Y38888039D02*
X13723809Y38792800D01*
X13723809Y38792800D02*
X13580952Y38745181D01*
X13580952Y38745181D02*
X13485714Y38745181D01*
X14247619Y39745181D02*
X14866666Y39745181D01*
X14866666Y39745181D02*
X14533333Y39364229D01*
X14533333Y39364229D02*
X14676190Y39364229D01*
X14676190Y39364229D02*
X14771428Y39316610D01*
X14771428Y39316610D02*
X14819047Y39268991D01*
X14819047Y39268991D02*
X14866666Y39173753D01*
X14866666Y39173753D02*
X14866666Y38935658D01*
X14866666Y38935658D02*
X14819047Y38840420D01*
X14819047Y38840420D02*
X14771428Y38792800D01*
X14771428Y38792800D02*
X14676190Y38745181D01*
X14676190Y38745181D02*
X14390476Y38745181D01*
X14390476Y38745181D02*
X14295238Y38792800D01*
X14295238Y38792800D02*
X14247619Y38840420D01*
X41373333Y6125181D02*
X41040000Y6601372D01*
X40801905Y6125181D02*
X40801905Y7125181D01*
X40801905Y7125181D02*
X41182857Y7125181D01*
X41182857Y7125181D02*
X41278095Y7077562D01*
X41278095Y7077562D02*
X41325714Y7029943D01*
X41325714Y7029943D02*
X41373333Y6934705D01*
X41373333Y6934705D02*
X41373333Y6791848D01*
X41373333Y6791848D02*
X41325714Y6696610D01*
X41325714Y6696610D02*
X41278095Y6648991D01*
X41278095Y6648991D02*
X41182857Y6601372D01*
X41182857Y6601372D02*
X40801905Y6601372D01*
X42278095Y7125181D02*
X41801905Y7125181D01*
X41801905Y7125181D02*
X41754286Y6648991D01*
X41754286Y6648991D02*
X41801905Y6696610D01*
X41801905Y6696610D02*
X41897143Y6744229D01*
X41897143Y6744229D02*
X42135238Y6744229D01*
X42135238Y6744229D02*
X42230476Y6696610D01*
X42230476Y6696610D02*
X42278095Y6648991D01*
X42278095Y6648991D02*
X42325714Y6553753D01*
X42325714Y6553753D02*
X42325714Y6315658D01*
X42325714Y6315658D02*
X42278095Y6220420D01*
X42278095Y6220420D02*
X42230476Y6172800D01*
X42230476Y6172800D02*
X42135238Y6125181D01*
X42135238Y6125181D02*
X41897143Y6125181D01*
X41897143Y6125181D02*
X41801905Y6172800D01*
X41801905Y6172800D02*
X41754286Y6220420D01*
X2016666Y38035181D02*
X2016666Y37320896D01*
X2016666Y37320896D02*
X1969047Y37178039D01*
X1969047Y37178039D02*
X1873809Y37082800D01*
X1873809Y37082800D02*
X1730952Y37035181D01*
X1730952Y37035181D02*
X1635714Y37035181D01*
X3016666Y37035181D02*
X2445238Y37035181D01*
X2730952Y37035181D02*
X2730952Y38035181D01*
X2730952Y38035181D02*
X2635714Y37892324D01*
X2635714Y37892324D02*
X2540476Y37797086D01*
X2540476Y37797086D02*
X2445238Y37749467D01*
X18883333Y19455181D02*
X18550000Y19931372D01*
X18311905Y19455181D02*
X18311905Y20455181D01*
X18311905Y20455181D02*
X18692857Y20455181D01*
X18692857Y20455181D02*
X18788095Y20407562D01*
X18788095Y20407562D02*
X18835714Y20359943D01*
X18835714Y20359943D02*
X18883333Y20264705D01*
X18883333Y20264705D02*
X18883333Y20121848D01*
X18883333Y20121848D02*
X18835714Y20026610D01*
X18835714Y20026610D02*
X18788095Y19978991D01*
X18788095Y19978991D02*
X18692857Y19931372D01*
X18692857Y19931372D02*
X18311905Y19931372D01*
X19264286Y20359943D02*
X19311905Y20407562D01*
X19311905Y20407562D02*
X19407143Y20455181D01*
X19407143Y20455181D02*
X19645238Y20455181D01*
X19645238Y20455181D02*
X19740476Y20407562D01*
X19740476Y20407562D02*
X19788095Y20359943D01*
X19788095Y20359943D02*
X19835714Y20264705D01*
X19835714Y20264705D02*
X19835714Y20169467D01*
X19835714Y20169467D02*
X19788095Y20026610D01*
X19788095Y20026610D02*
X19216667Y19455181D01*
X19216667Y19455181D02*
X19835714Y19455181D01*
X34828095Y9555181D02*
X34828095Y8745658D01*
X34828095Y8745658D02*
X34875714Y8650420D01*
X34875714Y8650420D02*
X34923333Y8602800D01*
X34923333Y8602800D02*
X35018571Y8555181D01*
X35018571Y8555181D02*
X35209047Y8555181D01*
X35209047Y8555181D02*
X35304285Y8602800D01*
X35304285Y8602800D02*
X35351904Y8650420D01*
X35351904Y8650420D02*
X35399523Y8745658D01*
X35399523Y8745658D02*
X35399523Y9555181D01*
X36399523Y8555181D02*
X35828095Y8555181D01*
X36113809Y8555181D02*
X36113809Y9555181D01*
X36113809Y9555181D02*
X36018571Y9412324D01*
X36018571Y9412324D02*
X35923333Y9317086D01*
X35923333Y9317086D02*
X35828095Y9269467D01*
X42004761Y3325181D02*
X41671428Y3801372D01*
X41433333Y3325181D02*
X41433333Y4325181D01*
X41433333Y4325181D02*
X41814285Y4325181D01*
X41814285Y4325181D02*
X41909523Y4277562D01*
X41909523Y4277562D02*
X41957142Y4229943D01*
X41957142Y4229943D02*
X42004761Y4134705D01*
X42004761Y4134705D02*
X42004761Y3991848D01*
X42004761Y3991848D02*
X41957142Y3896610D01*
X41957142Y3896610D02*
X41909523Y3848991D01*
X41909523Y3848991D02*
X41814285Y3801372D01*
X41814285Y3801372D02*
X41433333Y3801372D01*
X42290476Y4325181D02*
X42623809Y3325181D01*
X42623809Y3325181D02*
X42957142Y4325181D01*
X43814285Y3325181D02*
X43242857Y3325181D01*
X43528571Y3325181D02*
X43528571Y4325181D01*
X43528571Y4325181D02*
X43433333Y4182324D01*
X43433333Y4182324D02*
X43338095Y4087086D01*
X43338095Y4087086D02*
X43242857Y4039467D01*
X1526666Y19765181D02*
X1526666Y19050896D01*
X1526666Y19050896D02*
X1479047Y18908039D01*
X1479047Y18908039D02*
X1383809Y18812800D01*
X1383809Y18812800D02*
X1240952Y18765181D01*
X1240952Y18765181D02*
X1145714Y18765181D01*
X2431428Y19431848D02*
X2431428Y18765181D01*
X2193333Y19812800D02*
X1955238Y19098515D01*
X1955238Y19098515D02*
X2574285Y19098515D01*
X1736666Y9595181D02*
X1736666Y8880896D01*
X1736666Y8880896D02*
X1689047Y8738039D01*
X1689047Y8738039D02*
X1593809Y8642800D01*
X1593809Y8642800D02*
X1450952Y8595181D01*
X1450952Y8595181D02*
X1355714Y8595181D01*
X2165238Y9499943D02*
X2212857Y9547562D01*
X2212857Y9547562D02*
X2308095Y9595181D01*
X2308095Y9595181D02*
X2546190Y9595181D01*
X2546190Y9595181D02*
X2641428Y9547562D01*
X2641428Y9547562D02*
X2689047Y9499943D01*
X2689047Y9499943D02*
X2736666Y9404705D01*
X2736666Y9404705D02*
X2736666Y9309467D01*
X2736666Y9309467D02*
X2689047Y9166610D01*
X2689047Y9166610D02*
X2117619Y8595181D01*
X2117619Y8595181D02*
X2736666Y8595181D01*
X1606666Y28495181D02*
X1606666Y27780896D01*
X1606666Y27780896D02*
X1559047Y27638039D01*
X1559047Y27638039D02*
X1463809Y27542800D01*
X1463809Y27542800D02*
X1320952Y27495181D01*
X1320952Y27495181D02*
X1225714Y27495181D01*
X2559047Y28495181D02*
X2082857Y28495181D01*
X2082857Y28495181D02*
X2035238Y28018991D01*
X2035238Y28018991D02*
X2082857Y28066610D01*
X2082857Y28066610D02*
X2178095Y28114229D01*
X2178095Y28114229D02*
X2416190Y28114229D01*
X2416190Y28114229D02*
X2511428Y28066610D01*
X2511428Y28066610D02*
X2559047Y28018991D01*
X2559047Y28018991D02*
X2606666Y27923753D01*
X2606666Y27923753D02*
X2606666Y27685658D01*
X2606666Y27685658D02*
X2559047Y27590420D01*
X2559047Y27590420D02*
X2511428Y27542800D01*
X2511428Y27542800D02*
X2416190Y27495181D01*
X2416190Y27495181D02*
X2178095Y27495181D01*
X2178095Y27495181D02*
X2082857Y27542800D01*
X2082857Y27542800D02*
X2035238Y27590420D01*
X47886666Y19245181D02*
X47886666Y18530896D01*
X47886666Y18530896D02*
X47839047Y18388039D01*
X47839047Y18388039D02*
X47743809Y18292800D01*
X47743809Y18292800D02*
X47600952Y18245181D01*
X47600952Y18245181D02*
X47505714Y18245181D01*
X48791428Y19245181D02*
X48600952Y19245181D01*
X48600952Y19245181D02*
X48505714Y19197562D01*
X48505714Y19197562D02*
X48458095Y19149943D01*
X48458095Y19149943D02*
X48362857Y19007086D01*
X48362857Y19007086D02*
X48315238Y18816610D01*
X48315238Y18816610D02*
X48315238Y18435658D01*
X48315238Y18435658D02*
X48362857Y18340420D01*
X48362857Y18340420D02*
X48410476Y18292800D01*
X48410476Y18292800D02*
X48505714Y18245181D01*
X48505714Y18245181D02*
X48696190Y18245181D01*
X48696190Y18245181D02*
X48791428Y18292800D01*
X48791428Y18292800D02*
X48839047Y18340420D01*
X48839047Y18340420D02*
X48886666Y18435658D01*
X48886666Y18435658D02*
X48886666Y18673753D01*
X48886666Y18673753D02*
X48839047Y18768991D01*
X48839047Y18768991D02*
X48791428Y18816610D01*
X48791428Y18816610D02*
X48696190Y18864229D01*
X48696190Y18864229D02*
X48505714Y18864229D01*
X48505714Y18864229D02*
X48410476Y18816610D01*
X48410476Y18816610D02*
X48362857Y18768991D01*
X48362857Y18768991D02*
X48315238Y18673753D01*
D11*
%TO.C,R7*%
X43697258Y8662500D02*
X43222742Y8662500D01*
X43697258Y7617500D02*
X43222742Y7617500D01*
%TO.C,R4*%
X40697742Y18082500D02*
X41172258Y18082500D01*
X40697742Y17037500D02*
X41172258Y17037500D01*
%TO.C,R8*%
X48707500Y8597742D02*
X48707500Y9072258D01*
X49752500Y8597742D02*
X49752500Y9072258D01*
%TO.C,R1*%
X12772742Y26292500D02*
X13247258Y26292500D01*
X12772742Y25247500D02*
X13247258Y25247500D01*
%TO.C,C1*%
X34990000Y13585580D02*
X34990000Y13304420D01*
X36010000Y13585580D02*
X36010000Y13304420D01*
D10*
%TO.C,U2*%
X19915000Y14765000D02*
X20190000Y14765000D01*
X19915000Y9215000D02*
X19915000Y14765000D01*
X19915000Y9215000D02*
X20190000Y9215000D01*
X30465000Y14765000D02*
X30190000Y14765000D01*
X30465000Y9215000D02*
X30190000Y9215000D01*
X30465000Y9215000D02*
X30465000Y14765000D01*
D11*
X20190000Y8715000D02*
X19860000Y8475000D01*
X19860000Y8955000D01*
X20190000Y8715000D01*
G36*
X20190000Y8715000D02*
G01*
X19860000Y8475000D01*
X19860000Y8955000D01*
X20190000Y8715000D01*
G37*
%TO.C,R9*%
X10857500Y32307258D02*
X10857500Y31832742D01*
X11902500Y32307258D02*
X11902500Y31832742D01*
%TO.C,C2*%
X22739420Y18990000D02*
X23020580Y18990000D01*
X22739420Y17970000D02*
X23020580Y17970000D01*
%TO.C,R3*%
X26957742Y18992500D02*
X27432258Y18992500D01*
X26957742Y17947500D02*
X27432258Y17947500D01*
%TO.C,C3*%
X18105580Y16060000D02*
X17824420Y16060000D01*
X18105580Y15040000D02*
X17824420Y15040000D01*
%TO.C,R6*%
X43627500Y11587742D02*
X43627500Y12062258D01*
X44672500Y11587742D02*
X44672500Y12062258D01*
%TO.C,D2*%
X10615000Y36982500D02*
X10615000Y34697500D01*
X10615000Y34697500D02*
X12085000Y34697500D01*
X12085000Y34697500D02*
X12085000Y36982500D01*
%TO.C,J7*%
X32560000Y39920000D02*
X47560000Y39920000D01*
X32560000Y24920000D02*
X32560000Y39920000D01*
X40060000Y39720000D02*
X39060000Y38720000D01*
X40060000Y39720000D02*
X41060000Y38720000D01*
X47560000Y39920000D02*
X47560000Y24920000D01*
X47560000Y24920000D02*
X32560000Y24920000D01*
%TO.C,C4*%
X32074420Y18980000D02*
X32355580Y18980000D01*
X32074420Y17960000D02*
X32355580Y17960000D01*
%TO.C,D1*%
X45867500Y7415000D02*
X48152500Y7415000D01*
X48152500Y8885000D02*
X45867500Y8885000D01*
X48152500Y7415000D02*
X48152500Y8885000D01*
%TO.C,J3*%
X15850000Y39930000D02*
X30850000Y39930000D01*
X15850000Y24930000D02*
X15850000Y39930000D01*
X23350000Y39730000D02*
X22350000Y38730000D01*
X23350000Y39730000D02*
X24350000Y38730000D01*
X30850000Y39930000D02*
X30850000Y24930000D01*
X30850000Y24930000D02*
X15850000Y24930000D01*
%TO.C,R5*%
X39987742Y8662500D02*
X40462258Y8662500D01*
X39987742Y7617500D02*
X40462258Y7617500D01*
%TO.C,J1*%
X3940000Y31310000D02*
X3940000Y38050000D01*
X9720000Y38050000D02*
X3940000Y38050000D01*
X9720000Y37530000D02*
X3940000Y37530000D01*
X9720000Y32430000D02*
X3940000Y32430000D01*
X9720000Y31310000D02*
X3940000Y31310000D01*
X9720000Y31310000D02*
X9720000Y38050000D01*
X9960000Y38290000D02*
X9560000Y38290000D01*
X9960000Y37650000D02*
X9960000Y38290000D01*
%TO.C,R2*%
X19202742Y19002500D02*
X19677258Y19002500D01*
X19202742Y17957500D02*
X19677258Y17957500D01*
D10*
%TO.C,U1*%
X36875000Y13575000D02*
X37050000Y13575000D01*
X36875000Y10325000D02*
X36875000Y13575000D01*
X36875000Y10325000D02*
X37050000Y10325000D01*
X39950000Y13575000D02*
X40125000Y13575000D01*
X39950000Y10325000D02*
X40125000Y10325000D01*
X40125000Y10325000D02*
X40125000Y13575000D01*
D11*
X37050000Y9850000D02*
X36720000Y9610000D01*
X36720000Y10090000D01*
X37050000Y9850000D01*
G36*
X37050000Y9850000D02*
G01*
X36720000Y9610000D01*
X36720000Y10090000D01*
X37050000Y9850000D01*
G37*
%TO.C,RV1*%
X35760000Y1580000D02*
X35760000Y6320000D01*
X36070000Y1580000D02*
X35760000Y1580000D01*
X36870000Y6320000D02*
X35760000Y6320000D01*
X38370000Y1580000D02*
X37890000Y1580000D01*
X40500000Y6320000D02*
X39400000Y6320000D01*
X40500000Y1580000D02*
X40190000Y1580000D01*
X40500000Y1580000D02*
X40500000Y6320000D01*
%TO.C,J4*%
X3260000Y22200000D02*
X10000000Y22200000D01*
X3260000Y16420000D02*
X3260000Y22200000D01*
X3260000Y16420000D02*
X10000000Y16420000D01*
X4380000Y16420000D02*
X4380000Y22200000D01*
X9480000Y16420000D02*
X9480000Y22200000D01*
X9600000Y16180000D02*
X10240000Y16180000D01*
X10000000Y16420000D02*
X10000000Y22200000D01*
X10240000Y16180000D02*
X10240000Y16580000D01*
%TO.C,J2*%
X4030000Y7720000D02*
X4030000Y10320000D01*
X6690000Y10320000D02*
X4030000Y10320000D01*
X6690000Y7720000D02*
X4030000Y7720000D01*
X6690000Y7720000D02*
X6690000Y10320000D01*
X6690000Y6450000D02*
X6690000Y5120000D01*
X6690000Y5120000D02*
X5360000Y5120000D01*
%TO.C,J5*%
X4060000Y26660000D02*
X4060000Y27990000D01*
X5390000Y26660000D02*
X4060000Y26660000D01*
X6660000Y29320000D02*
X9260000Y29320000D01*
X6660000Y26660000D02*
X6660000Y29320000D01*
X6660000Y26660000D02*
X9260000Y26660000D01*
X9260000Y26660000D02*
X9260000Y29320000D01*
%TO.C,J6*%
X49610000Y20950000D02*
X56350000Y20950000D01*
X49610000Y15170000D02*
X49610000Y20950000D01*
X49610000Y15170000D02*
X56350000Y15170000D01*
X50730000Y15170000D02*
X50730000Y20950000D01*
X55830000Y15170000D02*
X55830000Y20950000D01*
X55950000Y14930000D02*
X56590000Y14930000D01*
X56350000Y15170000D02*
X56350000Y20950000D01*
X56590000Y14930000D02*
X56590000Y15330000D01*
%TD*%
M02*
