%TF.GenerationSoftware,KiCad,Pcbnew,8.0.1*%
%TF.CreationDate,2024-06-13T00:26:48+02:00*%
%TF.ProjectId,CFT,4346542e-6b69-4636-9164-5f7063625858,rev?*%
%TF.SameCoordinates,PX52e4ef2PY60c692e*%
%TF.FileFunction,Drillmap*%
%TF.FilePolarity,Positive*%
%FSLAX45Y45*%
G04 Gerber Fmt 4.5, Leading zero omitted, Abs format (unit mm)*
G04 Created by KiCad (PCBNEW 8.0.1) date 2024-06-13 00:26:48*
%MOMM*%
%LPD*%
G01*
G04 APERTURE LIST*
%ADD10C,0.050000*%
%ADD11C,0.200000*%
%ADD12C,0.100000*%
%ADD13C,0.110000*%
%ADD14C,0.201000*%
G04 APERTURE END LIST*
D10*
X2000Y4127000D02*
X5713000Y4127000D01*
X5713000Y0D01*
X2000Y0D01*
X2000Y4127000D01*
D11*
D12*
X233500Y3839500D02*
X273500Y3799500D01*
X273500Y3839500D02*
X233500Y3799500D01*
X233500Y3585500D02*
X273500Y3545500D01*
X273500Y3585500D02*
X233500Y3545500D01*
X233500Y3331500D02*
X273500Y3291500D01*
X273500Y3331500D02*
X233500Y3291500D01*
X233500Y3077500D02*
X273500Y3037500D01*
X273500Y3077500D02*
X233500Y3037500D01*
X233500Y2823500D02*
X273500Y2783500D01*
X273500Y2823500D02*
X233500Y2783500D01*
X233500Y2569500D02*
X273500Y2529500D01*
X273500Y2569500D02*
X233500Y2529500D01*
X233500Y2315500D02*
X273500Y2275500D01*
X273500Y2315500D02*
X233500Y2275500D01*
X233500Y2061500D02*
X273500Y2021500D01*
X273500Y2061500D02*
X233500Y2021500D01*
X233500Y1807500D02*
X273500Y1767500D01*
X273500Y1807500D02*
X233500Y1767500D01*
X233500Y1553500D02*
X273500Y1513500D01*
X273500Y1553500D02*
X233500Y1513500D01*
X233500Y1299500D02*
X273500Y1259500D01*
X273500Y1299500D02*
X233500Y1259500D01*
X233500Y1045500D02*
X273500Y1005500D01*
X273500Y1045500D02*
X233500Y1005500D01*
X233500Y791500D02*
X273500Y751500D01*
X273500Y791500D02*
X233500Y751500D01*
X233500Y537500D02*
X273500Y497500D01*
X273500Y537500D02*
X233500Y497500D01*
X233500Y283500D02*
X273500Y243500D01*
X273500Y283500D02*
X233500Y243500D01*
X487500Y3839500D02*
X527500Y3799500D01*
X527500Y3839500D02*
X487500Y3799500D01*
X487500Y2569500D02*
X527500Y2529500D01*
X527500Y2569500D02*
X487500Y2529500D01*
X487500Y2315500D02*
X527500Y2275500D01*
X527500Y2315500D02*
X487500Y2275500D01*
X487500Y1553500D02*
X527500Y1513500D01*
X527500Y1553500D02*
X487500Y1513500D01*
X487500Y1299500D02*
X527500Y1259500D01*
X527500Y1299500D02*
X487500Y1259500D01*
X487500Y283500D02*
X527500Y243500D01*
X527500Y283500D02*
X487500Y243500D01*
X741500Y3839500D02*
X781500Y3799500D01*
X781500Y3839500D02*
X741500Y3799500D01*
X741500Y3077500D02*
X781500Y3037500D01*
X781500Y3077500D02*
X741500Y3037500D01*
X741500Y2315500D02*
X781500Y2275500D01*
X781500Y2315500D02*
X741500Y2275500D01*
X741500Y1553500D02*
X781500Y1513500D01*
X781500Y1553500D02*
X741500Y1513500D01*
X741500Y1299500D02*
X781500Y1259500D01*
X781500Y1299500D02*
X741500Y1259500D01*
X741500Y1045500D02*
X781500Y1005500D01*
X781500Y1045500D02*
X741500Y1005500D01*
X741500Y791500D02*
X781500Y751500D01*
X781500Y791500D02*
X741500Y751500D01*
X741500Y537500D02*
X781500Y497500D01*
X781500Y537500D02*
X741500Y497500D01*
X741500Y283500D02*
X781500Y243500D01*
X781500Y283500D02*
X741500Y243500D01*
X995500Y3839500D02*
X1035500Y3799500D01*
X1035500Y3839500D02*
X995500Y3799500D01*
X995500Y3585500D02*
X1035500Y3545500D01*
X1035500Y3585500D02*
X995500Y3545500D01*
X995500Y3331500D02*
X1035500Y3291500D01*
X1035500Y3331500D02*
X995500Y3291500D01*
X995500Y3077500D02*
X1035500Y3037500D01*
X1035500Y3077500D02*
X995500Y3037500D01*
X995500Y1299500D02*
X1035500Y1259500D01*
X1035500Y1299500D02*
X995500Y1259500D01*
X995500Y1045500D02*
X1035500Y1005500D01*
X1035500Y1045500D02*
X995500Y1005500D01*
X995500Y791500D02*
X1035500Y751500D01*
X1035500Y791500D02*
X995500Y751500D01*
X995500Y283500D02*
X1035500Y243500D01*
X1035500Y283500D02*
X995500Y243500D01*
X1127000Y2256000D02*
X1167000Y2216000D01*
X1167000Y2256000D02*
X1127000Y2216000D01*
X1249500Y3839500D02*
X1289500Y3799500D01*
X1289500Y3839500D02*
X1249500Y3799500D01*
X1249500Y3585500D02*
X1289500Y3545500D01*
X1289500Y3585500D02*
X1249500Y3545500D01*
X1249500Y3331500D02*
X1289500Y3291500D01*
X1289500Y3331500D02*
X1249500Y3291500D01*
X1249500Y3077500D02*
X1289500Y3037500D01*
X1289500Y3077500D02*
X1249500Y3037500D01*
X1249500Y2823500D02*
X1289500Y2783500D01*
X1289500Y2823500D02*
X1249500Y2783500D01*
X1249500Y1807500D02*
X1289500Y1767500D01*
X1289500Y1807500D02*
X1249500Y1767500D01*
X1249500Y1045500D02*
X1289500Y1005500D01*
X1289500Y1045500D02*
X1249500Y1005500D01*
X1249500Y283500D02*
X1289500Y243500D01*
X1289500Y283500D02*
X1249500Y243500D01*
X1503500Y3839500D02*
X1543500Y3799500D01*
X1543500Y3839500D02*
X1503500Y3799500D01*
X1503500Y3585500D02*
X1543500Y3545500D01*
X1543500Y3585500D02*
X1503500Y3545500D01*
X1503500Y3331500D02*
X1543500Y3291500D01*
X1543500Y3331500D02*
X1503500Y3291500D01*
X1503500Y3077500D02*
X1543500Y3037500D01*
X1543500Y3077500D02*
X1503500Y3037500D01*
X1503500Y2823500D02*
X1543500Y2783500D01*
X1543500Y2823500D02*
X1503500Y2783500D01*
X1503500Y2315500D02*
X1543500Y2275500D01*
X1543500Y2315500D02*
X1503500Y2275500D01*
X1503500Y1553500D02*
X1543500Y1513500D01*
X1543500Y1553500D02*
X1503500Y1513500D01*
X1503500Y1045500D02*
X1543500Y1005500D01*
X1543500Y1045500D02*
X1503500Y1005500D01*
X1503500Y791500D02*
X1543500Y751500D01*
X1543500Y791500D02*
X1503500Y751500D01*
X1503500Y537500D02*
X1543500Y497500D01*
X1543500Y537500D02*
X1503500Y497500D01*
X1503500Y283500D02*
X1543500Y243500D01*
X1543500Y283500D02*
X1503500Y243500D01*
X1543000Y1870000D02*
X1583000Y1830000D01*
X1583000Y1870000D02*
X1543000Y1830000D01*
X1757500Y3839500D02*
X1797500Y3799500D01*
X1797500Y3839500D02*
X1757500Y3799500D01*
X1757500Y2061500D02*
X1797500Y2021500D01*
X1797500Y2061500D02*
X1757500Y2021500D01*
X1757500Y1045500D02*
X1797500Y1005500D01*
X1797500Y1045500D02*
X1757500Y1005500D01*
X1757500Y791500D02*
X1797500Y751500D01*
X1797500Y791500D02*
X1757500Y751500D01*
X1757500Y537500D02*
X1797500Y497500D01*
X1797500Y537500D02*
X1757500Y497500D01*
X1757500Y283500D02*
X1797500Y243500D01*
X1797500Y283500D02*
X1757500Y243500D01*
X2011500Y3839500D02*
X2051500Y3799500D01*
X2051500Y3839500D02*
X2011500Y3799500D01*
X2011500Y2061500D02*
X2051500Y2021500D01*
X2051500Y2061500D02*
X2011500Y2021500D01*
X2011500Y537500D02*
X2051500Y497500D01*
X2051500Y537500D02*
X2011500Y497500D01*
X2011500Y283500D02*
X2051500Y243500D01*
X2051500Y283500D02*
X2011500Y243500D01*
X2265500Y3839500D02*
X2305500Y3799500D01*
X2305500Y3839500D02*
X2265500Y3799500D01*
X2265500Y3585500D02*
X2305500Y3545500D01*
X2305500Y3585500D02*
X2265500Y3545500D01*
X2265500Y3331500D02*
X2305500Y3291500D01*
X2305500Y3331500D02*
X2265500Y3291500D01*
X2265500Y3077500D02*
X2305500Y3037500D01*
X2305500Y3077500D02*
X2265500Y3037500D01*
X2265500Y2315500D02*
X2305500Y2275500D01*
X2305500Y2315500D02*
X2265500Y2275500D01*
X2265500Y2061500D02*
X2305500Y2021500D01*
X2305500Y2061500D02*
X2265500Y2021500D01*
X2265500Y537500D02*
X2305500Y497500D01*
X2305500Y537500D02*
X2265500Y497500D01*
X2265500Y283500D02*
X2305500Y243500D01*
X2305500Y283500D02*
X2265500Y243500D01*
X2519500Y3839500D02*
X2559500Y3799500D01*
X2559500Y3839500D02*
X2519500Y3799500D01*
X2519500Y3585500D02*
X2559500Y3545500D01*
X2559500Y3585500D02*
X2519500Y3545500D01*
X2519500Y3331500D02*
X2559500Y3291500D01*
X2559500Y3331500D02*
X2519500Y3291500D01*
X2519500Y3077500D02*
X2559500Y3037500D01*
X2559500Y3077500D02*
X2519500Y3037500D01*
X2519500Y2823500D02*
X2559500Y2783500D01*
X2559500Y2823500D02*
X2519500Y2783500D01*
X2519500Y2569500D02*
X2559500Y2529500D01*
X2559500Y2569500D02*
X2519500Y2529500D01*
X2519500Y2315500D02*
X2559500Y2275500D01*
X2559500Y2315500D02*
X2519500Y2275500D01*
X2519500Y2061500D02*
X2559500Y2021500D01*
X2559500Y2061500D02*
X2519500Y2021500D01*
X2519500Y1045500D02*
X2559500Y1005500D01*
X2559500Y1045500D02*
X2519500Y1005500D01*
X2519500Y537500D02*
X2559500Y497500D01*
X2559500Y537500D02*
X2519500Y497500D01*
X2519500Y283500D02*
X2559500Y243500D01*
X2559500Y283500D02*
X2519500Y243500D01*
X2773500Y3839500D02*
X2813500Y3799500D01*
X2813500Y3839500D02*
X2773500Y3799500D01*
X2773500Y2569500D02*
X2813500Y2529500D01*
X2813500Y2569500D02*
X2773500Y2529500D01*
X2773500Y2315500D02*
X2813500Y2275500D01*
X2813500Y2315500D02*
X2773500Y2275500D01*
X2773500Y2061500D02*
X2813500Y2021500D01*
X2813500Y2061500D02*
X2773500Y2021500D01*
X2773500Y1045500D02*
X2813500Y1005500D01*
X2813500Y1045500D02*
X2773500Y1005500D01*
X2773500Y537500D02*
X2813500Y497500D01*
X2813500Y537500D02*
X2773500Y497500D01*
X2773500Y283500D02*
X2813500Y243500D01*
X2813500Y283500D02*
X2773500Y243500D01*
X3027500Y3839500D02*
X3067500Y3799500D01*
X3067500Y3839500D02*
X3027500Y3799500D01*
X3027500Y2823500D02*
X3067500Y2783500D01*
X3067500Y2823500D02*
X3027500Y2783500D01*
X3027500Y2569500D02*
X3067500Y2529500D01*
X3067500Y2569500D02*
X3027500Y2529500D01*
X3027500Y2315500D02*
X3067500Y2275500D01*
X3067500Y2315500D02*
X3027500Y2275500D01*
X3027500Y2061500D02*
X3067500Y2021500D01*
X3067500Y2061500D02*
X3027500Y2021500D01*
X3027500Y1045500D02*
X3067500Y1005500D01*
X3067500Y1045500D02*
X3027500Y1005500D01*
X3027500Y537500D02*
X3067500Y497500D01*
X3067500Y537500D02*
X3027500Y497500D01*
X3027500Y283500D02*
X3067500Y243500D01*
X3067500Y283500D02*
X3027500Y243500D01*
X3281500Y3839500D02*
X3321500Y3799500D01*
X3321500Y3839500D02*
X3281500Y3799500D01*
X3281500Y2823500D02*
X3321500Y2783500D01*
X3321500Y2823500D02*
X3281500Y2783500D01*
X3281500Y2569500D02*
X3321500Y2529500D01*
X3321500Y2569500D02*
X3281500Y2529500D01*
X3281500Y2315500D02*
X3321500Y2275500D01*
X3321500Y2315500D02*
X3281500Y2275500D01*
X3281500Y2061500D02*
X3321500Y2021500D01*
X3321500Y2061500D02*
X3281500Y2021500D01*
X3281500Y283500D02*
X3321500Y243500D01*
X3321500Y283500D02*
X3281500Y243500D01*
X3535500Y3839500D02*
X3575500Y3799500D01*
X3575500Y3839500D02*
X3535500Y3799500D01*
X3535500Y2569500D02*
X3575500Y2529500D01*
X3575500Y2569500D02*
X3535500Y2529500D01*
X3535500Y2315500D02*
X3575500Y2275500D01*
X3575500Y2315500D02*
X3535500Y2275500D01*
X3535500Y2061500D02*
X3575500Y2021500D01*
X3575500Y2061500D02*
X3535500Y2021500D01*
X3535500Y1807500D02*
X3575500Y1767500D01*
X3575500Y1807500D02*
X3535500Y1767500D01*
X3535500Y1045500D02*
X3575500Y1005500D01*
X3575500Y1045500D02*
X3535500Y1005500D01*
X3535500Y791500D02*
X3575500Y751500D01*
X3575500Y791500D02*
X3535500Y751500D01*
X3789500Y3839500D02*
X3829500Y3799500D01*
X3829500Y3839500D02*
X3789500Y3799500D01*
X3789500Y3585500D02*
X3829500Y3545500D01*
X3829500Y3585500D02*
X3789500Y3545500D01*
X3789500Y3331500D02*
X3829500Y3291500D01*
X3829500Y3331500D02*
X3789500Y3291500D01*
X3789500Y3077500D02*
X3829500Y3037500D01*
X3829500Y3077500D02*
X3789500Y3037500D01*
X3789500Y2315500D02*
X3829500Y2275500D01*
X3829500Y2315500D02*
X3789500Y2275500D01*
X3789500Y2061500D02*
X3829500Y2021500D01*
X3829500Y2061500D02*
X3789500Y2021500D01*
X3798000Y1540000D02*
X3838000Y1500000D01*
X3838000Y1540000D02*
X3798000Y1500000D01*
X3866000Y1127000D02*
X3906000Y1087000D01*
X3906000Y1127000D02*
X3866000Y1087000D01*
X3870000Y1749000D02*
X3910000Y1709000D01*
X3910000Y1749000D02*
X3870000Y1709000D01*
X4043500Y3839500D02*
X4083500Y3799500D01*
X4083500Y3839500D02*
X4043500Y3799500D01*
X4043500Y3585500D02*
X4083500Y3545500D01*
X4083500Y3585500D02*
X4043500Y3545500D01*
X4043500Y3331500D02*
X4083500Y3291500D01*
X4083500Y3331500D02*
X4043500Y3291500D01*
X4043500Y3077500D02*
X4083500Y3037500D01*
X4083500Y3077500D02*
X4043500Y3037500D01*
X4043500Y537500D02*
X4083500Y497500D01*
X4083500Y537500D02*
X4043500Y497500D01*
X4049000Y1377000D02*
X4089000Y1337000D01*
X4089000Y1377000D02*
X4049000Y1337000D01*
X4061000Y1011000D02*
X4101000Y971000D01*
X4101000Y1011000D02*
X4061000Y971000D01*
X4297500Y3839500D02*
X4337500Y3799500D01*
X4337500Y3839500D02*
X4297500Y3799500D01*
X4297500Y2823500D02*
X4337500Y2783500D01*
X4337500Y2823500D02*
X4297500Y2783500D01*
X4297500Y2569500D02*
X4337500Y2529500D01*
X4337500Y2569500D02*
X4297500Y2529500D01*
X4297500Y2315500D02*
X4337500Y2275500D01*
X4337500Y2315500D02*
X4297500Y2275500D01*
X4297500Y537500D02*
X4337500Y497500D01*
X4337500Y537500D02*
X4297500Y497500D01*
X4297500Y283500D02*
X4337500Y243500D01*
X4337500Y283500D02*
X4297500Y243500D01*
X4551500Y3839500D02*
X4591500Y3799500D01*
X4591500Y3839500D02*
X4551500Y3799500D01*
X4551500Y2569500D02*
X4591500Y2529500D01*
X4591500Y2569500D02*
X4551500Y2529500D01*
X4551500Y2315500D02*
X4591500Y2275500D01*
X4591500Y2315500D02*
X4551500Y2275500D01*
X4551500Y2061500D02*
X4591500Y2021500D01*
X4591500Y2061500D02*
X4551500Y2021500D01*
X4551500Y1299500D02*
X4591500Y1259500D01*
X4591500Y1299500D02*
X4551500Y1259500D01*
X4551500Y1045500D02*
X4591500Y1005500D01*
X4591500Y1045500D02*
X4551500Y1005500D01*
X4551500Y537500D02*
X4591500Y497500D01*
X4591500Y537500D02*
X4551500Y497500D01*
X4551500Y283500D02*
X4591500Y243500D01*
X4591500Y283500D02*
X4551500Y243500D01*
X4805500Y3839500D02*
X4845500Y3799500D01*
X4845500Y3839500D02*
X4805500Y3799500D01*
X4805500Y3585500D02*
X4845500Y3545500D01*
X4845500Y3585500D02*
X4805500Y3545500D01*
X4805500Y3331500D02*
X4845500Y3291500D01*
X4845500Y3331500D02*
X4805500Y3291500D01*
X4805500Y3077500D02*
X4845500Y3037500D01*
X4845500Y3077500D02*
X4805500Y3037500D01*
X4805500Y2823500D02*
X4845500Y2783500D01*
X4845500Y2823500D02*
X4805500Y2783500D01*
X4805500Y2569500D02*
X4845500Y2529500D01*
X4845500Y2569500D02*
X4805500Y2529500D01*
X4805500Y2315500D02*
X4845500Y2275500D01*
X4845500Y2315500D02*
X4805500Y2275500D01*
X4805500Y2061500D02*
X4845500Y2021500D01*
X4845500Y2061500D02*
X4805500Y2021500D01*
X4805500Y1553500D02*
X4845500Y1513500D01*
X4845500Y1553500D02*
X4805500Y1513500D01*
X4805500Y1299500D02*
X4845500Y1259500D01*
X4845500Y1299500D02*
X4805500Y1259500D01*
X4805500Y537500D02*
X4845500Y497500D01*
X4845500Y537500D02*
X4805500Y497500D01*
X4805500Y283500D02*
X4845500Y243500D01*
X4845500Y283500D02*
X4805500Y243500D01*
X5059500Y3839500D02*
X5099500Y3799500D01*
X5099500Y3839500D02*
X5059500Y3799500D01*
X5059500Y3585500D02*
X5099500Y3545500D01*
X5099500Y3585500D02*
X5059500Y3545500D01*
X5059500Y2823500D02*
X5099500Y2783500D01*
X5099500Y2823500D02*
X5059500Y2783500D01*
X5059500Y2569500D02*
X5099500Y2529500D01*
X5099500Y2569500D02*
X5059500Y2529500D01*
X5059500Y2315500D02*
X5099500Y2275500D01*
X5099500Y2315500D02*
X5059500Y2275500D01*
X5059500Y2061500D02*
X5099500Y2021500D01*
X5099500Y2061500D02*
X5059500Y2021500D01*
X5059500Y1553500D02*
X5099500Y1513500D01*
X5099500Y1553500D02*
X5059500Y1513500D01*
X5059500Y1299500D02*
X5099500Y1259500D01*
X5099500Y1299500D02*
X5059500Y1259500D01*
X5059500Y1045500D02*
X5099500Y1005500D01*
X5099500Y1045500D02*
X5059500Y1005500D01*
X5059500Y791500D02*
X5099500Y751500D01*
X5099500Y791500D02*
X5059500Y751500D01*
X5059500Y537500D02*
X5099500Y497500D01*
X5099500Y537500D02*
X5059500Y497500D01*
X5059500Y283500D02*
X5099500Y243500D01*
X5099500Y283500D02*
X5059500Y243500D01*
X5313500Y3839500D02*
X5353500Y3799500D01*
X5353500Y3839500D02*
X5313500Y3799500D01*
X5313500Y3585500D02*
X5353500Y3545500D01*
X5353500Y3585500D02*
X5313500Y3545500D01*
X5313500Y2823500D02*
X5353500Y2783500D01*
X5353500Y2823500D02*
X5313500Y2783500D01*
X5313500Y2569500D02*
X5353500Y2529500D01*
X5353500Y2569500D02*
X5313500Y2529500D01*
X5313500Y2315500D02*
X5353500Y2275500D01*
X5353500Y2315500D02*
X5313500Y2275500D01*
X5313500Y1299500D02*
X5353500Y1259500D01*
X5353500Y1299500D02*
X5313500Y1259500D01*
X5313500Y1045500D02*
X5353500Y1005500D01*
X5353500Y1045500D02*
X5313500Y1005500D01*
X5313500Y791500D02*
X5353500Y751500D01*
X5353500Y791500D02*
X5313500Y751500D01*
X5313500Y537500D02*
X5353500Y497500D01*
X5353500Y537500D02*
X5313500Y497500D01*
X5313500Y283500D02*
X5353500Y243500D01*
X5353500Y283500D02*
X5313500Y243500D01*
X5567500Y3839500D02*
X5607500Y3799500D01*
X5607500Y3839500D02*
X5567500Y3799500D01*
X5567500Y3585500D02*
X5607500Y3545500D01*
X5607500Y3585500D02*
X5567500Y3545500D01*
X5567500Y3331500D02*
X5607500Y3291500D01*
X5607500Y3331500D02*
X5567500Y3291500D01*
X5567500Y3077500D02*
X5607500Y3037500D01*
X5607500Y3077500D02*
X5567500Y3037500D01*
X5567500Y2823500D02*
X5607500Y2783500D01*
X5607500Y2823500D02*
X5567500Y2783500D01*
X5567500Y2569500D02*
X5607500Y2529500D01*
X5607500Y2569500D02*
X5567500Y2529500D01*
X5567500Y2315500D02*
X5607500Y2275500D01*
X5607500Y2315500D02*
X5567500Y2275500D01*
X5567500Y2061500D02*
X5607500Y2021500D01*
X5607500Y2061500D02*
X5567500Y2021500D01*
X5567500Y1807500D02*
X5607500Y1767500D01*
X5607500Y1807500D02*
X5567500Y1767500D01*
X5567500Y1553500D02*
X5607500Y1513500D01*
X5607500Y1553500D02*
X5567500Y1513500D01*
X5567500Y1299500D02*
X5607500Y1259500D01*
X5607500Y1299500D02*
X5567500Y1259500D01*
X5567500Y1045500D02*
X5607500Y1005500D01*
X5607500Y1045500D02*
X5567500Y1005500D01*
X5567500Y791500D02*
X5607500Y751500D01*
X5607500Y791500D02*
X5567500Y751500D01*
X5567500Y537500D02*
X5607500Y497500D01*
X5607500Y537500D02*
X5567500Y497500D01*
X5567500Y283500D02*
X5607500Y243500D01*
X5607500Y283500D02*
X5567500Y243500D01*
X2125500Y2723000D02*
G75*
G02*
X2036500Y2723000I-44500J0D01*
G01*
X2036500Y2723000D02*
G75*
G02*
X2125500Y2723000I44500J0D01*
G01*
X2379500Y2723000D02*
G75*
G02*
X2290500Y2723000I-44500J0D01*
G01*
X2290500Y2723000D02*
G75*
G02*
X2379500Y2723000I44500J0D01*
G01*
X3796500Y2722000D02*
G75*
G02*
X3707500Y2722000I-44500J0D01*
G01*
X3707500Y2722000D02*
G75*
G02*
X3796500Y2722000I44500J0D01*
G01*
X4050500Y2722000D02*
G75*
G02*
X3961500Y2722000I-44500J0D01*
G01*
X3961500Y2722000D02*
G75*
G02*
X4050500Y2722000I44500J0D01*
G01*
X536000Y949000D02*
X536000Y849000D01*
X486000Y899000D02*
X586000Y899000D01*
X536000Y695000D02*
X536000Y595000D01*
X486000Y645000D02*
X586000Y645000D01*
X539000Y2849000D02*
X539000Y2749000D01*
X489000Y2799000D02*
X589000Y2799000D01*
X793000Y2849000D02*
X793000Y2749000D01*
X743000Y2799000D02*
X843000Y2799000D01*
D13*
X594891Y3429109D02*
X594891Y3506891D01*
X517109Y3506891D01*
X517109Y3429109D01*
X594891Y3429109D01*
X701891Y2019109D02*
X701891Y2096891D01*
X624109Y2096891D01*
X624109Y2019109D01*
X701891Y2019109D01*
X701891Y1765109D02*
X701891Y1842891D01*
X624109Y1842891D01*
X624109Y1765109D01*
X701891Y1765109D01*
X848891Y3429109D02*
X848891Y3506891D01*
X771109Y3506891D01*
X771109Y3429109D01*
X848891Y3429109D01*
X5336891Y1894109D02*
X5336891Y1971891D01*
X5259109Y1971891D01*
X5259109Y1894109D01*
X5336891Y1894109D01*
X5336891Y1640109D02*
X5336891Y1717891D01*
X5259109Y1717891D01*
X5259109Y1640109D01*
X5336891Y1640109D01*
D14*
X1827000Y3130500D02*
X1927500Y3231000D01*
X1827000Y3331500D01*
X1726500Y3231000D01*
X1827000Y3130500D01*
X2843000Y3130500D02*
X2943500Y3231000D01*
X2843000Y3331500D01*
X2742500Y3231000D01*
X2843000Y3130500D01*
X3498000Y3129500D02*
X3598500Y3230000D01*
X3498000Y3330500D01*
X3397500Y3230000D01*
X3498000Y3129500D01*
X4514000Y3129500D02*
X4614500Y3230000D01*
X4514000Y3330500D01*
X4413500Y3230000D01*
X4514000Y3129500D01*
D11*
X260277Y-313984D02*
X260277Y-113984D01*
X260277Y-113984D02*
X307896Y-113984D01*
X307896Y-113984D02*
X336467Y-123508D01*
X336467Y-123508D02*
X355515Y-142555D01*
X355515Y-142555D02*
X365039Y-161603D01*
X365039Y-161603D02*
X374562Y-199698D01*
X374562Y-199698D02*
X374562Y-228269D01*
X374562Y-228269D02*
X365039Y-266365D01*
X365039Y-266365D02*
X355515Y-285412D01*
X355515Y-285412D02*
X336467Y-304460D01*
X336467Y-304460D02*
X307896Y-313984D01*
X307896Y-313984D02*
X260277Y-313984D01*
X460277Y-313984D02*
X460277Y-180650D01*
X460277Y-218746D02*
X469801Y-199698D01*
X469801Y-199698D02*
X479324Y-190174D01*
X479324Y-190174D02*
X498372Y-180650D01*
X498372Y-180650D02*
X517420Y-180650D01*
X584086Y-313984D02*
X584086Y-180650D01*
X584086Y-113984D02*
X574563Y-123508D01*
X574563Y-123508D02*
X584086Y-133031D01*
X584086Y-133031D02*
X593610Y-123508D01*
X593610Y-123508D02*
X584086Y-113984D01*
X584086Y-113984D02*
X584086Y-133031D01*
X707896Y-313984D02*
X688848Y-304460D01*
X688848Y-304460D02*
X679324Y-285412D01*
X679324Y-285412D02*
X679324Y-113984D01*
X812658Y-313984D02*
X793610Y-304460D01*
X793610Y-304460D02*
X784086Y-285412D01*
X784086Y-285412D02*
X784086Y-113984D01*
X1041229Y-313984D02*
X1041229Y-113984D01*
X1041229Y-113984D02*
X1107896Y-256841D01*
X1107896Y-256841D02*
X1174563Y-113984D01*
X1174563Y-113984D02*
X1174563Y-313984D01*
X1355515Y-313984D02*
X1355515Y-209222D01*
X1355515Y-209222D02*
X1345991Y-190174D01*
X1345991Y-190174D02*
X1326944Y-180650D01*
X1326944Y-180650D02*
X1288848Y-180650D01*
X1288848Y-180650D02*
X1269801Y-190174D01*
X1355515Y-304460D02*
X1336467Y-313984D01*
X1336467Y-313984D02*
X1288848Y-313984D01*
X1288848Y-313984D02*
X1269801Y-304460D01*
X1269801Y-304460D02*
X1260277Y-285412D01*
X1260277Y-285412D02*
X1260277Y-266365D01*
X1260277Y-266365D02*
X1269801Y-247317D01*
X1269801Y-247317D02*
X1288848Y-237793D01*
X1288848Y-237793D02*
X1336467Y-237793D01*
X1336467Y-237793D02*
X1355515Y-228269D01*
X1450753Y-180650D02*
X1450753Y-380650D01*
X1450753Y-190174D02*
X1469801Y-180650D01*
X1469801Y-180650D02*
X1507896Y-180650D01*
X1507896Y-180650D02*
X1526943Y-190174D01*
X1526943Y-190174D02*
X1536467Y-199698D01*
X1536467Y-199698D02*
X1545991Y-218746D01*
X1545991Y-218746D02*
X1545991Y-275889D01*
X1545991Y-275889D02*
X1536467Y-294936D01*
X1536467Y-294936D02*
X1526943Y-304460D01*
X1526943Y-304460D02*
X1507896Y-313984D01*
X1507896Y-313984D02*
X1469801Y-313984D01*
X1469801Y-313984D02*
X1450753Y-304460D01*
X1631705Y-294936D02*
X1641229Y-304460D01*
X1641229Y-304460D02*
X1631705Y-313984D01*
X1631705Y-313984D02*
X1622182Y-304460D01*
X1622182Y-304460D02*
X1631705Y-294936D01*
X1631705Y-294936D02*
X1631705Y-313984D01*
X1631705Y-190174D02*
X1641229Y-199698D01*
X1641229Y-199698D02*
X1631705Y-209222D01*
X1631705Y-209222D02*
X1622182Y-199698D01*
X1622182Y-199698D02*
X1631705Y-190174D01*
X1631705Y-190174D02*
X1631705Y-209222D01*
D12*
X-40500Y-622500D02*
X-500Y-662500D01*
X-500Y-622500D02*
X-40500Y-662500D01*
D11*
X298372Y-533984D02*
X317420Y-533984D01*
X317420Y-533984D02*
X336467Y-543508D01*
X336467Y-543508D02*
X345991Y-553031D01*
X345991Y-553031D02*
X355515Y-572079D01*
X355515Y-572079D02*
X365039Y-610174D01*
X365039Y-610174D02*
X365039Y-657793D01*
X365039Y-657793D02*
X355515Y-695889D01*
X355515Y-695889D02*
X345991Y-714936D01*
X345991Y-714936D02*
X336467Y-724460D01*
X336467Y-724460D02*
X317420Y-733984D01*
X317420Y-733984D02*
X298372Y-733984D01*
X298372Y-733984D02*
X279324Y-724460D01*
X279324Y-724460D02*
X269801Y-714936D01*
X269801Y-714936D02*
X260277Y-695889D01*
X260277Y-695889D02*
X250753Y-657793D01*
X250753Y-657793D02*
X250753Y-610174D01*
X250753Y-610174D02*
X260277Y-572079D01*
X260277Y-572079D02*
X269801Y-553031D01*
X269801Y-553031D02*
X279324Y-543508D01*
X279324Y-543508D02*
X298372Y-533984D01*
X450753Y-714936D02*
X460277Y-724460D01*
X460277Y-724460D02*
X450753Y-733984D01*
X450753Y-733984D02*
X441229Y-724460D01*
X441229Y-724460D02*
X450753Y-714936D01*
X450753Y-714936D02*
X450753Y-733984D01*
X631705Y-600650D02*
X631705Y-733984D01*
X584086Y-524460D02*
X536467Y-667317D01*
X536467Y-667317D02*
X660277Y-667317D01*
X774562Y-533984D02*
X793610Y-533984D01*
X793610Y-533984D02*
X812658Y-543508D01*
X812658Y-543508D02*
X822182Y-553031D01*
X822182Y-553031D02*
X831705Y-572079D01*
X831705Y-572079D02*
X841229Y-610174D01*
X841229Y-610174D02*
X841229Y-657793D01*
X841229Y-657793D02*
X831705Y-695889D01*
X831705Y-695889D02*
X822182Y-714936D01*
X822182Y-714936D02*
X812658Y-724460D01*
X812658Y-724460D02*
X793610Y-733984D01*
X793610Y-733984D02*
X774562Y-733984D01*
X774562Y-733984D02*
X755515Y-724460D01*
X755515Y-724460D02*
X745991Y-714936D01*
X745991Y-714936D02*
X736467Y-695889D01*
X736467Y-695889D02*
X726943Y-657793D01*
X726943Y-657793D02*
X726943Y-610174D01*
X726943Y-610174D02*
X736467Y-572079D01*
X736467Y-572079D02*
X745991Y-553031D01*
X745991Y-553031D02*
X755515Y-543508D01*
X755515Y-543508D02*
X774562Y-533984D01*
X965039Y-533984D02*
X984086Y-533984D01*
X984086Y-533984D02*
X1003134Y-543508D01*
X1003134Y-543508D02*
X1012658Y-553031D01*
X1012658Y-553031D02*
X1022182Y-572079D01*
X1022182Y-572079D02*
X1031705Y-610174D01*
X1031705Y-610174D02*
X1031705Y-657793D01*
X1031705Y-657793D02*
X1022182Y-695889D01*
X1022182Y-695889D02*
X1012658Y-714936D01*
X1012658Y-714936D02*
X1003134Y-724460D01*
X1003134Y-724460D02*
X984086Y-733984D01*
X984086Y-733984D02*
X965039Y-733984D01*
X965039Y-733984D02*
X945991Y-724460D01*
X945991Y-724460D02*
X936467Y-714936D01*
X936467Y-714936D02*
X926943Y-695889D01*
X926943Y-695889D02*
X917420Y-657793D01*
X917420Y-657793D02*
X917420Y-610174D01*
X917420Y-610174D02*
X926943Y-572079D01*
X926943Y-572079D02*
X936467Y-553031D01*
X936467Y-553031D02*
X945991Y-543508D01*
X945991Y-543508D02*
X965039Y-533984D01*
X1117420Y-733984D02*
X1117420Y-600650D01*
X1117420Y-619698D02*
X1126944Y-610174D01*
X1126944Y-610174D02*
X1145991Y-600650D01*
X1145991Y-600650D02*
X1174563Y-600650D01*
X1174563Y-600650D02*
X1193610Y-610174D01*
X1193610Y-610174D02*
X1203134Y-629222D01*
X1203134Y-629222D02*
X1203134Y-733984D01*
X1203134Y-629222D02*
X1212658Y-610174D01*
X1212658Y-610174D02*
X1231705Y-600650D01*
X1231705Y-600650D02*
X1260277Y-600650D01*
X1260277Y-600650D02*
X1279325Y-610174D01*
X1279325Y-610174D02*
X1288848Y-629222D01*
X1288848Y-629222D02*
X1288848Y-733984D01*
X1384086Y-733984D02*
X1384086Y-600650D01*
X1384086Y-619698D02*
X1393610Y-610174D01*
X1393610Y-610174D02*
X1412658Y-600650D01*
X1412658Y-600650D02*
X1441229Y-600650D01*
X1441229Y-600650D02*
X1460277Y-610174D01*
X1460277Y-610174D02*
X1469801Y-629222D01*
X1469801Y-629222D02*
X1469801Y-733984D01*
X1469801Y-629222D02*
X1479324Y-610174D01*
X1479324Y-610174D02*
X1498372Y-600650D01*
X1498372Y-600650D02*
X1526943Y-600650D01*
X1526943Y-600650D02*
X1545991Y-610174D01*
X1545991Y-610174D02*
X1555515Y-629222D01*
X1555515Y-629222D02*
X1555515Y-733984D01*
X1945991Y-524460D02*
X1774563Y-781603D01*
X2203134Y-533984D02*
X2222182Y-533984D01*
X2222182Y-533984D02*
X2241229Y-543508D01*
X2241229Y-543508D02*
X2250753Y-553031D01*
X2250753Y-553031D02*
X2260277Y-572079D01*
X2260277Y-572079D02*
X2269801Y-610174D01*
X2269801Y-610174D02*
X2269801Y-657793D01*
X2269801Y-657793D02*
X2260277Y-695889D01*
X2260277Y-695889D02*
X2250753Y-714936D01*
X2250753Y-714936D02*
X2241229Y-724460D01*
X2241229Y-724460D02*
X2222182Y-733984D01*
X2222182Y-733984D02*
X2203134Y-733984D01*
X2203134Y-733984D02*
X2184087Y-724460D01*
X2184087Y-724460D02*
X2174563Y-714936D01*
X2174563Y-714936D02*
X2165039Y-695889D01*
X2165039Y-695889D02*
X2155515Y-657793D01*
X2155515Y-657793D02*
X2155515Y-610174D01*
X2155515Y-610174D02*
X2165039Y-572079D01*
X2165039Y-572079D02*
X2174563Y-553031D01*
X2174563Y-553031D02*
X2184087Y-543508D01*
X2184087Y-543508D02*
X2203134Y-533984D01*
X2355515Y-714936D02*
X2365039Y-724460D01*
X2365039Y-724460D02*
X2355515Y-733984D01*
X2355515Y-733984D02*
X2345991Y-724460D01*
X2345991Y-724460D02*
X2355515Y-714936D01*
X2355515Y-714936D02*
X2355515Y-733984D01*
X2488848Y-533984D02*
X2507896Y-533984D01*
X2507896Y-533984D02*
X2526944Y-543508D01*
X2526944Y-543508D02*
X2536468Y-553031D01*
X2536468Y-553031D02*
X2545991Y-572079D01*
X2545991Y-572079D02*
X2555515Y-610174D01*
X2555515Y-610174D02*
X2555515Y-657793D01*
X2555515Y-657793D02*
X2545991Y-695889D01*
X2545991Y-695889D02*
X2536468Y-714936D01*
X2536468Y-714936D02*
X2526944Y-724460D01*
X2526944Y-724460D02*
X2507896Y-733984D01*
X2507896Y-733984D02*
X2488848Y-733984D01*
X2488848Y-733984D02*
X2469801Y-724460D01*
X2469801Y-724460D02*
X2460277Y-714936D01*
X2460277Y-714936D02*
X2450753Y-695889D01*
X2450753Y-695889D02*
X2441229Y-657793D01*
X2441229Y-657793D02*
X2441229Y-610174D01*
X2441229Y-610174D02*
X2450753Y-572079D01*
X2450753Y-572079D02*
X2460277Y-553031D01*
X2460277Y-553031D02*
X2469801Y-543508D01*
X2469801Y-543508D02*
X2488848Y-533984D01*
X2745991Y-733984D02*
X2631706Y-733984D01*
X2688848Y-733984D02*
X2688848Y-533984D01*
X2688848Y-533984D02*
X2669801Y-562555D01*
X2669801Y-562555D02*
X2650753Y-581603D01*
X2650753Y-581603D02*
X2631706Y-591127D01*
X2926944Y-533984D02*
X2831706Y-533984D01*
X2831706Y-533984D02*
X2822182Y-629222D01*
X2822182Y-629222D02*
X2831706Y-619698D01*
X2831706Y-619698D02*
X2850753Y-610174D01*
X2850753Y-610174D02*
X2898372Y-610174D01*
X2898372Y-610174D02*
X2917420Y-619698D01*
X2917420Y-619698D02*
X2926944Y-629222D01*
X2926944Y-629222D02*
X2936467Y-648270D01*
X2936467Y-648270D02*
X2936467Y-695889D01*
X2936467Y-695889D02*
X2926944Y-714936D01*
X2926944Y-714936D02*
X2917420Y-724460D01*
X2917420Y-724460D02*
X2898372Y-733984D01*
X2898372Y-733984D02*
X2850753Y-733984D01*
X2850753Y-733984D02*
X2831706Y-724460D01*
X2831706Y-724460D02*
X2822182Y-714936D01*
X3003134Y-533984D02*
X3136467Y-533984D01*
X3136467Y-533984D02*
X3050753Y-733984D01*
X3203134Y-533984D02*
X3203134Y-572079D01*
X3279325Y-533984D02*
X3279325Y-572079D01*
X3574563Y-810174D02*
X3565039Y-800650D01*
X3565039Y-800650D02*
X3545991Y-772079D01*
X3545991Y-772079D02*
X3536468Y-753031D01*
X3536468Y-753031D02*
X3526944Y-724460D01*
X3526944Y-724460D02*
X3517420Y-676841D01*
X3517420Y-676841D02*
X3517420Y-638746D01*
X3517420Y-638746D02*
X3526944Y-591127D01*
X3526944Y-591127D02*
X3536468Y-562555D01*
X3536468Y-562555D02*
X3545991Y-543508D01*
X3545991Y-543508D02*
X3565039Y-514936D01*
X3565039Y-514936D02*
X3574563Y-505412D01*
X3755515Y-733984D02*
X3641229Y-733984D01*
X3698372Y-733984D02*
X3698372Y-533984D01*
X3698372Y-533984D02*
X3679325Y-562555D01*
X3679325Y-562555D02*
X3660277Y-581603D01*
X3660277Y-581603D02*
X3641229Y-591127D01*
X3850753Y-733984D02*
X3888848Y-733984D01*
X3888848Y-733984D02*
X3907896Y-724460D01*
X3907896Y-724460D02*
X3917420Y-714936D01*
X3917420Y-714936D02*
X3936468Y-686365D01*
X3936468Y-686365D02*
X3945991Y-648270D01*
X3945991Y-648270D02*
X3945991Y-572079D01*
X3945991Y-572079D02*
X3936468Y-553031D01*
X3936468Y-553031D02*
X3926944Y-543508D01*
X3926944Y-543508D02*
X3907896Y-533984D01*
X3907896Y-533984D02*
X3869801Y-533984D01*
X3869801Y-533984D02*
X3850753Y-543508D01*
X3850753Y-543508D02*
X3841229Y-553031D01*
X3841229Y-553031D02*
X3831706Y-572079D01*
X3831706Y-572079D02*
X3831706Y-619698D01*
X3831706Y-619698D02*
X3841229Y-638746D01*
X3841229Y-638746D02*
X3850753Y-648270D01*
X3850753Y-648270D02*
X3869801Y-657793D01*
X3869801Y-657793D02*
X3907896Y-657793D01*
X3907896Y-657793D02*
X3926944Y-648270D01*
X3926944Y-648270D02*
X3936468Y-638746D01*
X3936468Y-638746D02*
X3945991Y-619698D01*
X4126944Y-533984D02*
X4031706Y-533984D01*
X4031706Y-533984D02*
X4022182Y-629222D01*
X4022182Y-629222D02*
X4031706Y-619698D01*
X4031706Y-619698D02*
X4050753Y-610174D01*
X4050753Y-610174D02*
X4098372Y-610174D01*
X4098372Y-610174D02*
X4117420Y-619698D01*
X4117420Y-619698D02*
X4126944Y-629222D01*
X4126944Y-629222D02*
X4136468Y-648270D01*
X4136468Y-648270D02*
X4136468Y-695889D01*
X4136468Y-695889D02*
X4126944Y-714936D01*
X4126944Y-714936D02*
X4117420Y-724460D01*
X4117420Y-724460D02*
X4098372Y-733984D01*
X4098372Y-733984D02*
X4050753Y-733984D01*
X4050753Y-733984D02*
X4031706Y-724460D01*
X4031706Y-724460D02*
X4022182Y-714936D01*
X4374563Y-733984D02*
X4374563Y-533984D01*
X4460277Y-733984D02*
X4460277Y-629222D01*
X4460277Y-629222D02*
X4450753Y-610174D01*
X4450753Y-610174D02*
X4431706Y-600650D01*
X4431706Y-600650D02*
X4403134Y-600650D01*
X4403134Y-600650D02*
X4384087Y-610174D01*
X4384087Y-610174D02*
X4374563Y-619698D01*
X4584087Y-733984D02*
X4565039Y-724460D01*
X4565039Y-724460D02*
X4555515Y-714936D01*
X4555515Y-714936D02*
X4545992Y-695889D01*
X4545992Y-695889D02*
X4545992Y-638746D01*
X4545992Y-638746D02*
X4555515Y-619698D01*
X4555515Y-619698D02*
X4565039Y-610174D01*
X4565039Y-610174D02*
X4584087Y-600650D01*
X4584087Y-600650D02*
X4612658Y-600650D01*
X4612658Y-600650D02*
X4631706Y-610174D01*
X4631706Y-610174D02*
X4641230Y-619698D01*
X4641230Y-619698D02*
X4650753Y-638746D01*
X4650753Y-638746D02*
X4650753Y-695889D01*
X4650753Y-695889D02*
X4641230Y-714936D01*
X4641230Y-714936D02*
X4631706Y-724460D01*
X4631706Y-724460D02*
X4612658Y-733984D01*
X4612658Y-733984D02*
X4584087Y-733984D01*
X4765039Y-733984D02*
X4745992Y-724460D01*
X4745992Y-724460D02*
X4736468Y-705412D01*
X4736468Y-705412D02*
X4736468Y-533984D01*
X4917420Y-724460D02*
X4898373Y-733984D01*
X4898373Y-733984D02*
X4860277Y-733984D01*
X4860277Y-733984D02*
X4841230Y-724460D01*
X4841230Y-724460D02*
X4831706Y-705412D01*
X4831706Y-705412D02*
X4831706Y-629222D01*
X4831706Y-629222D02*
X4841230Y-610174D01*
X4841230Y-610174D02*
X4860277Y-600650D01*
X4860277Y-600650D02*
X4898373Y-600650D01*
X4898373Y-600650D02*
X4917420Y-610174D01*
X4917420Y-610174D02*
X4926944Y-629222D01*
X4926944Y-629222D02*
X4926944Y-648270D01*
X4926944Y-648270D02*
X4831706Y-667317D01*
X5003134Y-724460D02*
X5022182Y-733984D01*
X5022182Y-733984D02*
X5060277Y-733984D01*
X5060277Y-733984D02*
X5079325Y-724460D01*
X5079325Y-724460D02*
X5088849Y-705412D01*
X5088849Y-705412D02*
X5088849Y-695889D01*
X5088849Y-695889D02*
X5079325Y-676841D01*
X5079325Y-676841D02*
X5060277Y-667317D01*
X5060277Y-667317D02*
X5031706Y-667317D01*
X5031706Y-667317D02*
X5012658Y-657793D01*
X5012658Y-657793D02*
X5003134Y-638746D01*
X5003134Y-638746D02*
X5003134Y-629222D01*
X5003134Y-629222D02*
X5012658Y-610174D01*
X5012658Y-610174D02*
X5031706Y-600650D01*
X5031706Y-600650D02*
X5060277Y-600650D01*
X5060277Y-600650D02*
X5079325Y-610174D01*
X5155515Y-810174D02*
X5165039Y-800650D01*
X5165039Y-800650D02*
X5184087Y-772079D01*
X5184087Y-772079D02*
X5193611Y-753031D01*
X5193611Y-753031D02*
X5203134Y-724460D01*
X5203134Y-724460D02*
X5212658Y-676841D01*
X5212658Y-676841D02*
X5212658Y-638746D01*
X5212658Y-638746D02*
X5203134Y-591127D01*
X5203134Y-591127D02*
X5193611Y-562555D01*
X5193611Y-562555D02*
X5184087Y-543508D01*
X5184087Y-543508D02*
X5165039Y-514936D01*
X5165039Y-514936D02*
X5155515Y-505412D01*
D12*
X-500Y-906500D02*
G75*
G02*
X-89500Y-906500I-44500J0D01*
G01*
X-89500Y-906500D02*
G75*
G02*
X-500Y-906500I44500J0D01*
G01*
D11*
X298372Y-797984D02*
X317420Y-797984D01*
X317420Y-797984D02*
X336467Y-807508D01*
X336467Y-807508D02*
X345991Y-817031D01*
X345991Y-817031D02*
X355515Y-836079D01*
X355515Y-836079D02*
X365039Y-874174D01*
X365039Y-874174D02*
X365039Y-921793D01*
X365039Y-921793D02*
X355515Y-959888D01*
X355515Y-959888D02*
X345991Y-978936D01*
X345991Y-978936D02*
X336467Y-988460D01*
X336467Y-988460D02*
X317420Y-997984D01*
X317420Y-997984D02*
X298372Y-997984D01*
X298372Y-997984D02*
X279324Y-988460D01*
X279324Y-988460D02*
X269801Y-978936D01*
X269801Y-978936D02*
X260277Y-959888D01*
X260277Y-959888D02*
X250753Y-921793D01*
X250753Y-921793D02*
X250753Y-874174D01*
X250753Y-874174D02*
X260277Y-836079D01*
X260277Y-836079D02*
X269801Y-817031D01*
X269801Y-817031D02*
X279324Y-807508D01*
X279324Y-807508D02*
X298372Y-797984D01*
X450753Y-978936D02*
X460277Y-988460D01*
X460277Y-988460D02*
X450753Y-997984D01*
X450753Y-997984D02*
X441229Y-988460D01*
X441229Y-988460D02*
X450753Y-978936D01*
X450753Y-978936D02*
X450753Y-997984D01*
X574563Y-883698D02*
X555515Y-874174D01*
X555515Y-874174D02*
X545991Y-864650D01*
X545991Y-864650D02*
X536467Y-845603D01*
X536467Y-845603D02*
X536467Y-836079D01*
X536467Y-836079D02*
X545991Y-817031D01*
X545991Y-817031D02*
X555515Y-807508D01*
X555515Y-807508D02*
X574563Y-797984D01*
X574563Y-797984D02*
X612658Y-797984D01*
X612658Y-797984D02*
X631705Y-807508D01*
X631705Y-807508D02*
X641229Y-817031D01*
X641229Y-817031D02*
X650753Y-836079D01*
X650753Y-836079D02*
X650753Y-845603D01*
X650753Y-845603D02*
X641229Y-864650D01*
X641229Y-864650D02*
X631705Y-874174D01*
X631705Y-874174D02*
X612658Y-883698D01*
X612658Y-883698D02*
X574563Y-883698D01*
X574563Y-883698D02*
X555515Y-893222D01*
X555515Y-893222D02*
X545991Y-902746D01*
X545991Y-902746D02*
X536467Y-921793D01*
X536467Y-921793D02*
X536467Y-959888D01*
X536467Y-959888D02*
X545991Y-978936D01*
X545991Y-978936D02*
X555515Y-988460D01*
X555515Y-988460D02*
X574563Y-997984D01*
X574563Y-997984D02*
X612658Y-997984D01*
X612658Y-997984D02*
X631705Y-988460D01*
X631705Y-988460D02*
X641229Y-978936D01*
X641229Y-978936D02*
X650753Y-959888D01*
X650753Y-959888D02*
X650753Y-921793D01*
X650753Y-921793D02*
X641229Y-902746D01*
X641229Y-902746D02*
X631705Y-893222D01*
X631705Y-893222D02*
X612658Y-883698D01*
X745991Y-997984D02*
X784086Y-997984D01*
X784086Y-997984D02*
X803134Y-988460D01*
X803134Y-988460D02*
X812658Y-978936D01*
X812658Y-978936D02*
X831705Y-950365D01*
X831705Y-950365D02*
X841229Y-912269D01*
X841229Y-912269D02*
X841229Y-836079D01*
X841229Y-836079D02*
X831705Y-817031D01*
X831705Y-817031D02*
X822182Y-807508D01*
X822182Y-807508D02*
X803134Y-797984D01*
X803134Y-797984D02*
X765039Y-797984D01*
X765039Y-797984D02*
X745991Y-807508D01*
X745991Y-807508D02*
X736467Y-817031D01*
X736467Y-817031D02*
X726943Y-836079D01*
X726943Y-836079D02*
X726943Y-883698D01*
X726943Y-883698D02*
X736467Y-902746D01*
X736467Y-902746D02*
X745991Y-912269D01*
X745991Y-912269D02*
X765039Y-921793D01*
X765039Y-921793D02*
X803134Y-921793D01*
X803134Y-921793D02*
X822182Y-912269D01*
X822182Y-912269D02*
X831705Y-902746D01*
X831705Y-902746D02*
X841229Y-883698D01*
X965039Y-797984D02*
X984086Y-797984D01*
X984086Y-797984D02*
X1003134Y-807508D01*
X1003134Y-807508D02*
X1012658Y-817031D01*
X1012658Y-817031D02*
X1022182Y-836079D01*
X1022182Y-836079D02*
X1031705Y-874174D01*
X1031705Y-874174D02*
X1031705Y-921793D01*
X1031705Y-921793D02*
X1022182Y-959888D01*
X1022182Y-959888D02*
X1012658Y-978936D01*
X1012658Y-978936D02*
X1003134Y-988460D01*
X1003134Y-988460D02*
X984086Y-997984D01*
X984086Y-997984D02*
X965039Y-997984D01*
X965039Y-997984D02*
X945991Y-988460D01*
X945991Y-988460D02*
X936467Y-978936D01*
X936467Y-978936D02*
X926943Y-959888D01*
X926943Y-959888D02*
X917420Y-921793D01*
X917420Y-921793D02*
X917420Y-874174D01*
X917420Y-874174D02*
X926943Y-836079D01*
X926943Y-836079D02*
X936467Y-817031D01*
X936467Y-817031D02*
X945991Y-807508D01*
X945991Y-807508D02*
X965039Y-797984D01*
X1117420Y-997984D02*
X1117420Y-864650D01*
X1117420Y-883698D02*
X1126944Y-874174D01*
X1126944Y-874174D02*
X1145991Y-864650D01*
X1145991Y-864650D02*
X1174563Y-864650D01*
X1174563Y-864650D02*
X1193610Y-874174D01*
X1193610Y-874174D02*
X1203134Y-893222D01*
X1203134Y-893222D02*
X1203134Y-997984D01*
X1203134Y-893222D02*
X1212658Y-874174D01*
X1212658Y-874174D02*
X1231705Y-864650D01*
X1231705Y-864650D02*
X1260277Y-864650D01*
X1260277Y-864650D02*
X1279325Y-874174D01*
X1279325Y-874174D02*
X1288848Y-893222D01*
X1288848Y-893222D02*
X1288848Y-997984D01*
X1384086Y-997984D02*
X1384086Y-864650D01*
X1384086Y-883698D02*
X1393610Y-874174D01*
X1393610Y-874174D02*
X1412658Y-864650D01*
X1412658Y-864650D02*
X1441229Y-864650D01*
X1441229Y-864650D02*
X1460277Y-874174D01*
X1460277Y-874174D02*
X1469801Y-893222D01*
X1469801Y-893222D02*
X1469801Y-997984D01*
X1469801Y-893222D02*
X1479324Y-874174D01*
X1479324Y-874174D02*
X1498372Y-864650D01*
X1498372Y-864650D02*
X1526943Y-864650D01*
X1526943Y-864650D02*
X1545991Y-874174D01*
X1545991Y-874174D02*
X1555515Y-893222D01*
X1555515Y-893222D02*
X1555515Y-997984D01*
X1945991Y-788460D02*
X1774563Y-1045603D01*
X2203134Y-797984D02*
X2222182Y-797984D01*
X2222182Y-797984D02*
X2241229Y-807508D01*
X2241229Y-807508D02*
X2250753Y-817031D01*
X2250753Y-817031D02*
X2260277Y-836079D01*
X2260277Y-836079D02*
X2269801Y-874174D01*
X2269801Y-874174D02*
X2269801Y-921793D01*
X2269801Y-921793D02*
X2260277Y-959888D01*
X2260277Y-959888D02*
X2250753Y-978936D01*
X2250753Y-978936D02*
X2241229Y-988460D01*
X2241229Y-988460D02*
X2222182Y-997984D01*
X2222182Y-997984D02*
X2203134Y-997984D01*
X2203134Y-997984D02*
X2184087Y-988460D01*
X2184087Y-988460D02*
X2174563Y-978936D01*
X2174563Y-978936D02*
X2165039Y-959888D01*
X2165039Y-959888D02*
X2155515Y-921793D01*
X2155515Y-921793D02*
X2155515Y-874174D01*
X2155515Y-874174D02*
X2165039Y-836079D01*
X2165039Y-836079D02*
X2174563Y-817031D01*
X2174563Y-817031D02*
X2184087Y-807508D01*
X2184087Y-807508D02*
X2203134Y-797984D01*
X2355515Y-978936D02*
X2365039Y-988460D01*
X2365039Y-988460D02*
X2355515Y-997984D01*
X2355515Y-997984D02*
X2345991Y-988460D01*
X2345991Y-988460D02*
X2355515Y-978936D01*
X2355515Y-978936D02*
X2355515Y-997984D01*
X2488848Y-797984D02*
X2507896Y-797984D01*
X2507896Y-797984D02*
X2526944Y-807508D01*
X2526944Y-807508D02*
X2536468Y-817031D01*
X2536468Y-817031D02*
X2545991Y-836079D01*
X2545991Y-836079D02*
X2555515Y-874174D01*
X2555515Y-874174D02*
X2555515Y-921793D01*
X2555515Y-921793D02*
X2545991Y-959888D01*
X2545991Y-959888D02*
X2536468Y-978936D01*
X2536468Y-978936D02*
X2526944Y-988460D01*
X2526944Y-988460D02*
X2507896Y-997984D01*
X2507896Y-997984D02*
X2488848Y-997984D01*
X2488848Y-997984D02*
X2469801Y-988460D01*
X2469801Y-988460D02*
X2460277Y-978936D01*
X2460277Y-978936D02*
X2450753Y-959888D01*
X2450753Y-959888D02*
X2441229Y-921793D01*
X2441229Y-921793D02*
X2441229Y-874174D01*
X2441229Y-874174D02*
X2450753Y-836079D01*
X2450753Y-836079D02*
X2460277Y-817031D01*
X2460277Y-817031D02*
X2469801Y-807508D01*
X2469801Y-807508D02*
X2488848Y-797984D01*
X2622182Y-797984D02*
X2745991Y-797984D01*
X2745991Y-797984D02*
X2679325Y-874174D01*
X2679325Y-874174D02*
X2707896Y-874174D01*
X2707896Y-874174D02*
X2726944Y-883698D01*
X2726944Y-883698D02*
X2736468Y-893222D01*
X2736468Y-893222D02*
X2745991Y-912269D01*
X2745991Y-912269D02*
X2745991Y-959888D01*
X2745991Y-959888D02*
X2736468Y-978936D01*
X2736468Y-978936D02*
X2726944Y-988460D01*
X2726944Y-988460D02*
X2707896Y-997984D01*
X2707896Y-997984D02*
X2650753Y-997984D01*
X2650753Y-997984D02*
X2631706Y-988460D01*
X2631706Y-988460D02*
X2622182Y-978936D01*
X2926944Y-797984D02*
X2831706Y-797984D01*
X2831706Y-797984D02*
X2822182Y-893222D01*
X2822182Y-893222D02*
X2831706Y-883698D01*
X2831706Y-883698D02*
X2850753Y-874174D01*
X2850753Y-874174D02*
X2898372Y-874174D01*
X2898372Y-874174D02*
X2917420Y-883698D01*
X2917420Y-883698D02*
X2926944Y-893222D01*
X2926944Y-893222D02*
X2936467Y-912269D01*
X2936467Y-912269D02*
X2936467Y-959888D01*
X2936467Y-959888D02*
X2926944Y-978936D01*
X2926944Y-978936D02*
X2917420Y-988460D01*
X2917420Y-988460D02*
X2898372Y-997984D01*
X2898372Y-997984D02*
X2850753Y-997984D01*
X2850753Y-997984D02*
X2831706Y-988460D01*
X2831706Y-988460D02*
X2822182Y-978936D01*
X3060277Y-797984D02*
X3079325Y-797984D01*
X3079325Y-797984D02*
X3098372Y-807508D01*
X3098372Y-807508D02*
X3107896Y-817031D01*
X3107896Y-817031D02*
X3117420Y-836079D01*
X3117420Y-836079D02*
X3126944Y-874174D01*
X3126944Y-874174D02*
X3126944Y-921793D01*
X3126944Y-921793D02*
X3117420Y-959888D01*
X3117420Y-959888D02*
X3107896Y-978936D01*
X3107896Y-978936D02*
X3098372Y-988460D01*
X3098372Y-988460D02*
X3079325Y-997984D01*
X3079325Y-997984D02*
X3060277Y-997984D01*
X3060277Y-997984D02*
X3041229Y-988460D01*
X3041229Y-988460D02*
X3031706Y-978936D01*
X3031706Y-978936D02*
X3022182Y-959888D01*
X3022182Y-959888D02*
X3012658Y-921793D01*
X3012658Y-921793D02*
X3012658Y-874174D01*
X3012658Y-874174D02*
X3022182Y-836079D01*
X3022182Y-836079D02*
X3031706Y-817031D01*
X3031706Y-817031D02*
X3041229Y-807508D01*
X3041229Y-807508D02*
X3060277Y-797984D01*
X3203134Y-797984D02*
X3203134Y-836079D01*
X3279325Y-797984D02*
X3279325Y-836079D01*
X3574563Y-1074174D02*
X3565039Y-1064650D01*
X3565039Y-1064650D02*
X3545991Y-1036079D01*
X3545991Y-1036079D02*
X3536468Y-1017031D01*
X3536468Y-1017031D02*
X3526944Y-988460D01*
X3526944Y-988460D02*
X3517420Y-940841D01*
X3517420Y-940841D02*
X3517420Y-902746D01*
X3517420Y-902746D02*
X3526944Y-855127D01*
X3526944Y-855127D02*
X3536468Y-826555D01*
X3536468Y-826555D02*
X3545991Y-807508D01*
X3545991Y-807508D02*
X3565039Y-778936D01*
X3565039Y-778936D02*
X3574563Y-769412D01*
X3736468Y-864650D02*
X3736468Y-997984D01*
X3688848Y-788460D02*
X3641229Y-931317D01*
X3641229Y-931317D02*
X3765039Y-931317D01*
X3993610Y-997984D02*
X3993610Y-797984D01*
X4079325Y-997984D02*
X4079325Y-893222D01*
X4079325Y-893222D02*
X4069801Y-874174D01*
X4069801Y-874174D02*
X4050753Y-864650D01*
X4050753Y-864650D02*
X4022182Y-864650D01*
X4022182Y-864650D02*
X4003134Y-874174D01*
X4003134Y-874174D02*
X3993610Y-883698D01*
X4203134Y-997984D02*
X4184087Y-988460D01*
X4184087Y-988460D02*
X4174563Y-978936D01*
X4174563Y-978936D02*
X4165039Y-959888D01*
X4165039Y-959888D02*
X4165039Y-902746D01*
X4165039Y-902746D02*
X4174563Y-883698D01*
X4174563Y-883698D02*
X4184087Y-874174D01*
X4184087Y-874174D02*
X4203134Y-864650D01*
X4203134Y-864650D02*
X4231706Y-864650D01*
X4231706Y-864650D02*
X4250753Y-874174D01*
X4250753Y-874174D02*
X4260277Y-883698D01*
X4260277Y-883698D02*
X4269801Y-902746D01*
X4269801Y-902746D02*
X4269801Y-959888D01*
X4269801Y-959888D02*
X4260277Y-978936D01*
X4260277Y-978936D02*
X4250753Y-988460D01*
X4250753Y-988460D02*
X4231706Y-997984D01*
X4231706Y-997984D02*
X4203134Y-997984D01*
X4384087Y-997984D02*
X4365039Y-988460D01*
X4365039Y-988460D02*
X4355515Y-969412D01*
X4355515Y-969412D02*
X4355515Y-797984D01*
X4536468Y-988460D02*
X4517420Y-997984D01*
X4517420Y-997984D02*
X4479325Y-997984D01*
X4479325Y-997984D02*
X4460277Y-988460D01*
X4460277Y-988460D02*
X4450753Y-969412D01*
X4450753Y-969412D02*
X4450753Y-893222D01*
X4450753Y-893222D02*
X4460277Y-874174D01*
X4460277Y-874174D02*
X4479325Y-864650D01*
X4479325Y-864650D02*
X4517420Y-864650D01*
X4517420Y-864650D02*
X4536468Y-874174D01*
X4536468Y-874174D02*
X4545992Y-893222D01*
X4545992Y-893222D02*
X4545992Y-912269D01*
X4545992Y-912269D02*
X4450753Y-931317D01*
X4622182Y-988460D02*
X4641230Y-997984D01*
X4641230Y-997984D02*
X4679325Y-997984D01*
X4679325Y-997984D02*
X4698373Y-988460D01*
X4698373Y-988460D02*
X4707896Y-969412D01*
X4707896Y-969412D02*
X4707896Y-959888D01*
X4707896Y-959888D02*
X4698373Y-940841D01*
X4698373Y-940841D02*
X4679325Y-931317D01*
X4679325Y-931317D02*
X4650753Y-931317D01*
X4650753Y-931317D02*
X4631706Y-921793D01*
X4631706Y-921793D02*
X4622182Y-902746D01*
X4622182Y-902746D02*
X4622182Y-893222D01*
X4622182Y-893222D02*
X4631706Y-874174D01*
X4631706Y-874174D02*
X4650753Y-864650D01*
X4650753Y-864650D02*
X4679325Y-864650D01*
X4679325Y-864650D02*
X4698373Y-874174D01*
X4774563Y-1074174D02*
X4784087Y-1064650D01*
X4784087Y-1064650D02*
X4803134Y-1036079D01*
X4803134Y-1036079D02*
X4812658Y-1017031D01*
X4812658Y-1017031D02*
X4822182Y-988460D01*
X4822182Y-988460D02*
X4831706Y-940841D01*
X4831706Y-940841D02*
X4831706Y-902746D01*
X4831706Y-902746D02*
X4822182Y-855127D01*
X4822182Y-855127D02*
X4812658Y-826555D01*
X4812658Y-826555D02*
X4803134Y-807508D01*
X4803134Y-807508D02*
X4784087Y-778936D01*
X4784087Y-778936D02*
X4774563Y-769412D01*
D12*
X-50500Y-1120500D02*
X-50500Y-1220500D01*
X-100500Y-1170500D02*
X-500Y-1170500D01*
D11*
X365039Y-1261984D02*
X250753Y-1261984D01*
X307896Y-1261984D02*
X307896Y-1061984D01*
X307896Y-1061984D02*
X288848Y-1090555D01*
X288848Y-1090555D02*
X269801Y-1109603D01*
X269801Y-1109603D02*
X250753Y-1119127D01*
X450753Y-1242936D02*
X460277Y-1252460D01*
X460277Y-1252460D02*
X450753Y-1261984D01*
X450753Y-1261984D02*
X441229Y-1252460D01*
X441229Y-1252460D02*
X450753Y-1242936D01*
X450753Y-1242936D02*
X450753Y-1261984D01*
X584086Y-1061984D02*
X603134Y-1061984D01*
X603134Y-1061984D02*
X622182Y-1071508D01*
X622182Y-1071508D02*
X631705Y-1081031D01*
X631705Y-1081031D02*
X641229Y-1100079D01*
X641229Y-1100079D02*
X650753Y-1138174D01*
X650753Y-1138174D02*
X650753Y-1185793D01*
X650753Y-1185793D02*
X641229Y-1223889D01*
X641229Y-1223889D02*
X631705Y-1242936D01*
X631705Y-1242936D02*
X622182Y-1252460D01*
X622182Y-1252460D02*
X603134Y-1261984D01*
X603134Y-1261984D02*
X584086Y-1261984D01*
X584086Y-1261984D02*
X565039Y-1252460D01*
X565039Y-1252460D02*
X555515Y-1242936D01*
X555515Y-1242936D02*
X545991Y-1223889D01*
X545991Y-1223889D02*
X536467Y-1185793D01*
X536467Y-1185793D02*
X536467Y-1138174D01*
X536467Y-1138174D02*
X545991Y-1100079D01*
X545991Y-1100079D02*
X555515Y-1081031D01*
X555515Y-1081031D02*
X565039Y-1071508D01*
X565039Y-1071508D02*
X584086Y-1061984D01*
X774562Y-1061984D02*
X793610Y-1061984D01*
X793610Y-1061984D02*
X812658Y-1071508D01*
X812658Y-1071508D02*
X822182Y-1081031D01*
X822182Y-1081031D02*
X831705Y-1100079D01*
X831705Y-1100079D02*
X841229Y-1138174D01*
X841229Y-1138174D02*
X841229Y-1185793D01*
X841229Y-1185793D02*
X831705Y-1223889D01*
X831705Y-1223889D02*
X822182Y-1242936D01*
X822182Y-1242936D02*
X812658Y-1252460D01*
X812658Y-1252460D02*
X793610Y-1261984D01*
X793610Y-1261984D02*
X774562Y-1261984D01*
X774562Y-1261984D02*
X755515Y-1252460D01*
X755515Y-1252460D02*
X745991Y-1242936D01*
X745991Y-1242936D02*
X736467Y-1223889D01*
X736467Y-1223889D02*
X726943Y-1185793D01*
X726943Y-1185793D02*
X726943Y-1138174D01*
X726943Y-1138174D02*
X736467Y-1100079D01*
X736467Y-1100079D02*
X745991Y-1081031D01*
X745991Y-1081031D02*
X755515Y-1071508D01*
X755515Y-1071508D02*
X774562Y-1061984D01*
X965039Y-1061984D02*
X984086Y-1061984D01*
X984086Y-1061984D02*
X1003134Y-1071508D01*
X1003134Y-1071508D02*
X1012658Y-1081031D01*
X1012658Y-1081031D02*
X1022182Y-1100079D01*
X1022182Y-1100079D02*
X1031705Y-1138174D01*
X1031705Y-1138174D02*
X1031705Y-1185793D01*
X1031705Y-1185793D02*
X1022182Y-1223889D01*
X1022182Y-1223889D02*
X1012658Y-1242936D01*
X1012658Y-1242936D02*
X1003134Y-1252460D01*
X1003134Y-1252460D02*
X984086Y-1261984D01*
X984086Y-1261984D02*
X965039Y-1261984D01*
X965039Y-1261984D02*
X945991Y-1252460D01*
X945991Y-1252460D02*
X936467Y-1242936D01*
X936467Y-1242936D02*
X926943Y-1223889D01*
X926943Y-1223889D02*
X917420Y-1185793D01*
X917420Y-1185793D02*
X917420Y-1138174D01*
X917420Y-1138174D02*
X926943Y-1100079D01*
X926943Y-1100079D02*
X936467Y-1081031D01*
X936467Y-1081031D02*
X945991Y-1071508D01*
X945991Y-1071508D02*
X965039Y-1061984D01*
X1117420Y-1261984D02*
X1117420Y-1128650D01*
X1117420Y-1147698D02*
X1126944Y-1138174D01*
X1126944Y-1138174D02*
X1145991Y-1128650D01*
X1145991Y-1128650D02*
X1174563Y-1128650D01*
X1174563Y-1128650D02*
X1193610Y-1138174D01*
X1193610Y-1138174D02*
X1203134Y-1157222D01*
X1203134Y-1157222D02*
X1203134Y-1261984D01*
X1203134Y-1157222D02*
X1212658Y-1138174D01*
X1212658Y-1138174D02*
X1231705Y-1128650D01*
X1231705Y-1128650D02*
X1260277Y-1128650D01*
X1260277Y-1128650D02*
X1279325Y-1138174D01*
X1279325Y-1138174D02*
X1288848Y-1157222D01*
X1288848Y-1157222D02*
X1288848Y-1261984D01*
X1384086Y-1261984D02*
X1384086Y-1128650D01*
X1384086Y-1147698D02*
X1393610Y-1138174D01*
X1393610Y-1138174D02*
X1412658Y-1128650D01*
X1412658Y-1128650D02*
X1441229Y-1128650D01*
X1441229Y-1128650D02*
X1460277Y-1138174D01*
X1460277Y-1138174D02*
X1469801Y-1157222D01*
X1469801Y-1157222D02*
X1469801Y-1261984D01*
X1469801Y-1157222D02*
X1479324Y-1138174D01*
X1479324Y-1138174D02*
X1498372Y-1128650D01*
X1498372Y-1128650D02*
X1526943Y-1128650D01*
X1526943Y-1128650D02*
X1545991Y-1138174D01*
X1545991Y-1138174D02*
X1555515Y-1157222D01*
X1555515Y-1157222D02*
X1555515Y-1261984D01*
X1945991Y-1052460D02*
X1774563Y-1309603D01*
X2203134Y-1061984D02*
X2222182Y-1061984D01*
X2222182Y-1061984D02*
X2241229Y-1071508D01*
X2241229Y-1071508D02*
X2250753Y-1081031D01*
X2250753Y-1081031D02*
X2260277Y-1100079D01*
X2260277Y-1100079D02*
X2269801Y-1138174D01*
X2269801Y-1138174D02*
X2269801Y-1185793D01*
X2269801Y-1185793D02*
X2260277Y-1223889D01*
X2260277Y-1223889D02*
X2250753Y-1242936D01*
X2250753Y-1242936D02*
X2241229Y-1252460D01*
X2241229Y-1252460D02*
X2222182Y-1261984D01*
X2222182Y-1261984D02*
X2203134Y-1261984D01*
X2203134Y-1261984D02*
X2184087Y-1252460D01*
X2184087Y-1252460D02*
X2174563Y-1242936D01*
X2174563Y-1242936D02*
X2165039Y-1223889D01*
X2165039Y-1223889D02*
X2155515Y-1185793D01*
X2155515Y-1185793D02*
X2155515Y-1138174D01*
X2155515Y-1138174D02*
X2165039Y-1100079D01*
X2165039Y-1100079D02*
X2174563Y-1081031D01*
X2174563Y-1081031D02*
X2184087Y-1071508D01*
X2184087Y-1071508D02*
X2203134Y-1061984D01*
X2355515Y-1242936D02*
X2365039Y-1252460D01*
X2365039Y-1252460D02*
X2355515Y-1261984D01*
X2355515Y-1261984D02*
X2345991Y-1252460D01*
X2345991Y-1252460D02*
X2355515Y-1242936D01*
X2355515Y-1242936D02*
X2355515Y-1261984D01*
X2488848Y-1061984D02*
X2507896Y-1061984D01*
X2507896Y-1061984D02*
X2526944Y-1071508D01*
X2526944Y-1071508D02*
X2536468Y-1081031D01*
X2536468Y-1081031D02*
X2545991Y-1100079D01*
X2545991Y-1100079D02*
X2555515Y-1138174D01*
X2555515Y-1138174D02*
X2555515Y-1185793D01*
X2555515Y-1185793D02*
X2545991Y-1223889D01*
X2545991Y-1223889D02*
X2536468Y-1242936D01*
X2536468Y-1242936D02*
X2526944Y-1252460D01*
X2526944Y-1252460D02*
X2507896Y-1261984D01*
X2507896Y-1261984D02*
X2488848Y-1261984D01*
X2488848Y-1261984D02*
X2469801Y-1252460D01*
X2469801Y-1252460D02*
X2460277Y-1242936D01*
X2460277Y-1242936D02*
X2450753Y-1223889D01*
X2450753Y-1223889D02*
X2441229Y-1185793D01*
X2441229Y-1185793D02*
X2441229Y-1138174D01*
X2441229Y-1138174D02*
X2450753Y-1100079D01*
X2450753Y-1100079D02*
X2460277Y-1081031D01*
X2460277Y-1081031D02*
X2469801Y-1071508D01*
X2469801Y-1071508D02*
X2488848Y-1061984D01*
X2622182Y-1061984D02*
X2745991Y-1061984D01*
X2745991Y-1061984D02*
X2679325Y-1138174D01*
X2679325Y-1138174D02*
X2707896Y-1138174D01*
X2707896Y-1138174D02*
X2726944Y-1147698D01*
X2726944Y-1147698D02*
X2736468Y-1157222D01*
X2736468Y-1157222D02*
X2745991Y-1176270D01*
X2745991Y-1176270D02*
X2745991Y-1223889D01*
X2745991Y-1223889D02*
X2736468Y-1242936D01*
X2736468Y-1242936D02*
X2726944Y-1252460D01*
X2726944Y-1252460D02*
X2707896Y-1261984D01*
X2707896Y-1261984D02*
X2650753Y-1261984D01*
X2650753Y-1261984D02*
X2631706Y-1252460D01*
X2631706Y-1252460D02*
X2622182Y-1242936D01*
X2841229Y-1261984D02*
X2879325Y-1261984D01*
X2879325Y-1261984D02*
X2898372Y-1252460D01*
X2898372Y-1252460D02*
X2907896Y-1242936D01*
X2907896Y-1242936D02*
X2926944Y-1214365D01*
X2926944Y-1214365D02*
X2936467Y-1176270D01*
X2936467Y-1176270D02*
X2936467Y-1100079D01*
X2936467Y-1100079D02*
X2926944Y-1081031D01*
X2926944Y-1081031D02*
X2917420Y-1071508D01*
X2917420Y-1071508D02*
X2898372Y-1061984D01*
X2898372Y-1061984D02*
X2860277Y-1061984D01*
X2860277Y-1061984D02*
X2841229Y-1071508D01*
X2841229Y-1071508D02*
X2831706Y-1081031D01*
X2831706Y-1081031D02*
X2822182Y-1100079D01*
X2822182Y-1100079D02*
X2822182Y-1147698D01*
X2822182Y-1147698D02*
X2831706Y-1166746D01*
X2831706Y-1166746D02*
X2841229Y-1176270D01*
X2841229Y-1176270D02*
X2860277Y-1185793D01*
X2860277Y-1185793D02*
X2898372Y-1185793D01*
X2898372Y-1185793D02*
X2917420Y-1176270D01*
X2917420Y-1176270D02*
X2926944Y-1166746D01*
X2926944Y-1166746D02*
X2936467Y-1147698D01*
X3107896Y-1128650D02*
X3107896Y-1261984D01*
X3060277Y-1052460D02*
X3012658Y-1195317D01*
X3012658Y-1195317D02*
X3136467Y-1195317D01*
X3203134Y-1061984D02*
X3203134Y-1100079D01*
X3279325Y-1061984D02*
X3279325Y-1100079D01*
X3574563Y-1338174D02*
X3565039Y-1328650D01*
X3565039Y-1328650D02*
X3545991Y-1300079D01*
X3545991Y-1300079D02*
X3536468Y-1281031D01*
X3536468Y-1281031D02*
X3526944Y-1252460D01*
X3526944Y-1252460D02*
X3517420Y-1204841D01*
X3517420Y-1204841D02*
X3517420Y-1166746D01*
X3517420Y-1166746D02*
X3526944Y-1119127D01*
X3526944Y-1119127D02*
X3536468Y-1090555D01*
X3536468Y-1090555D02*
X3545991Y-1071508D01*
X3545991Y-1071508D02*
X3565039Y-1042936D01*
X3565039Y-1042936D02*
X3574563Y-1033412D01*
X3736468Y-1128650D02*
X3736468Y-1261984D01*
X3688848Y-1052460D02*
X3641229Y-1195317D01*
X3641229Y-1195317D02*
X3765039Y-1195317D01*
X3993610Y-1261984D02*
X3993610Y-1061984D01*
X4079325Y-1261984D02*
X4079325Y-1157222D01*
X4079325Y-1157222D02*
X4069801Y-1138174D01*
X4069801Y-1138174D02*
X4050753Y-1128650D01*
X4050753Y-1128650D02*
X4022182Y-1128650D01*
X4022182Y-1128650D02*
X4003134Y-1138174D01*
X4003134Y-1138174D02*
X3993610Y-1147698D01*
X4203134Y-1261984D02*
X4184087Y-1252460D01*
X4184087Y-1252460D02*
X4174563Y-1242936D01*
X4174563Y-1242936D02*
X4165039Y-1223889D01*
X4165039Y-1223889D02*
X4165039Y-1166746D01*
X4165039Y-1166746D02*
X4174563Y-1147698D01*
X4174563Y-1147698D02*
X4184087Y-1138174D01*
X4184087Y-1138174D02*
X4203134Y-1128650D01*
X4203134Y-1128650D02*
X4231706Y-1128650D01*
X4231706Y-1128650D02*
X4250753Y-1138174D01*
X4250753Y-1138174D02*
X4260277Y-1147698D01*
X4260277Y-1147698D02*
X4269801Y-1166746D01*
X4269801Y-1166746D02*
X4269801Y-1223889D01*
X4269801Y-1223889D02*
X4260277Y-1242936D01*
X4260277Y-1242936D02*
X4250753Y-1252460D01*
X4250753Y-1252460D02*
X4231706Y-1261984D01*
X4231706Y-1261984D02*
X4203134Y-1261984D01*
X4384087Y-1261984D02*
X4365039Y-1252460D01*
X4365039Y-1252460D02*
X4355515Y-1233412D01*
X4355515Y-1233412D02*
X4355515Y-1061984D01*
X4536468Y-1252460D02*
X4517420Y-1261984D01*
X4517420Y-1261984D02*
X4479325Y-1261984D01*
X4479325Y-1261984D02*
X4460277Y-1252460D01*
X4460277Y-1252460D02*
X4450753Y-1233412D01*
X4450753Y-1233412D02*
X4450753Y-1157222D01*
X4450753Y-1157222D02*
X4460277Y-1138174D01*
X4460277Y-1138174D02*
X4479325Y-1128650D01*
X4479325Y-1128650D02*
X4517420Y-1128650D01*
X4517420Y-1128650D02*
X4536468Y-1138174D01*
X4536468Y-1138174D02*
X4545992Y-1157222D01*
X4545992Y-1157222D02*
X4545992Y-1176270D01*
X4545992Y-1176270D02*
X4450753Y-1195317D01*
X4622182Y-1252460D02*
X4641230Y-1261984D01*
X4641230Y-1261984D02*
X4679325Y-1261984D01*
X4679325Y-1261984D02*
X4698373Y-1252460D01*
X4698373Y-1252460D02*
X4707896Y-1233412D01*
X4707896Y-1233412D02*
X4707896Y-1223889D01*
X4707896Y-1223889D02*
X4698373Y-1204841D01*
X4698373Y-1204841D02*
X4679325Y-1195317D01*
X4679325Y-1195317D02*
X4650753Y-1195317D01*
X4650753Y-1195317D02*
X4631706Y-1185793D01*
X4631706Y-1185793D02*
X4622182Y-1166746D01*
X4622182Y-1166746D02*
X4622182Y-1157222D01*
X4622182Y-1157222D02*
X4631706Y-1138174D01*
X4631706Y-1138174D02*
X4650753Y-1128650D01*
X4650753Y-1128650D02*
X4679325Y-1128650D01*
X4679325Y-1128650D02*
X4698373Y-1138174D01*
X4774563Y-1338174D02*
X4784087Y-1328650D01*
X4784087Y-1328650D02*
X4803134Y-1300079D01*
X4803134Y-1300079D02*
X4812658Y-1281031D01*
X4812658Y-1281031D02*
X4822182Y-1252460D01*
X4822182Y-1252460D02*
X4831706Y-1204841D01*
X4831706Y-1204841D02*
X4831706Y-1166746D01*
X4831706Y-1166746D02*
X4822182Y-1119127D01*
X4822182Y-1119127D02*
X4812658Y-1090555D01*
X4812658Y-1090555D02*
X4803134Y-1071508D01*
X4803134Y-1071508D02*
X4784087Y-1042936D01*
X4784087Y-1042936D02*
X4774563Y-1033412D01*
D13*
X-16609Y-1473391D02*
X-16609Y-1395609D01*
X-94391Y-1395609D01*
X-94391Y-1473391D01*
X-16609Y-1473391D01*
D11*
X365039Y-1525984D02*
X250753Y-1525984D01*
X307896Y-1525984D02*
X307896Y-1325984D01*
X307896Y-1325984D02*
X288848Y-1354555D01*
X288848Y-1354555D02*
X269801Y-1373603D01*
X269801Y-1373603D02*
X250753Y-1383127D01*
X450753Y-1506936D02*
X460277Y-1516460D01*
X460277Y-1516460D02*
X450753Y-1525984D01*
X450753Y-1525984D02*
X441229Y-1516460D01*
X441229Y-1516460D02*
X450753Y-1506936D01*
X450753Y-1506936D02*
X450753Y-1525984D01*
X650753Y-1525984D02*
X536467Y-1525984D01*
X593610Y-1525984D02*
X593610Y-1325984D01*
X593610Y-1325984D02*
X574563Y-1354555D01*
X574563Y-1354555D02*
X555515Y-1373603D01*
X555515Y-1373603D02*
X536467Y-1383127D01*
X774562Y-1325984D02*
X793610Y-1325984D01*
X793610Y-1325984D02*
X812658Y-1335508D01*
X812658Y-1335508D02*
X822182Y-1345031D01*
X822182Y-1345031D02*
X831705Y-1364079D01*
X831705Y-1364079D02*
X841229Y-1402174D01*
X841229Y-1402174D02*
X841229Y-1449793D01*
X841229Y-1449793D02*
X831705Y-1487888D01*
X831705Y-1487888D02*
X822182Y-1506936D01*
X822182Y-1506936D02*
X812658Y-1516460D01*
X812658Y-1516460D02*
X793610Y-1525984D01*
X793610Y-1525984D02*
X774562Y-1525984D01*
X774562Y-1525984D02*
X755515Y-1516460D01*
X755515Y-1516460D02*
X745991Y-1506936D01*
X745991Y-1506936D02*
X736467Y-1487888D01*
X736467Y-1487888D02*
X726943Y-1449793D01*
X726943Y-1449793D02*
X726943Y-1402174D01*
X726943Y-1402174D02*
X736467Y-1364079D01*
X736467Y-1364079D02*
X745991Y-1345031D01*
X745991Y-1345031D02*
X755515Y-1335508D01*
X755515Y-1335508D02*
X774562Y-1325984D01*
X965039Y-1325984D02*
X984086Y-1325984D01*
X984086Y-1325984D02*
X1003134Y-1335508D01*
X1003134Y-1335508D02*
X1012658Y-1345031D01*
X1012658Y-1345031D02*
X1022182Y-1364079D01*
X1022182Y-1364079D02*
X1031705Y-1402174D01*
X1031705Y-1402174D02*
X1031705Y-1449793D01*
X1031705Y-1449793D02*
X1022182Y-1487888D01*
X1022182Y-1487888D02*
X1012658Y-1506936D01*
X1012658Y-1506936D02*
X1003134Y-1516460D01*
X1003134Y-1516460D02*
X984086Y-1525984D01*
X984086Y-1525984D02*
X965039Y-1525984D01*
X965039Y-1525984D02*
X945991Y-1516460D01*
X945991Y-1516460D02*
X936467Y-1506936D01*
X936467Y-1506936D02*
X926943Y-1487888D01*
X926943Y-1487888D02*
X917420Y-1449793D01*
X917420Y-1449793D02*
X917420Y-1402174D01*
X917420Y-1402174D02*
X926943Y-1364079D01*
X926943Y-1364079D02*
X936467Y-1345031D01*
X936467Y-1345031D02*
X945991Y-1335508D01*
X945991Y-1335508D02*
X965039Y-1325984D01*
X1117420Y-1525984D02*
X1117420Y-1392650D01*
X1117420Y-1411698D02*
X1126944Y-1402174D01*
X1126944Y-1402174D02*
X1145991Y-1392650D01*
X1145991Y-1392650D02*
X1174563Y-1392650D01*
X1174563Y-1392650D02*
X1193610Y-1402174D01*
X1193610Y-1402174D02*
X1203134Y-1421222D01*
X1203134Y-1421222D02*
X1203134Y-1525984D01*
X1203134Y-1421222D02*
X1212658Y-1402174D01*
X1212658Y-1402174D02*
X1231705Y-1392650D01*
X1231705Y-1392650D02*
X1260277Y-1392650D01*
X1260277Y-1392650D02*
X1279325Y-1402174D01*
X1279325Y-1402174D02*
X1288848Y-1421222D01*
X1288848Y-1421222D02*
X1288848Y-1525984D01*
X1384086Y-1525984D02*
X1384086Y-1392650D01*
X1384086Y-1411698D02*
X1393610Y-1402174D01*
X1393610Y-1402174D02*
X1412658Y-1392650D01*
X1412658Y-1392650D02*
X1441229Y-1392650D01*
X1441229Y-1392650D02*
X1460277Y-1402174D01*
X1460277Y-1402174D02*
X1469801Y-1421222D01*
X1469801Y-1421222D02*
X1469801Y-1525984D01*
X1469801Y-1421222D02*
X1479324Y-1402174D01*
X1479324Y-1402174D02*
X1498372Y-1392650D01*
X1498372Y-1392650D02*
X1526943Y-1392650D01*
X1526943Y-1392650D02*
X1545991Y-1402174D01*
X1545991Y-1402174D02*
X1555515Y-1421222D01*
X1555515Y-1421222D02*
X1555515Y-1525984D01*
X1945991Y-1316460D02*
X1774563Y-1573603D01*
X2203134Y-1325984D02*
X2222182Y-1325984D01*
X2222182Y-1325984D02*
X2241229Y-1335508D01*
X2241229Y-1335508D02*
X2250753Y-1345031D01*
X2250753Y-1345031D02*
X2260277Y-1364079D01*
X2260277Y-1364079D02*
X2269801Y-1402174D01*
X2269801Y-1402174D02*
X2269801Y-1449793D01*
X2269801Y-1449793D02*
X2260277Y-1487888D01*
X2260277Y-1487888D02*
X2250753Y-1506936D01*
X2250753Y-1506936D02*
X2241229Y-1516460D01*
X2241229Y-1516460D02*
X2222182Y-1525984D01*
X2222182Y-1525984D02*
X2203134Y-1525984D01*
X2203134Y-1525984D02*
X2184087Y-1516460D01*
X2184087Y-1516460D02*
X2174563Y-1506936D01*
X2174563Y-1506936D02*
X2165039Y-1487888D01*
X2165039Y-1487888D02*
X2155515Y-1449793D01*
X2155515Y-1449793D02*
X2155515Y-1402174D01*
X2155515Y-1402174D02*
X2165039Y-1364079D01*
X2165039Y-1364079D02*
X2174563Y-1345031D01*
X2174563Y-1345031D02*
X2184087Y-1335508D01*
X2184087Y-1335508D02*
X2203134Y-1325984D01*
X2355515Y-1506936D02*
X2365039Y-1516460D01*
X2365039Y-1516460D02*
X2355515Y-1525984D01*
X2355515Y-1525984D02*
X2345991Y-1516460D01*
X2345991Y-1516460D02*
X2355515Y-1506936D01*
X2355515Y-1506936D02*
X2355515Y-1525984D01*
X2488848Y-1325984D02*
X2507896Y-1325984D01*
X2507896Y-1325984D02*
X2526944Y-1335508D01*
X2526944Y-1335508D02*
X2536468Y-1345031D01*
X2536468Y-1345031D02*
X2545991Y-1364079D01*
X2545991Y-1364079D02*
X2555515Y-1402174D01*
X2555515Y-1402174D02*
X2555515Y-1449793D01*
X2555515Y-1449793D02*
X2545991Y-1487888D01*
X2545991Y-1487888D02*
X2536468Y-1506936D01*
X2536468Y-1506936D02*
X2526944Y-1516460D01*
X2526944Y-1516460D02*
X2507896Y-1525984D01*
X2507896Y-1525984D02*
X2488848Y-1525984D01*
X2488848Y-1525984D02*
X2469801Y-1516460D01*
X2469801Y-1516460D02*
X2460277Y-1506936D01*
X2460277Y-1506936D02*
X2450753Y-1487888D01*
X2450753Y-1487888D02*
X2441229Y-1449793D01*
X2441229Y-1449793D02*
X2441229Y-1402174D01*
X2441229Y-1402174D02*
X2450753Y-1364079D01*
X2450753Y-1364079D02*
X2460277Y-1345031D01*
X2460277Y-1345031D02*
X2469801Y-1335508D01*
X2469801Y-1335508D02*
X2488848Y-1325984D01*
X2726944Y-1392650D02*
X2726944Y-1525984D01*
X2679325Y-1316460D02*
X2631706Y-1459317D01*
X2631706Y-1459317D02*
X2755515Y-1459317D01*
X2812658Y-1325984D02*
X2936467Y-1325984D01*
X2936467Y-1325984D02*
X2869801Y-1402174D01*
X2869801Y-1402174D02*
X2898372Y-1402174D01*
X2898372Y-1402174D02*
X2917420Y-1411698D01*
X2917420Y-1411698D02*
X2926944Y-1421222D01*
X2926944Y-1421222D02*
X2936467Y-1440269D01*
X2936467Y-1440269D02*
X2936467Y-1487888D01*
X2936467Y-1487888D02*
X2926944Y-1506936D01*
X2926944Y-1506936D02*
X2917420Y-1516460D01*
X2917420Y-1516460D02*
X2898372Y-1525984D01*
X2898372Y-1525984D02*
X2841229Y-1525984D01*
X2841229Y-1525984D02*
X2822182Y-1516460D01*
X2822182Y-1516460D02*
X2812658Y-1506936D01*
X3003134Y-1325984D02*
X3126944Y-1325984D01*
X3126944Y-1325984D02*
X3060277Y-1402174D01*
X3060277Y-1402174D02*
X3088848Y-1402174D01*
X3088848Y-1402174D02*
X3107896Y-1411698D01*
X3107896Y-1411698D02*
X3117420Y-1421222D01*
X3117420Y-1421222D02*
X3126944Y-1440269D01*
X3126944Y-1440269D02*
X3126944Y-1487888D01*
X3126944Y-1487888D02*
X3117420Y-1506936D01*
X3117420Y-1506936D02*
X3107896Y-1516460D01*
X3107896Y-1516460D02*
X3088848Y-1525984D01*
X3088848Y-1525984D02*
X3031706Y-1525984D01*
X3031706Y-1525984D02*
X3012658Y-1516460D01*
X3012658Y-1516460D02*
X3003134Y-1506936D01*
X3203134Y-1325984D02*
X3203134Y-1364079D01*
X3279325Y-1325984D02*
X3279325Y-1364079D01*
X3574563Y-1602174D02*
X3565039Y-1592650D01*
X3565039Y-1592650D02*
X3545991Y-1564079D01*
X3545991Y-1564079D02*
X3536468Y-1545031D01*
X3536468Y-1545031D02*
X3526944Y-1516460D01*
X3526944Y-1516460D02*
X3517420Y-1468841D01*
X3517420Y-1468841D02*
X3517420Y-1430746D01*
X3517420Y-1430746D02*
X3526944Y-1383127D01*
X3526944Y-1383127D02*
X3536468Y-1354555D01*
X3536468Y-1354555D02*
X3545991Y-1335508D01*
X3545991Y-1335508D02*
X3565039Y-1306936D01*
X3565039Y-1306936D02*
X3574563Y-1297412D01*
X3736468Y-1325984D02*
X3698372Y-1325984D01*
X3698372Y-1325984D02*
X3679325Y-1335508D01*
X3679325Y-1335508D02*
X3669801Y-1345031D01*
X3669801Y-1345031D02*
X3650753Y-1373603D01*
X3650753Y-1373603D02*
X3641229Y-1411698D01*
X3641229Y-1411698D02*
X3641229Y-1487888D01*
X3641229Y-1487888D02*
X3650753Y-1506936D01*
X3650753Y-1506936D02*
X3660277Y-1516460D01*
X3660277Y-1516460D02*
X3679325Y-1525984D01*
X3679325Y-1525984D02*
X3717420Y-1525984D01*
X3717420Y-1525984D02*
X3736468Y-1516460D01*
X3736468Y-1516460D02*
X3745991Y-1506936D01*
X3745991Y-1506936D02*
X3755515Y-1487888D01*
X3755515Y-1487888D02*
X3755515Y-1440269D01*
X3755515Y-1440269D02*
X3745991Y-1421222D01*
X3745991Y-1421222D02*
X3736468Y-1411698D01*
X3736468Y-1411698D02*
X3717420Y-1402174D01*
X3717420Y-1402174D02*
X3679325Y-1402174D01*
X3679325Y-1402174D02*
X3660277Y-1411698D01*
X3660277Y-1411698D02*
X3650753Y-1421222D01*
X3650753Y-1421222D02*
X3641229Y-1440269D01*
X3993610Y-1525984D02*
X3993610Y-1325984D01*
X4079325Y-1525984D02*
X4079325Y-1421222D01*
X4079325Y-1421222D02*
X4069801Y-1402174D01*
X4069801Y-1402174D02*
X4050753Y-1392650D01*
X4050753Y-1392650D02*
X4022182Y-1392650D01*
X4022182Y-1392650D02*
X4003134Y-1402174D01*
X4003134Y-1402174D02*
X3993610Y-1411698D01*
X4203134Y-1525984D02*
X4184087Y-1516460D01*
X4184087Y-1516460D02*
X4174563Y-1506936D01*
X4174563Y-1506936D02*
X4165039Y-1487888D01*
X4165039Y-1487888D02*
X4165039Y-1430746D01*
X4165039Y-1430746D02*
X4174563Y-1411698D01*
X4174563Y-1411698D02*
X4184087Y-1402174D01*
X4184087Y-1402174D02*
X4203134Y-1392650D01*
X4203134Y-1392650D02*
X4231706Y-1392650D01*
X4231706Y-1392650D02*
X4250753Y-1402174D01*
X4250753Y-1402174D02*
X4260277Y-1411698D01*
X4260277Y-1411698D02*
X4269801Y-1430746D01*
X4269801Y-1430746D02*
X4269801Y-1487888D01*
X4269801Y-1487888D02*
X4260277Y-1506936D01*
X4260277Y-1506936D02*
X4250753Y-1516460D01*
X4250753Y-1516460D02*
X4231706Y-1525984D01*
X4231706Y-1525984D02*
X4203134Y-1525984D01*
X4384087Y-1525984D02*
X4365039Y-1516460D01*
X4365039Y-1516460D02*
X4355515Y-1497412D01*
X4355515Y-1497412D02*
X4355515Y-1325984D01*
X4536468Y-1516460D02*
X4517420Y-1525984D01*
X4517420Y-1525984D02*
X4479325Y-1525984D01*
X4479325Y-1525984D02*
X4460277Y-1516460D01*
X4460277Y-1516460D02*
X4450753Y-1497412D01*
X4450753Y-1497412D02*
X4450753Y-1421222D01*
X4450753Y-1421222D02*
X4460277Y-1402174D01*
X4460277Y-1402174D02*
X4479325Y-1392650D01*
X4479325Y-1392650D02*
X4517420Y-1392650D01*
X4517420Y-1392650D02*
X4536468Y-1402174D01*
X4536468Y-1402174D02*
X4545992Y-1421222D01*
X4545992Y-1421222D02*
X4545992Y-1440269D01*
X4545992Y-1440269D02*
X4450753Y-1459317D01*
X4622182Y-1516460D02*
X4641230Y-1525984D01*
X4641230Y-1525984D02*
X4679325Y-1525984D01*
X4679325Y-1525984D02*
X4698373Y-1516460D01*
X4698373Y-1516460D02*
X4707896Y-1497412D01*
X4707896Y-1497412D02*
X4707896Y-1487888D01*
X4707896Y-1487888D02*
X4698373Y-1468841D01*
X4698373Y-1468841D02*
X4679325Y-1459317D01*
X4679325Y-1459317D02*
X4650753Y-1459317D01*
X4650753Y-1459317D02*
X4631706Y-1449793D01*
X4631706Y-1449793D02*
X4622182Y-1430746D01*
X4622182Y-1430746D02*
X4622182Y-1421222D01*
X4622182Y-1421222D02*
X4631706Y-1402174D01*
X4631706Y-1402174D02*
X4650753Y-1392650D01*
X4650753Y-1392650D02*
X4679325Y-1392650D01*
X4679325Y-1392650D02*
X4698373Y-1402174D01*
X4774563Y-1602174D02*
X4784087Y-1592650D01*
X4784087Y-1592650D02*
X4803134Y-1564079D01*
X4803134Y-1564079D02*
X4812658Y-1545031D01*
X4812658Y-1545031D02*
X4822182Y-1516460D01*
X4822182Y-1516460D02*
X4831706Y-1468841D01*
X4831706Y-1468841D02*
X4831706Y-1430746D01*
X4831706Y-1430746D02*
X4822182Y-1383127D01*
X4822182Y-1383127D02*
X4812658Y-1354555D01*
X4812658Y-1354555D02*
X4803134Y-1335508D01*
X4803134Y-1335508D02*
X4784087Y-1306936D01*
X4784087Y-1306936D02*
X4774563Y-1297412D01*
X-100500Y-1798500D02*
X-500Y-1698500D01*
X-100500Y-1598500D01*
X-200500Y-1698500D01*
X-100500Y-1798500D01*
X250753Y-1609031D02*
X260277Y-1599508D01*
X260277Y-1599508D02*
X279324Y-1589984D01*
X279324Y-1589984D02*
X326944Y-1589984D01*
X326944Y-1589984D02*
X345991Y-1599508D01*
X345991Y-1599508D02*
X355515Y-1609031D01*
X355515Y-1609031D02*
X365039Y-1628079D01*
X365039Y-1628079D02*
X365039Y-1647127D01*
X365039Y-1647127D02*
X355515Y-1675698D01*
X355515Y-1675698D02*
X241229Y-1789984D01*
X241229Y-1789984D02*
X365039Y-1789984D01*
X450753Y-1770936D02*
X460277Y-1780460D01*
X460277Y-1780460D02*
X450753Y-1789984D01*
X450753Y-1789984D02*
X441229Y-1780460D01*
X441229Y-1780460D02*
X450753Y-1770936D01*
X450753Y-1770936D02*
X450753Y-1789984D01*
X584086Y-1589984D02*
X603134Y-1589984D01*
X603134Y-1589984D02*
X622182Y-1599508D01*
X622182Y-1599508D02*
X631705Y-1609031D01*
X631705Y-1609031D02*
X641229Y-1628079D01*
X641229Y-1628079D02*
X650753Y-1666174D01*
X650753Y-1666174D02*
X650753Y-1713793D01*
X650753Y-1713793D02*
X641229Y-1751888D01*
X641229Y-1751888D02*
X631705Y-1770936D01*
X631705Y-1770936D02*
X622182Y-1780460D01*
X622182Y-1780460D02*
X603134Y-1789984D01*
X603134Y-1789984D02*
X584086Y-1789984D01*
X584086Y-1789984D02*
X565039Y-1780460D01*
X565039Y-1780460D02*
X555515Y-1770936D01*
X555515Y-1770936D02*
X545991Y-1751888D01*
X545991Y-1751888D02*
X536467Y-1713793D01*
X536467Y-1713793D02*
X536467Y-1666174D01*
X536467Y-1666174D02*
X545991Y-1628079D01*
X545991Y-1628079D02*
X555515Y-1609031D01*
X555515Y-1609031D02*
X565039Y-1599508D01*
X565039Y-1599508D02*
X584086Y-1589984D01*
X841229Y-1789984D02*
X726943Y-1789984D01*
X784086Y-1789984D02*
X784086Y-1589984D01*
X784086Y-1589984D02*
X765039Y-1618555D01*
X765039Y-1618555D02*
X745991Y-1637603D01*
X745991Y-1637603D02*
X726943Y-1647127D01*
X965039Y-1589984D02*
X984086Y-1589984D01*
X984086Y-1589984D02*
X1003134Y-1599508D01*
X1003134Y-1599508D02*
X1012658Y-1609031D01*
X1012658Y-1609031D02*
X1022182Y-1628079D01*
X1022182Y-1628079D02*
X1031705Y-1666174D01*
X1031705Y-1666174D02*
X1031705Y-1713793D01*
X1031705Y-1713793D02*
X1022182Y-1751888D01*
X1022182Y-1751888D02*
X1012658Y-1770936D01*
X1012658Y-1770936D02*
X1003134Y-1780460D01*
X1003134Y-1780460D02*
X984086Y-1789984D01*
X984086Y-1789984D02*
X965039Y-1789984D01*
X965039Y-1789984D02*
X945991Y-1780460D01*
X945991Y-1780460D02*
X936467Y-1770936D01*
X936467Y-1770936D02*
X926943Y-1751888D01*
X926943Y-1751888D02*
X917420Y-1713793D01*
X917420Y-1713793D02*
X917420Y-1666174D01*
X917420Y-1666174D02*
X926943Y-1628079D01*
X926943Y-1628079D02*
X936467Y-1609031D01*
X936467Y-1609031D02*
X945991Y-1599508D01*
X945991Y-1599508D02*
X965039Y-1589984D01*
X1117420Y-1789984D02*
X1117420Y-1656650D01*
X1117420Y-1675698D02*
X1126944Y-1666174D01*
X1126944Y-1666174D02*
X1145991Y-1656650D01*
X1145991Y-1656650D02*
X1174563Y-1656650D01*
X1174563Y-1656650D02*
X1193610Y-1666174D01*
X1193610Y-1666174D02*
X1203134Y-1685222D01*
X1203134Y-1685222D02*
X1203134Y-1789984D01*
X1203134Y-1685222D02*
X1212658Y-1666174D01*
X1212658Y-1666174D02*
X1231705Y-1656650D01*
X1231705Y-1656650D02*
X1260277Y-1656650D01*
X1260277Y-1656650D02*
X1279325Y-1666174D01*
X1279325Y-1666174D02*
X1288848Y-1685222D01*
X1288848Y-1685222D02*
X1288848Y-1789984D01*
X1384086Y-1789984D02*
X1384086Y-1656650D01*
X1384086Y-1675698D02*
X1393610Y-1666174D01*
X1393610Y-1666174D02*
X1412658Y-1656650D01*
X1412658Y-1656650D02*
X1441229Y-1656650D01*
X1441229Y-1656650D02*
X1460277Y-1666174D01*
X1460277Y-1666174D02*
X1469801Y-1685222D01*
X1469801Y-1685222D02*
X1469801Y-1789984D01*
X1469801Y-1685222D02*
X1479324Y-1666174D01*
X1479324Y-1666174D02*
X1498372Y-1656650D01*
X1498372Y-1656650D02*
X1526943Y-1656650D01*
X1526943Y-1656650D02*
X1545991Y-1666174D01*
X1545991Y-1666174D02*
X1555515Y-1685222D01*
X1555515Y-1685222D02*
X1555515Y-1789984D01*
X1945991Y-1580460D02*
X1774563Y-1837603D01*
X2203134Y-1589984D02*
X2222182Y-1589984D01*
X2222182Y-1589984D02*
X2241229Y-1599508D01*
X2241229Y-1599508D02*
X2250753Y-1609031D01*
X2250753Y-1609031D02*
X2260277Y-1628079D01*
X2260277Y-1628079D02*
X2269801Y-1666174D01*
X2269801Y-1666174D02*
X2269801Y-1713793D01*
X2269801Y-1713793D02*
X2260277Y-1751888D01*
X2260277Y-1751888D02*
X2250753Y-1770936D01*
X2250753Y-1770936D02*
X2241229Y-1780460D01*
X2241229Y-1780460D02*
X2222182Y-1789984D01*
X2222182Y-1789984D02*
X2203134Y-1789984D01*
X2203134Y-1789984D02*
X2184087Y-1780460D01*
X2184087Y-1780460D02*
X2174563Y-1770936D01*
X2174563Y-1770936D02*
X2165039Y-1751888D01*
X2165039Y-1751888D02*
X2155515Y-1713793D01*
X2155515Y-1713793D02*
X2155515Y-1666174D01*
X2155515Y-1666174D02*
X2165039Y-1628079D01*
X2165039Y-1628079D02*
X2174563Y-1609031D01*
X2174563Y-1609031D02*
X2184087Y-1599508D01*
X2184087Y-1599508D02*
X2203134Y-1589984D01*
X2355515Y-1770936D02*
X2365039Y-1780460D01*
X2365039Y-1780460D02*
X2355515Y-1789984D01*
X2355515Y-1789984D02*
X2345991Y-1780460D01*
X2345991Y-1780460D02*
X2355515Y-1770936D01*
X2355515Y-1770936D02*
X2355515Y-1789984D01*
X2488848Y-1589984D02*
X2507896Y-1589984D01*
X2507896Y-1589984D02*
X2526944Y-1599508D01*
X2526944Y-1599508D02*
X2536468Y-1609031D01*
X2536468Y-1609031D02*
X2545991Y-1628079D01*
X2545991Y-1628079D02*
X2555515Y-1666174D01*
X2555515Y-1666174D02*
X2555515Y-1713793D01*
X2555515Y-1713793D02*
X2545991Y-1751888D01*
X2545991Y-1751888D02*
X2536468Y-1770936D01*
X2536468Y-1770936D02*
X2526944Y-1780460D01*
X2526944Y-1780460D02*
X2507896Y-1789984D01*
X2507896Y-1789984D02*
X2488848Y-1789984D01*
X2488848Y-1789984D02*
X2469801Y-1780460D01*
X2469801Y-1780460D02*
X2460277Y-1770936D01*
X2460277Y-1770936D02*
X2450753Y-1751888D01*
X2450753Y-1751888D02*
X2441229Y-1713793D01*
X2441229Y-1713793D02*
X2441229Y-1666174D01*
X2441229Y-1666174D02*
X2450753Y-1628079D01*
X2450753Y-1628079D02*
X2460277Y-1609031D01*
X2460277Y-1609031D02*
X2469801Y-1599508D01*
X2469801Y-1599508D02*
X2488848Y-1589984D01*
X2622182Y-1589984D02*
X2755515Y-1589984D01*
X2755515Y-1589984D02*
X2669801Y-1789984D01*
X2841229Y-1789984D02*
X2879325Y-1789984D01*
X2879325Y-1789984D02*
X2898372Y-1780460D01*
X2898372Y-1780460D02*
X2907896Y-1770936D01*
X2907896Y-1770936D02*
X2926944Y-1742365D01*
X2926944Y-1742365D02*
X2936467Y-1704269D01*
X2936467Y-1704269D02*
X2936467Y-1628079D01*
X2936467Y-1628079D02*
X2926944Y-1609031D01*
X2926944Y-1609031D02*
X2917420Y-1599508D01*
X2917420Y-1599508D02*
X2898372Y-1589984D01*
X2898372Y-1589984D02*
X2860277Y-1589984D01*
X2860277Y-1589984D02*
X2841229Y-1599508D01*
X2841229Y-1599508D02*
X2831706Y-1609031D01*
X2831706Y-1609031D02*
X2822182Y-1628079D01*
X2822182Y-1628079D02*
X2822182Y-1675698D01*
X2822182Y-1675698D02*
X2831706Y-1694746D01*
X2831706Y-1694746D02*
X2841229Y-1704269D01*
X2841229Y-1704269D02*
X2860277Y-1713793D01*
X2860277Y-1713793D02*
X2898372Y-1713793D01*
X2898372Y-1713793D02*
X2917420Y-1704269D01*
X2917420Y-1704269D02*
X2926944Y-1694746D01*
X2926944Y-1694746D02*
X2936467Y-1675698D01*
X3126944Y-1789984D02*
X3012658Y-1789984D01*
X3069801Y-1789984D02*
X3069801Y-1589984D01*
X3069801Y-1589984D02*
X3050753Y-1618555D01*
X3050753Y-1618555D02*
X3031706Y-1637603D01*
X3031706Y-1637603D02*
X3012658Y-1647127D01*
X3203134Y-1589984D02*
X3203134Y-1628079D01*
X3279325Y-1589984D02*
X3279325Y-1628079D01*
X3574563Y-1866174D02*
X3565039Y-1856650D01*
X3565039Y-1856650D02*
X3545991Y-1828079D01*
X3545991Y-1828079D02*
X3536468Y-1809031D01*
X3536468Y-1809031D02*
X3526944Y-1780460D01*
X3526944Y-1780460D02*
X3517420Y-1732841D01*
X3517420Y-1732841D02*
X3517420Y-1694746D01*
X3517420Y-1694746D02*
X3526944Y-1647127D01*
X3526944Y-1647127D02*
X3536468Y-1618555D01*
X3536468Y-1618555D02*
X3545991Y-1599508D01*
X3545991Y-1599508D02*
X3565039Y-1570936D01*
X3565039Y-1570936D02*
X3574563Y-1561412D01*
X3736468Y-1656650D02*
X3736468Y-1789984D01*
X3688848Y-1580460D02*
X3641229Y-1723317D01*
X3641229Y-1723317D02*
X3765039Y-1723317D01*
X3993610Y-1789984D02*
X3993610Y-1589984D01*
X4079325Y-1789984D02*
X4079325Y-1685222D01*
X4079325Y-1685222D02*
X4069801Y-1666174D01*
X4069801Y-1666174D02*
X4050753Y-1656650D01*
X4050753Y-1656650D02*
X4022182Y-1656650D01*
X4022182Y-1656650D02*
X4003134Y-1666174D01*
X4003134Y-1666174D02*
X3993610Y-1675698D01*
X4203134Y-1789984D02*
X4184087Y-1780460D01*
X4184087Y-1780460D02*
X4174563Y-1770936D01*
X4174563Y-1770936D02*
X4165039Y-1751888D01*
X4165039Y-1751888D02*
X4165039Y-1694746D01*
X4165039Y-1694746D02*
X4174563Y-1675698D01*
X4174563Y-1675698D02*
X4184087Y-1666174D01*
X4184087Y-1666174D02*
X4203134Y-1656650D01*
X4203134Y-1656650D02*
X4231706Y-1656650D01*
X4231706Y-1656650D02*
X4250753Y-1666174D01*
X4250753Y-1666174D02*
X4260277Y-1675698D01*
X4260277Y-1675698D02*
X4269801Y-1694746D01*
X4269801Y-1694746D02*
X4269801Y-1751888D01*
X4269801Y-1751888D02*
X4260277Y-1770936D01*
X4260277Y-1770936D02*
X4250753Y-1780460D01*
X4250753Y-1780460D02*
X4231706Y-1789984D01*
X4231706Y-1789984D02*
X4203134Y-1789984D01*
X4384087Y-1789984D02*
X4365039Y-1780460D01*
X4365039Y-1780460D02*
X4355515Y-1761412D01*
X4355515Y-1761412D02*
X4355515Y-1589984D01*
X4536468Y-1780460D02*
X4517420Y-1789984D01*
X4517420Y-1789984D02*
X4479325Y-1789984D01*
X4479325Y-1789984D02*
X4460277Y-1780460D01*
X4460277Y-1780460D02*
X4450753Y-1761412D01*
X4450753Y-1761412D02*
X4450753Y-1685222D01*
X4450753Y-1685222D02*
X4460277Y-1666174D01*
X4460277Y-1666174D02*
X4479325Y-1656650D01*
X4479325Y-1656650D02*
X4517420Y-1656650D01*
X4517420Y-1656650D02*
X4536468Y-1666174D01*
X4536468Y-1666174D02*
X4545992Y-1685222D01*
X4545992Y-1685222D02*
X4545992Y-1704269D01*
X4545992Y-1704269D02*
X4450753Y-1723317D01*
X4622182Y-1780460D02*
X4641230Y-1789984D01*
X4641230Y-1789984D02*
X4679325Y-1789984D01*
X4679325Y-1789984D02*
X4698373Y-1780460D01*
X4698373Y-1780460D02*
X4707896Y-1761412D01*
X4707896Y-1761412D02*
X4707896Y-1751888D01*
X4707896Y-1751888D02*
X4698373Y-1732841D01*
X4698373Y-1732841D02*
X4679325Y-1723317D01*
X4679325Y-1723317D02*
X4650753Y-1723317D01*
X4650753Y-1723317D02*
X4631706Y-1713793D01*
X4631706Y-1713793D02*
X4622182Y-1694746D01*
X4622182Y-1694746D02*
X4622182Y-1685222D01*
X4622182Y-1685222D02*
X4631706Y-1666174D01*
X4631706Y-1666174D02*
X4650753Y-1656650D01*
X4650753Y-1656650D02*
X4679325Y-1656650D01*
X4679325Y-1656650D02*
X4698373Y-1666174D01*
X4774563Y-1866174D02*
X4784087Y-1856650D01*
X4784087Y-1856650D02*
X4803134Y-1828079D01*
X4803134Y-1828079D02*
X4812658Y-1809031D01*
X4812658Y-1809031D02*
X4822182Y-1780460D01*
X4822182Y-1780460D02*
X4831706Y-1732841D01*
X4831706Y-1732841D02*
X4831706Y-1694746D01*
X4831706Y-1694746D02*
X4822182Y-1647127D01*
X4822182Y-1647127D02*
X4812658Y-1618555D01*
X4812658Y-1618555D02*
X4803134Y-1599508D01*
X4803134Y-1599508D02*
X4784087Y-1570936D01*
X4784087Y-1570936D02*
X4774563Y-1561412D01*
M02*
