%TF.GenerationSoftware,KiCad,Pcbnew,8.0.1*%
%TF.CreationDate,2024-06-13T00:26:48+02:00*%
%TF.ProjectId,CFT,4346542e-6b69-4636-9164-5f7063625858,rev?*%
%TF.SameCoordinates,PX52e4ef2PY60c692e*%
%TF.FileFunction,Drillmap*%
%TF.FilePolarity,Positive*%
%FSLAX45Y45*%
G04 Gerber Fmt 4.5, Leading zero omitted, Abs format (unit mm)*
G04 Created by KiCad (PCBNEW 8.0.1) date 2024-06-13 00:26:48*
%MOMM*%
%LPD*%
G01*
G04 APERTURE LIST*
%ADD10C,0.050000*%
%ADD11C,0.200000*%
%ADD12C,0.300000*%
G04 APERTURE END LIST*
D10*
X2000Y4127000D02*
X5713000Y4127000D01*
X5713000Y0D01*
X2000Y0D01*
X2000Y4127000D01*
D11*
D12*
X1096000Y701000D02*
X1396000Y401000D01*
X1396000Y701000D02*
X1096000Y401000D01*
X5082000Y3387000D02*
X5382000Y3087000D01*
X5382000Y3387000D02*
X5082000Y3087000D01*
D11*
X260277Y-313984D02*
X260277Y-113984D01*
X260277Y-113984D02*
X307896Y-113984D01*
X307896Y-113984D02*
X336467Y-123508D01*
X336467Y-123508D02*
X355515Y-142555D01*
X355515Y-142555D02*
X365039Y-161603D01*
X365039Y-161603D02*
X374562Y-199698D01*
X374562Y-199698D02*
X374562Y-228269D01*
X374562Y-228269D02*
X365039Y-266365D01*
X365039Y-266365D02*
X355515Y-285412D01*
X355515Y-285412D02*
X336467Y-304460D01*
X336467Y-304460D02*
X307896Y-313984D01*
X307896Y-313984D02*
X260277Y-313984D01*
X460277Y-313984D02*
X460277Y-180650D01*
X460277Y-218746D02*
X469801Y-199698D01*
X469801Y-199698D02*
X479324Y-190174D01*
X479324Y-190174D02*
X498372Y-180650D01*
X498372Y-180650D02*
X517420Y-180650D01*
X584086Y-313984D02*
X584086Y-180650D01*
X584086Y-113984D02*
X574563Y-123508D01*
X574563Y-123508D02*
X584086Y-133031D01*
X584086Y-133031D02*
X593610Y-123508D01*
X593610Y-123508D02*
X584086Y-113984D01*
X584086Y-113984D02*
X584086Y-133031D01*
X707896Y-313984D02*
X688848Y-304460D01*
X688848Y-304460D02*
X679324Y-285412D01*
X679324Y-285412D02*
X679324Y-113984D01*
X812658Y-313984D02*
X793610Y-304460D01*
X793610Y-304460D02*
X784086Y-285412D01*
X784086Y-285412D02*
X784086Y-113984D01*
X1041229Y-313984D02*
X1041229Y-113984D01*
X1041229Y-113984D02*
X1107896Y-256841D01*
X1107896Y-256841D02*
X1174563Y-113984D01*
X1174563Y-113984D02*
X1174563Y-313984D01*
X1355515Y-313984D02*
X1355515Y-209222D01*
X1355515Y-209222D02*
X1345991Y-190174D01*
X1345991Y-190174D02*
X1326944Y-180650D01*
X1326944Y-180650D02*
X1288848Y-180650D01*
X1288848Y-180650D02*
X1269801Y-190174D01*
X1355515Y-304460D02*
X1336467Y-313984D01*
X1336467Y-313984D02*
X1288848Y-313984D01*
X1288848Y-313984D02*
X1269801Y-304460D01*
X1269801Y-304460D02*
X1260277Y-285412D01*
X1260277Y-285412D02*
X1260277Y-266365D01*
X1260277Y-266365D02*
X1269801Y-247317D01*
X1269801Y-247317D02*
X1288848Y-237793D01*
X1288848Y-237793D02*
X1336467Y-237793D01*
X1336467Y-237793D02*
X1355515Y-228269D01*
X1450753Y-180650D02*
X1450753Y-380650D01*
X1450753Y-190174D02*
X1469801Y-180650D01*
X1469801Y-180650D02*
X1507896Y-180650D01*
X1507896Y-180650D02*
X1526943Y-190174D01*
X1526943Y-190174D02*
X1536467Y-199698D01*
X1536467Y-199698D02*
X1545991Y-218746D01*
X1545991Y-218746D02*
X1545991Y-275889D01*
X1545991Y-275889D02*
X1536467Y-294936D01*
X1536467Y-294936D02*
X1526943Y-304460D01*
X1526943Y-304460D02*
X1507896Y-313984D01*
X1507896Y-313984D02*
X1469801Y-313984D01*
X1469801Y-313984D02*
X1450753Y-304460D01*
X1631705Y-294936D02*
X1641229Y-304460D01*
X1641229Y-304460D02*
X1631705Y-313984D01*
X1631705Y-313984D02*
X1622182Y-304460D01*
X1622182Y-304460D02*
X1631705Y-294936D01*
X1631705Y-294936D02*
X1631705Y-313984D01*
X1631705Y-190174D02*
X1641229Y-199698D01*
X1641229Y-199698D02*
X1631705Y-209222D01*
X1631705Y-209222D02*
X1622182Y-199698D01*
X1622182Y-199698D02*
X1631705Y-190174D01*
X1631705Y-190174D02*
X1631705Y-209222D01*
X-200500Y-542500D02*
X-500Y-742500D01*
X-500Y-542500D02*
X-200500Y-742500D01*
X241229Y-533984D02*
X365039Y-533984D01*
X365039Y-533984D02*
X298372Y-610174D01*
X298372Y-610174D02*
X326944Y-610174D01*
X326944Y-610174D02*
X345991Y-619698D01*
X345991Y-619698D02*
X355515Y-629222D01*
X355515Y-629222D02*
X365039Y-648270D01*
X365039Y-648270D02*
X365039Y-695889D01*
X365039Y-695889D02*
X355515Y-714936D01*
X355515Y-714936D02*
X345991Y-724460D01*
X345991Y-724460D02*
X326944Y-733984D01*
X326944Y-733984D02*
X269801Y-733984D01*
X269801Y-733984D02*
X250753Y-724460D01*
X250753Y-724460D02*
X241229Y-714936D01*
X450753Y-714936D02*
X460277Y-724460D01*
X460277Y-724460D02*
X450753Y-733984D01*
X450753Y-733984D02*
X441229Y-724460D01*
X441229Y-724460D02*
X450753Y-714936D01*
X450753Y-714936D02*
X450753Y-733984D01*
X584086Y-533984D02*
X603134Y-533984D01*
X603134Y-533984D02*
X622182Y-543508D01*
X622182Y-543508D02*
X631705Y-553031D01*
X631705Y-553031D02*
X641229Y-572079D01*
X641229Y-572079D02*
X650753Y-610174D01*
X650753Y-610174D02*
X650753Y-657793D01*
X650753Y-657793D02*
X641229Y-695889D01*
X641229Y-695889D02*
X631705Y-714936D01*
X631705Y-714936D02*
X622182Y-724460D01*
X622182Y-724460D02*
X603134Y-733984D01*
X603134Y-733984D02*
X584086Y-733984D01*
X584086Y-733984D02*
X565039Y-724460D01*
X565039Y-724460D02*
X555515Y-714936D01*
X555515Y-714936D02*
X545991Y-695889D01*
X545991Y-695889D02*
X536467Y-657793D01*
X536467Y-657793D02*
X536467Y-610174D01*
X536467Y-610174D02*
X545991Y-572079D01*
X545991Y-572079D02*
X555515Y-553031D01*
X555515Y-553031D02*
X565039Y-543508D01*
X565039Y-543508D02*
X584086Y-533984D01*
X774562Y-533984D02*
X793610Y-533984D01*
X793610Y-533984D02*
X812658Y-543508D01*
X812658Y-543508D02*
X822182Y-553031D01*
X822182Y-553031D02*
X831705Y-572079D01*
X831705Y-572079D02*
X841229Y-610174D01*
X841229Y-610174D02*
X841229Y-657793D01*
X841229Y-657793D02*
X831705Y-695889D01*
X831705Y-695889D02*
X822182Y-714936D01*
X822182Y-714936D02*
X812658Y-724460D01*
X812658Y-724460D02*
X793610Y-733984D01*
X793610Y-733984D02*
X774562Y-733984D01*
X774562Y-733984D02*
X755515Y-724460D01*
X755515Y-724460D02*
X745991Y-714936D01*
X745991Y-714936D02*
X736467Y-695889D01*
X736467Y-695889D02*
X726943Y-657793D01*
X726943Y-657793D02*
X726943Y-610174D01*
X726943Y-610174D02*
X736467Y-572079D01*
X736467Y-572079D02*
X745991Y-553031D01*
X745991Y-553031D02*
X755515Y-543508D01*
X755515Y-543508D02*
X774562Y-533984D01*
X965039Y-533984D02*
X984086Y-533984D01*
X984086Y-533984D02*
X1003134Y-543508D01*
X1003134Y-543508D02*
X1012658Y-553031D01*
X1012658Y-553031D02*
X1022182Y-572079D01*
X1022182Y-572079D02*
X1031705Y-610174D01*
X1031705Y-610174D02*
X1031705Y-657793D01*
X1031705Y-657793D02*
X1022182Y-695889D01*
X1022182Y-695889D02*
X1012658Y-714936D01*
X1012658Y-714936D02*
X1003134Y-724460D01*
X1003134Y-724460D02*
X984086Y-733984D01*
X984086Y-733984D02*
X965039Y-733984D01*
X965039Y-733984D02*
X945991Y-724460D01*
X945991Y-724460D02*
X936467Y-714936D01*
X936467Y-714936D02*
X926943Y-695889D01*
X926943Y-695889D02*
X917420Y-657793D01*
X917420Y-657793D02*
X917420Y-610174D01*
X917420Y-610174D02*
X926943Y-572079D01*
X926943Y-572079D02*
X936467Y-553031D01*
X936467Y-553031D02*
X945991Y-543508D01*
X945991Y-543508D02*
X965039Y-533984D01*
X1117420Y-733984D02*
X1117420Y-600650D01*
X1117420Y-619698D02*
X1126944Y-610174D01*
X1126944Y-610174D02*
X1145991Y-600650D01*
X1145991Y-600650D02*
X1174563Y-600650D01*
X1174563Y-600650D02*
X1193610Y-610174D01*
X1193610Y-610174D02*
X1203134Y-629222D01*
X1203134Y-629222D02*
X1203134Y-733984D01*
X1203134Y-629222D02*
X1212658Y-610174D01*
X1212658Y-610174D02*
X1231705Y-600650D01*
X1231705Y-600650D02*
X1260277Y-600650D01*
X1260277Y-600650D02*
X1279325Y-610174D01*
X1279325Y-610174D02*
X1288848Y-629222D01*
X1288848Y-629222D02*
X1288848Y-733984D01*
X1384086Y-733984D02*
X1384086Y-600650D01*
X1384086Y-619698D02*
X1393610Y-610174D01*
X1393610Y-610174D02*
X1412658Y-600650D01*
X1412658Y-600650D02*
X1441229Y-600650D01*
X1441229Y-600650D02*
X1460277Y-610174D01*
X1460277Y-610174D02*
X1469801Y-629222D01*
X1469801Y-629222D02*
X1469801Y-733984D01*
X1469801Y-629222D02*
X1479324Y-610174D01*
X1479324Y-610174D02*
X1498372Y-600650D01*
X1498372Y-600650D02*
X1526943Y-600650D01*
X1526943Y-600650D02*
X1545991Y-610174D01*
X1545991Y-610174D02*
X1555515Y-629222D01*
X1555515Y-629222D02*
X1555515Y-733984D01*
X1945991Y-524460D02*
X1774563Y-781603D01*
X2203134Y-533984D02*
X2222182Y-533984D01*
X2222182Y-533984D02*
X2241229Y-543508D01*
X2241229Y-543508D02*
X2250753Y-553031D01*
X2250753Y-553031D02*
X2260277Y-572079D01*
X2260277Y-572079D02*
X2269801Y-610174D01*
X2269801Y-610174D02*
X2269801Y-657793D01*
X2269801Y-657793D02*
X2260277Y-695889D01*
X2260277Y-695889D02*
X2250753Y-714936D01*
X2250753Y-714936D02*
X2241229Y-724460D01*
X2241229Y-724460D02*
X2222182Y-733984D01*
X2222182Y-733984D02*
X2203134Y-733984D01*
X2203134Y-733984D02*
X2184087Y-724460D01*
X2184087Y-724460D02*
X2174563Y-714936D01*
X2174563Y-714936D02*
X2165039Y-695889D01*
X2165039Y-695889D02*
X2155515Y-657793D01*
X2155515Y-657793D02*
X2155515Y-610174D01*
X2155515Y-610174D02*
X2165039Y-572079D01*
X2165039Y-572079D02*
X2174563Y-553031D01*
X2174563Y-553031D02*
X2184087Y-543508D01*
X2184087Y-543508D02*
X2203134Y-533984D01*
X2355515Y-714936D02*
X2365039Y-724460D01*
X2365039Y-724460D02*
X2355515Y-733984D01*
X2355515Y-733984D02*
X2345991Y-724460D01*
X2345991Y-724460D02*
X2355515Y-714936D01*
X2355515Y-714936D02*
X2355515Y-733984D01*
X2555515Y-733984D02*
X2441229Y-733984D01*
X2498372Y-733984D02*
X2498372Y-533984D01*
X2498372Y-533984D02*
X2479325Y-562555D01*
X2479325Y-562555D02*
X2460277Y-581603D01*
X2460277Y-581603D02*
X2441229Y-591127D01*
X2745991Y-733984D02*
X2631706Y-733984D01*
X2688848Y-733984D02*
X2688848Y-533984D01*
X2688848Y-533984D02*
X2669801Y-562555D01*
X2669801Y-562555D02*
X2650753Y-581603D01*
X2650753Y-581603D02*
X2631706Y-591127D01*
X2860277Y-619698D02*
X2841229Y-610174D01*
X2841229Y-610174D02*
X2831706Y-600650D01*
X2831706Y-600650D02*
X2822182Y-581603D01*
X2822182Y-581603D02*
X2822182Y-572079D01*
X2822182Y-572079D02*
X2831706Y-553031D01*
X2831706Y-553031D02*
X2841229Y-543508D01*
X2841229Y-543508D02*
X2860277Y-533984D01*
X2860277Y-533984D02*
X2898372Y-533984D01*
X2898372Y-533984D02*
X2917420Y-543508D01*
X2917420Y-543508D02*
X2926944Y-553031D01*
X2926944Y-553031D02*
X2936467Y-572079D01*
X2936467Y-572079D02*
X2936467Y-581603D01*
X2936467Y-581603D02*
X2926944Y-600650D01*
X2926944Y-600650D02*
X2917420Y-610174D01*
X2917420Y-610174D02*
X2898372Y-619698D01*
X2898372Y-619698D02*
X2860277Y-619698D01*
X2860277Y-619698D02*
X2841229Y-629222D01*
X2841229Y-629222D02*
X2831706Y-638746D01*
X2831706Y-638746D02*
X2822182Y-657793D01*
X2822182Y-657793D02*
X2822182Y-695889D01*
X2822182Y-695889D02*
X2831706Y-714936D01*
X2831706Y-714936D02*
X2841229Y-724460D01*
X2841229Y-724460D02*
X2860277Y-733984D01*
X2860277Y-733984D02*
X2898372Y-733984D01*
X2898372Y-733984D02*
X2917420Y-724460D01*
X2917420Y-724460D02*
X2926944Y-714936D01*
X2926944Y-714936D02*
X2936467Y-695889D01*
X2936467Y-695889D02*
X2936467Y-657793D01*
X2936467Y-657793D02*
X2926944Y-638746D01*
X2926944Y-638746D02*
X2917420Y-629222D01*
X2917420Y-629222D02*
X2898372Y-619698D01*
X3126944Y-733984D02*
X3012658Y-733984D01*
X3069801Y-733984D02*
X3069801Y-533984D01*
X3069801Y-533984D02*
X3050753Y-562555D01*
X3050753Y-562555D02*
X3031706Y-581603D01*
X3031706Y-581603D02*
X3012658Y-591127D01*
X3203134Y-533984D02*
X3203134Y-572079D01*
X3279325Y-533984D02*
X3279325Y-572079D01*
X3574563Y-810174D02*
X3565039Y-800650D01*
X3565039Y-800650D02*
X3545991Y-772079D01*
X3545991Y-772079D02*
X3536468Y-753031D01*
X3536468Y-753031D02*
X3526944Y-724460D01*
X3526944Y-724460D02*
X3517420Y-676841D01*
X3517420Y-676841D02*
X3517420Y-638746D01*
X3517420Y-638746D02*
X3526944Y-591127D01*
X3526944Y-591127D02*
X3536468Y-562555D01*
X3536468Y-562555D02*
X3545991Y-543508D01*
X3545991Y-543508D02*
X3565039Y-514936D01*
X3565039Y-514936D02*
X3574563Y-505412D01*
X3641229Y-553031D02*
X3650753Y-543508D01*
X3650753Y-543508D02*
X3669801Y-533984D01*
X3669801Y-533984D02*
X3717420Y-533984D01*
X3717420Y-533984D02*
X3736468Y-543508D01*
X3736468Y-543508D02*
X3745991Y-553031D01*
X3745991Y-553031D02*
X3755515Y-572079D01*
X3755515Y-572079D02*
X3755515Y-591127D01*
X3755515Y-591127D02*
X3745991Y-619698D01*
X3745991Y-619698D02*
X3631706Y-733984D01*
X3631706Y-733984D02*
X3755515Y-733984D01*
X3993610Y-733984D02*
X3993610Y-533984D01*
X4079325Y-733984D02*
X4079325Y-629222D01*
X4079325Y-629222D02*
X4069801Y-610174D01*
X4069801Y-610174D02*
X4050753Y-600650D01*
X4050753Y-600650D02*
X4022182Y-600650D01*
X4022182Y-600650D02*
X4003134Y-610174D01*
X4003134Y-610174D02*
X3993610Y-619698D01*
X4203134Y-733984D02*
X4184087Y-724460D01*
X4184087Y-724460D02*
X4174563Y-714936D01*
X4174563Y-714936D02*
X4165039Y-695889D01*
X4165039Y-695889D02*
X4165039Y-638746D01*
X4165039Y-638746D02*
X4174563Y-619698D01*
X4174563Y-619698D02*
X4184087Y-610174D01*
X4184087Y-610174D02*
X4203134Y-600650D01*
X4203134Y-600650D02*
X4231706Y-600650D01*
X4231706Y-600650D02*
X4250753Y-610174D01*
X4250753Y-610174D02*
X4260277Y-619698D01*
X4260277Y-619698D02*
X4269801Y-638746D01*
X4269801Y-638746D02*
X4269801Y-695889D01*
X4269801Y-695889D02*
X4260277Y-714936D01*
X4260277Y-714936D02*
X4250753Y-724460D01*
X4250753Y-724460D02*
X4231706Y-733984D01*
X4231706Y-733984D02*
X4203134Y-733984D01*
X4384087Y-733984D02*
X4365039Y-724460D01*
X4365039Y-724460D02*
X4355515Y-705412D01*
X4355515Y-705412D02*
X4355515Y-533984D01*
X4536468Y-724460D02*
X4517420Y-733984D01*
X4517420Y-733984D02*
X4479325Y-733984D01*
X4479325Y-733984D02*
X4460277Y-724460D01*
X4460277Y-724460D02*
X4450753Y-705412D01*
X4450753Y-705412D02*
X4450753Y-629222D01*
X4450753Y-629222D02*
X4460277Y-610174D01*
X4460277Y-610174D02*
X4479325Y-600650D01*
X4479325Y-600650D02*
X4517420Y-600650D01*
X4517420Y-600650D02*
X4536468Y-610174D01*
X4536468Y-610174D02*
X4545992Y-629222D01*
X4545992Y-629222D02*
X4545992Y-648270D01*
X4545992Y-648270D02*
X4450753Y-667317D01*
X4622182Y-724460D02*
X4641230Y-733984D01*
X4641230Y-733984D02*
X4679325Y-733984D01*
X4679325Y-733984D02*
X4698373Y-724460D01*
X4698373Y-724460D02*
X4707896Y-705412D01*
X4707896Y-705412D02*
X4707896Y-695889D01*
X4707896Y-695889D02*
X4698373Y-676841D01*
X4698373Y-676841D02*
X4679325Y-667317D01*
X4679325Y-667317D02*
X4650753Y-667317D01*
X4650753Y-667317D02*
X4631706Y-657793D01*
X4631706Y-657793D02*
X4622182Y-638746D01*
X4622182Y-638746D02*
X4622182Y-629222D01*
X4622182Y-629222D02*
X4631706Y-610174D01*
X4631706Y-610174D02*
X4650753Y-600650D01*
X4650753Y-600650D02*
X4679325Y-600650D01*
X4679325Y-600650D02*
X4698373Y-610174D01*
X4774563Y-810174D02*
X4784087Y-800650D01*
X4784087Y-800650D02*
X4803134Y-772079D01*
X4803134Y-772079D02*
X4812658Y-753031D01*
X4812658Y-753031D02*
X4822182Y-724460D01*
X4822182Y-724460D02*
X4831706Y-676841D01*
X4831706Y-676841D02*
X4831706Y-638746D01*
X4831706Y-638746D02*
X4822182Y-591127D01*
X4822182Y-591127D02*
X4812658Y-562555D01*
X4812658Y-562555D02*
X4803134Y-543508D01*
X4803134Y-543508D02*
X4784087Y-514936D01*
X4784087Y-514936D02*
X4774563Y-505412D01*
X5136468Y-810174D02*
X5126944Y-800650D01*
X5126944Y-800650D02*
X5107896Y-772079D01*
X5107896Y-772079D02*
X5098373Y-753031D01*
X5098373Y-753031D02*
X5088849Y-724460D01*
X5088849Y-724460D02*
X5079325Y-676841D01*
X5079325Y-676841D02*
X5079325Y-638746D01*
X5079325Y-638746D02*
X5088849Y-591127D01*
X5088849Y-591127D02*
X5098373Y-562555D01*
X5098373Y-562555D02*
X5107896Y-543508D01*
X5107896Y-543508D02*
X5126944Y-514936D01*
X5126944Y-514936D02*
X5136468Y-505412D01*
X5212658Y-600650D02*
X5212658Y-733984D01*
X5212658Y-619698D02*
X5222182Y-610174D01*
X5222182Y-610174D02*
X5241230Y-600650D01*
X5241230Y-600650D02*
X5269801Y-600650D01*
X5269801Y-600650D02*
X5288849Y-610174D01*
X5288849Y-610174D02*
X5298373Y-629222D01*
X5298373Y-629222D02*
X5298373Y-733984D01*
X5422182Y-733984D02*
X5403134Y-724460D01*
X5403134Y-724460D02*
X5393611Y-714936D01*
X5393611Y-714936D02*
X5384087Y-695889D01*
X5384087Y-695889D02*
X5384087Y-638746D01*
X5384087Y-638746D02*
X5393611Y-619698D01*
X5393611Y-619698D02*
X5403134Y-610174D01*
X5403134Y-610174D02*
X5422182Y-600650D01*
X5422182Y-600650D02*
X5450754Y-600650D01*
X5450754Y-600650D02*
X5469801Y-610174D01*
X5469801Y-610174D02*
X5479325Y-619698D01*
X5479325Y-619698D02*
X5488849Y-638746D01*
X5488849Y-638746D02*
X5488849Y-695889D01*
X5488849Y-695889D02*
X5479325Y-714936D01*
X5479325Y-714936D02*
X5469801Y-724460D01*
X5469801Y-724460D02*
X5450754Y-733984D01*
X5450754Y-733984D02*
X5422182Y-733984D01*
X5545992Y-600650D02*
X5622182Y-600650D01*
X5574563Y-533984D02*
X5574563Y-705412D01*
X5574563Y-705412D02*
X5584087Y-724460D01*
X5584087Y-724460D02*
X5603134Y-733984D01*
X5603134Y-733984D02*
X5622182Y-733984D01*
X5841230Y-600650D02*
X5841230Y-800650D01*
X5841230Y-610174D02*
X5860277Y-600650D01*
X5860277Y-600650D02*
X5898373Y-600650D01*
X5898373Y-600650D02*
X5917420Y-610174D01*
X5917420Y-610174D02*
X5926944Y-619698D01*
X5926944Y-619698D02*
X5936468Y-638746D01*
X5936468Y-638746D02*
X5936468Y-695889D01*
X5936468Y-695889D02*
X5926944Y-714936D01*
X5926944Y-714936D02*
X5917420Y-724460D01*
X5917420Y-724460D02*
X5898373Y-733984D01*
X5898373Y-733984D02*
X5860277Y-733984D01*
X5860277Y-733984D02*
X5841230Y-724460D01*
X6050753Y-733984D02*
X6031706Y-724460D01*
X6031706Y-724460D02*
X6022182Y-705412D01*
X6022182Y-705412D02*
X6022182Y-533984D01*
X6212658Y-733984D02*
X6212658Y-629222D01*
X6212658Y-629222D02*
X6203134Y-610174D01*
X6203134Y-610174D02*
X6184087Y-600650D01*
X6184087Y-600650D02*
X6145992Y-600650D01*
X6145992Y-600650D02*
X6126944Y-610174D01*
X6212658Y-724460D02*
X6193611Y-733984D01*
X6193611Y-733984D02*
X6145992Y-733984D01*
X6145992Y-733984D02*
X6126944Y-724460D01*
X6126944Y-724460D02*
X6117420Y-705412D01*
X6117420Y-705412D02*
X6117420Y-686365D01*
X6117420Y-686365D02*
X6126944Y-667317D01*
X6126944Y-667317D02*
X6145992Y-657793D01*
X6145992Y-657793D02*
X6193611Y-657793D01*
X6193611Y-657793D02*
X6212658Y-648270D01*
X6279325Y-600650D02*
X6355515Y-600650D01*
X6307896Y-533984D02*
X6307896Y-705412D01*
X6307896Y-705412D02*
X6317420Y-724460D01*
X6317420Y-724460D02*
X6336468Y-733984D01*
X6336468Y-733984D02*
X6355515Y-733984D01*
X6498373Y-724460D02*
X6479325Y-733984D01*
X6479325Y-733984D02*
X6441230Y-733984D01*
X6441230Y-733984D02*
X6422182Y-724460D01*
X6422182Y-724460D02*
X6412658Y-705412D01*
X6412658Y-705412D02*
X6412658Y-629222D01*
X6412658Y-629222D02*
X6422182Y-610174D01*
X6422182Y-610174D02*
X6441230Y-600650D01*
X6441230Y-600650D02*
X6479325Y-600650D01*
X6479325Y-600650D02*
X6498373Y-610174D01*
X6498373Y-610174D02*
X6507896Y-629222D01*
X6507896Y-629222D02*
X6507896Y-648270D01*
X6507896Y-648270D02*
X6412658Y-667317D01*
X6679325Y-733984D02*
X6679325Y-533984D01*
X6679325Y-724460D02*
X6660277Y-733984D01*
X6660277Y-733984D02*
X6622182Y-733984D01*
X6622182Y-733984D02*
X6603134Y-724460D01*
X6603134Y-724460D02*
X6593611Y-714936D01*
X6593611Y-714936D02*
X6584087Y-695889D01*
X6584087Y-695889D02*
X6584087Y-638746D01*
X6584087Y-638746D02*
X6593611Y-619698D01*
X6593611Y-619698D02*
X6603134Y-610174D01*
X6603134Y-610174D02*
X6622182Y-600650D01*
X6622182Y-600650D02*
X6660277Y-600650D01*
X6660277Y-600650D02*
X6679325Y-610174D01*
X6755515Y-810174D02*
X6765039Y-800650D01*
X6765039Y-800650D02*
X6784087Y-772079D01*
X6784087Y-772079D02*
X6793611Y-753031D01*
X6793611Y-753031D02*
X6803134Y-724460D01*
X6803134Y-724460D02*
X6812658Y-676841D01*
X6812658Y-676841D02*
X6812658Y-638746D01*
X6812658Y-638746D02*
X6803134Y-591127D01*
X6803134Y-591127D02*
X6793611Y-562555D01*
X6793611Y-562555D02*
X6784087Y-543508D01*
X6784087Y-543508D02*
X6765039Y-514936D01*
X6765039Y-514936D02*
X6755515Y-505412D01*
M02*
