%TF.GenerationSoftware,KiCad,Pcbnew,8.0.1*%
%TF.CreationDate,2024-06-13T00:26:55+02:00*%
%TF.ProjectId,CFT,4346542e-6b69-4636-9164-5f7063625858,rev?*%
%TF.SameCoordinates,PX52e4ef2PY60c692e*%
%TF.FileFunction,Soldermask,Top*%
%TF.FilePolarity,Negative*%
%FSLAX46Y46*%
G04 Gerber Fmt 4.6, Leading zero omitted, Abs format (unit mm)*
G04 Created by KiCad (PCBNEW 8.0.1) date 2024-06-13 00:26:55*
%MOMM*%
%LPD*%
G01*
G04 APERTURE LIST*
G04 Aperture macros list*
%AMRoundRect*
0 Rectangle with rounded corners*
0 $1 Rounding radius*
0 $2 $3 $4 $5 $6 $7 $8 $9 X,Y pos of 4 corners*
0 Add a 4 corners polygon primitive as box body*
4,1,4,$2,$3,$4,$5,$6,$7,$8,$9,$2,$3,0*
0 Add four circle primitives for the rounded corners*
1,1,$1+$1,$2,$3*
1,1,$1+$1,$4,$5*
1,1,$1+$1,$6,$7*
1,1,$1+$1,$8,$9*
0 Add four rect primitives between the rounded corners*
20,1,$1+$1,$2,$3,$4,$5,0*
20,1,$1+$1,$4,$5,$6,$7,0*
20,1,$1+$1,$6,$7,$8,$9,0*
20,1,$1+$1,$8,$9,$2,$3,0*%
G04 Aperture macros list end*
%ADD10RoundRect,0.200000X0.200000X0.275000X-0.200000X0.275000X-0.200000X-0.275000X0.200000X-0.275000X0*%
%ADD11RoundRect,0.200000X-0.200000X-0.275000X0.200000X-0.275000X0.200000X0.275000X-0.200000X0.275000X0*%
%ADD12RoundRect,0.200000X0.275000X-0.200000X0.275000X0.200000X-0.275000X0.200000X-0.275000X-0.200000X0*%
%ADD13RoundRect,0.225000X-0.250000X0.225000X-0.250000X-0.225000X0.250000X-0.225000X0.250000X0.225000X0*%
%ADD14R,0.600000X1.500000*%
%ADD15RoundRect,0.200000X-0.275000X0.200000X-0.275000X-0.200000X0.275000X-0.200000X0.275000X0.200000X0*%
%ADD16RoundRect,0.225000X-0.225000X-0.250000X0.225000X-0.250000X0.225000X0.250000X-0.225000X0.250000X0*%
%ADD17RoundRect,0.225000X0.225000X0.250000X-0.225000X0.250000X-0.225000X-0.250000X0.225000X-0.250000X0*%
%ADD18RoundRect,0.218750X0.256250X-0.218750X0.256250X0.218750X-0.256250X0.218750X-0.256250X-0.218750X0*%
%ADD19O,1.600000X2.500000*%
%ADD20O,3.500000X7.000000*%
%ADD21RoundRect,0.218750X0.218750X0.256250X-0.218750X0.256250X-0.218750X-0.256250X0.218750X-0.256250X0*%
%ADD22C,3.000000*%
%ADD23R,2.100000X2.100000*%
%ADD24C,2.100000*%
%ADD25R,0.400000X1.100000*%
%ADD26RoundRect,0.250000X0.400000X0.750000X-0.400000X0.750000X-0.400000X-0.750000X0.400000X-0.750000X0*%
%ADD27RoundRect,0.250000X0.750000X0.750000X-0.750000X0.750000X-0.750000X-0.750000X0.750000X-0.750000X0*%
%ADD28R,1.700000X1.700000*%
%ADD29O,1.700000X1.700000*%
G04 APERTURE END LIST*
D10*
%TO.C,R7*%
X44285000Y8140000D03*
X42635000Y8140000D03*
%TD*%
D11*
%TO.C,R4*%
X40110000Y17560000D03*
X41760000Y17560000D03*
%TD*%
D12*
%TO.C,R8*%
X49230000Y8010000D03*
X49230000Y9660000D03*
%TD*%
D11*
%TO.C,R1*%
X12185000Y25770000D03*
X13835000Y25770000D03*
%TD*%
D13*
%TO.C,C1*%
X35500000Y14220000D03*
X35500000Y12670000D03*
%TD*%
D14*
%TO.C,U2*%
X20745000Y8440000D03*
X22015000Y8440000D03*
X23285000Y8440000D03*
X24555000Y8440000D03*
X25825000Y8440000D03*
X27095000Y8440000D03*
X28365000Y8440000D03*
X29635000Y8440000D03*
X29635000Y15540000D03*
X28365000Y15540000D03*
X27095000Y15540000D03*
X25825000Y15540000D03*
X24555000Y15540000D03*
X23285000Y15540000D03*
X22015000Y15540000D03*
X20745000Y15540000D03*
%TD*%
D15*
%TO.C,R9*%
X11380000Y32895000D03*
X11380000Y31245000D03*
%TD*%
D16*
%TO.C,C2*%
X22105000Y18480000D03*
X23655000Y18480000D03*
%TD*%
D11*
%TO.C,R3*%
X26370000Y18470000D03*
X28020000Y18470000D03*
%TD*%
D17*
%TO.C,C3*%
X18740000Y15550000D03*
X17190000Y15550000D03*
%TD*%
D12*
%TO.C,R6*%
X44150000Y11000000D03*
X44150000Y12650000D03*
%TD*%
D18*
%TO.C,D2*%
X11350000Y35395000D03*
X11350000Y36970000D03*
%TD*%
D19*
%TO.C,J7*%
X40060000Y27220000D03*
D20*
X34980000Y32300000D03*
D19*
X37520000Y27220000D03*
D20*
X45140000Y32300000D03*
%TD*%
D16*
%TO.C,C4*%
X31440000Y18470000D03*
X32990000Y18470000D03*
%TD*%
D21*
%TO.C,D1*%
X47455000Y8150000D03*
X45880000Y8150000D03*
%TD*%
D19*
%TO.C,J3*%
X23350000Y27230000D03*
D20*
X18270000Y32310000D03*
D19*
X20810000Y27230000D03*
D20*
X28430000Y32310000D03*
%TD*%
D22*
%TO.C,H2*%
X52320000Y32370000D03*
%TD*%
%TO.C,H1*%
X12460000Y5510000D03*
%TD*%
D11*
%TO.C,R5*%
X39400000Y8140000D03*
X41050000Y8140000D03*
%TD*%
D23*
%TO.C,J1*%
X8100000Y34680000D03*
D24*
X5560000Y34680000D03*
%TD*%
D11*
%TO.C,R2*%
X18615000Y18480000D03*
X20265000Y18480000D03*
%TD*%
D25*
%TO.C,U1*%
X37525000Y9800000D03*
X38175000Y9800000D03*
X38825000Y9800000D03*
X39475000Y9800000D03*
X39475000Y14100000D03*
X38825000Y14100000D03*
X38175000Y14100000D03*
X37525000Y14100000D03*
%TD*%
D26*
%TO.C,RV1*%
X39280000Y1950000D03*
D27*
X38130000Y5950000D03*
D26*
X36980000Y1950000D03*
%TD*%
D23*
%TO.C,J4*%
X6630000Y18040000D03*
D24*
X6630000Y20580000D03*
%TD*%
D28*
%TO.C,J2*%
X5360000Y6450000D03*
D29*
X5360000Y8990000D03*
%TD*%
D28*
%TO.C,J5*%
X5390000Y27990000D03*
D29*
X7930000Y27990000D03*
%TD*%
D23*
%TO.C,J6*%
X52980000Y16790000D03*
D24*
X52980000Y19330000D03*
%TD*%
M02*
