%TF.GenerationSoftware,KiCad,Pcbnew,7.0.8+1*%
%TF.CreationDate,2024-02-21T23:20:15+01:00*%
%TF.ProjectId,MOS_SWITCH_LOAD,4d4f535f-5357-4495-9443-485f4c4f4144,rev?*%
%TF.SameCoordinates,Original*%
%TF.FileFunction,Copper,L2,Bot*%
%TF.FilePolarity,Positive*%
%FSLAX46Y46*%
G04 Gerber Fmt 4.6, Leading zero omitted, Abs format (unit mm)*
G04 Created by KiCad (PCBNEW 7.0.8+1) date 2024-02-21 23:20:15*
%MOMM*%
%LPD*%
G01*
G04 APERTURE LIST*
%TA.AperFunction,ComponentPad*%
%ADD10C,1.600000*%
%TD*%
%TA.AperFunction,ComponentPad*%
%ADD11O,1.600000X1.600000*%
%TD*%
%TA.AperFunction,ComponentPad*%
%ADD12R,2.100000X2.100000*%
%TD*%
%TA.AperFunction,ComponentPad*%
%ADD13C,2.100000*%
%TD*%
%TA.AperFunction,ComponentPad*%
%ADD14R,1.905000X2.000000*%
%TD*%
%TA.AperFunction,ComponentPad*%
%ADD15O,1.905000X2.000000*%
%TD*%
%TA.AperFunction,ComponentPad*%
%ADD16R,1.050000X1.500000*%
%TD*%
%TA.AperFunction,ComponentPad*%
%ADD17O,1.050000X1.500000*%
%TD*%
%TA.AperFunction,Conductor*%
%ADD18C,0.250000*%
%TD*%
%TA.AperFunction,Conductor*%
%ADD19C,1.000000*%
%TD*%
%TA.AperFunction,Conductor*%
%ADD20C,2.000000*%
%TD*%
G04 APERTURE END LIST*
D10*
%TO.P,R1,1*%
%TO.N,Net-(J1-Pin_1)*%
X108610000Y-50100000D03*
D11*
%TO.P,R1,2*%
%TO.N,Net-(Q3-D)*%
X100990000Y-50100000D03*
%TD*%
D12*
%TO.P,J1,1,Pin_1*%
%TO.N,Net-(J1-Pin_1)*%
X114250000Y-46910000D03*
D13*
%TO.P,J1,2,Pin_2*%
%TO.N,GND*%
X114250000Y-49450000D03*
%TD*%
D12*
%TO.P,J3,1,Pin_1*%
%TO.N,Net-(J3-Pin_1)*%
X94930000Y-56250000D03*
D13*
%TO.P,J3,2,Pin_2*%
%TO.N,GND*%
X97470000Y-56250000D03*
%TD*%
D10*
%TO.P,R2,1*%
%TO.N,Net-(J3-Pin_1)*%
X100790000Y-58350000D03*
D11*
%TO.P,R2,2*%
%TO.N,GND*%
X108410000Y-58350000D03*
%TD*%
D12*
%TO.P,J2,1,Pin_1*%
%TO.N,GND*%
X90800000Y-47750000D03*
D13*
%TO.P,J2,2,Pin_2*%
%TO.N,Net-(J2-Pin_2)*%
X90800000Y-45210000D03*
%TD*%
D14*
%TO.P,Q4,1,G*%
%TO.N,Net-(Q3-D)*%
X101750000Y-47000000D03*
D15*
%TO.P,Q4,2,D*%
%TO.N,Net-(J2-Pin_2)*%
X104290000Y-47000000D03*
%TO.P,Q4,3,S*%
%TO.N,Net-(J1-Pin_1)*%
X106830000Y-47000000D03*
%TD*%
D16*
%TO.P,Q3,1,S*%
%TO.N,GND*%
X103720000Y-53840000D03*
D17*
%TO.P,Q3,2,G*%
%TO.N,Net-(J3-Pin_1)*%
X102450000Y-53840000D03*
%TO.P,Q3,3,D*%
%TO.N,Net-(Q3-D)*%
X101180000Y-53840000D03*
%TD*%
D18*
%TO.N,GND*%
X97470000Y-56250000D02*
X97470000Y-54030000D01*
X97470000Y-54030000D02*
X97550000Y-53950000D01*
X97470000Y-56250000D02*
X99300000Y-56250000D01*
X99300000Y-56250000D02*
X99350000Y-56200000D01*
D19*
%TO.N,Net-(J1-Pin_1)*%
X108610000Y-50100000D02*
X107650000Y-50100000D01*
D20*
X114250000Y-46910000D02*
X106920000Y-46910000D01*
X106920000Y-46910000D02*
X106830000Y-47000000D01*
D19*
X106830000Y-49280000D02*
X106830000Y-47000000D01*
X107650000Y-50100000D02*
X106830000Y-49280000D01*
D20*
%TO.N,Net-(J2-Pin_2)*%
X90800000Y-45210000D02*
X94390000Y-45210000D01*
X96100000Y-43500000D02*
X101899556Y-43500000D01*
X101899556Y-43500000D02*
X104290000Y-45890444D01*
X94390000Y-45210000D02*
X96100000Y-43500000D01*
X104290000Y-45890444D02*
X104290000Y-47000000D01*
D19*
%TO.N,Net-(J3-Pin_1)*%
X102450000Y-53840000D02*
X102450000Y-56690000D01*
X96450000Y-58350000D02*
X100790000Y-58350000D01*
X94930000Y-56250000D02*
X94930000Y-56830000D01*
X102450000Y-56690000D02*
X100790000Y-58350000D01*
X94930000Y-56830000D02*
X96450000Y-58350000D01*
%TO.N,Net-(Q3-D)*%
X100990000Y-47760000D02*
X101750000Y-47000000D01*
X100990000Y-50100000D02*
X100990000Y-53650000D01*
X100990000Y-50100000D02*
X100990000Y-47760000D01*
X100990000Y-53650000D02*
X101180000Y-53840000D01*
%TD*%
%TA.AperFunction,Conductor*%
%TO.N,GND*%
G36*
X119175686Y-41499816D02*
G01*
X119242693Y-41519599D01*
X119288370Y-41572471D01*
X119299500Y-41623816D01*
X119299500Y-61525500D01*
X119279815Y-61592539D01*
X119227011Y-61638294D01*
X119175500Y-61649500D01*
X118960500Y-61649500D01*
X85474317Y-61600182D01*
X85407307Y-61580399D01*
X85361630Y-61527527D01*
X85350500Y-61476182D01*
X85350500Y-56331187D01*
X87599500Y-56331187D01*
X87607036Y-56381182D01*
X87638604Y-56590615D01*
X87638605Y-56590617D01*
X87638606Y-56590623D01*
X87715938Y-56841326D01*
X87829767Y-57077696D01*
X87829768Y-57077697D01*
X87829770Y-57077700D01*
X87829772Y-57077704D01*
X87975160Y-57290949D01*
X87977567Y-57294479D01*
X88156014Y-57486801D01*
X88156018Y-57486804D01*
X88156019Y-57486805D01*
X88361143Y-57650386D01*
X88588357Y-57781568D01*
X88832584Y-57877420D01*
X89088370Y-57935802D01*
X89088376Y-57935802D01*
X89088379Y-57935803D01*
X89284500Y-57950500D01*
X89284506Y-57950500D01*
X89415500Y-57950500D01*
X89611620Y-57935803D01*
X89611622Y-57935802D01*
X89611630Y-57935802D01*
X89867416Y-57877420D01*
X90111643Y-57781568D01*
X90338857Y-57650386D01*
X90543981Y-57486805D01*
X90722433Y-57294479D01*
X90870228Y-57077704D01*
X90877286Y-57063049D01*
X90911954Y-56991058D01*
X90984063Y-56841323D01*
X91061396Y-56590615D01*
X91100500Y-56331182D01*
X91100500Y-56068818D01*
X91061396Y-55809385D01*
X90984063Y-55558677D01*
X90972121Y-55533880D01*
X90870232Y-55322303D01*
X90870231Y-55322302D01*
X90870230Y-55322301D01*
X90870228Y-55322296D01*
X90722433Y-55105521D01*
X90708031Y-55089999D01*
X90543985Y-54913198D01*
X90455276Y-54842455D01*
X90338857Y-54749614D01*
X90111643Y-54618432D01*
X89867416Y-54522580D01*
X89867411Y-54522578D01*
X89867402Y-54522576D01*
X89649818Y-54472914D01*
X89611630Y-54464198D01*
X89611629Y-54464197D01*
X89611625Y-54464197D01*
X89611620Y-54464196D01*
X89415500Y-54449500D01*
X89415494Y-54449500D01*
X89284506Y-54449500D01*
X89284500Y-54449500D01*
X89088379Y-54464196D01*
X89088374Y-54464197D01*
X88832597Y-54522576D01*
X88832578Y-54522582D01*
X88588356Y-54618432D01*
X88361143Y-54749614D01*
X88156014Y-54913198D01*
X87977567Y-55105520D01*
X87829768Y-55322302D01*
X87829767Y-55322303D01*
X87715938Y-55558673D01*
X87638606Y-55809376D01*
X87638605Y-55809381D01*
X87638604Y-55809385D01*
X87631069Y-55859376D01*
X87599500Y-56068812D01*
X87599500Y-56331187D01*
X85350500Y-56331187D01*
X85350500Y-45210000D01*
X89244706Y-45210000D01*
X89263853Y-45453297D01*
X89263853Y-45453300D01*
X89263854Y-45453302D01*
X89316767Y-45673698D01*
X89320830Y-45690619D01*
X89414222Y-45916089D01*
X89527711Y-46101285D01*
X89545956Y-46168731D01*
X89524840Y-46235333D01*
X89496296Y-46265341D01*
X89392809Y-46342812D01*
X89306649Y-46457906D01*
X89306645Y-46457913D01*
X89256403Y-46592620D01*
X89256401Y-46592627D01*
X89250000Y-46652155D01*
X89250000Y-47500000D01*
X90305148Y-47500000D01*
X90256441Y-47637047D01*
X90246123Y-47787886D01*
X90276884Y-47935915D01*
X90310090Y-48000000D01*
X89250000Y-48000000D01*
X89250000Y-48847844D01*
X89256401Y-48907372D01*
X89256403Y-48907379D01*
X89306645Y-49042086D01*
X89306649Y-49042093D01*
X89392809Y-49157187D01*
X89392812Y-49157190D01*
X89507906Y-49243350D01*
X89507913Y-49243354D01*
X89642620Y-49293596D01*
X89642627Y-49293598D01*
X89702155Y-49299999D01*
X89702172Y-49300000D01*
X90550000Y-49300000D01*
X90550000Y-48241683D01*
X90578819Y-48259209D01*
X90724404Y-48300000D01*
X90837622Y-48300000D01*
X90949783Y-48284584D01*
X91050000Y-48241053D01*
X91050000Y-49300000D01*
X91897828Y-49300000D01*
X91897844Y-49299999D01*
X91957372Y-49293598D01*
X91957379Y-49293596D01*
X92092086Y-49243354D01*
X92092093Y-49243350D01*
X92207187Y-49157190D01*
X92207190Y-49157187D01*
X92293350Y-49042093D01*
X92293354Y-49042086D01*
X92343596Y-48907379D01*
X92343598Y-48907372D01*
X92349999Y-48847844D01*
X92350000Y-48847827D01*
X92350000Y-48000000D01*
X91294852Y-48000000D01*
X91343559Y-47862953D01*
X91353877Y-47712114D01*
X91323116Y-47564085D01*
X91289910Y-47500000D01*
X92350000Y-47500000D01*
X92350000Y-46834500D01*
X92369685Y-46767461D01*
X92422489Y-46721706D01*
X92474000Y-46710500D01*
X94292981Y-46710500D01*
X94300652Y-46710975D01*
X94327779Y-46714357D01*
X94421035Y-46710500D01*
X94452067Y-46710500D01*
X94482990Y-46707937D01*
X94576237Y-46704081D01*
X94602982Y-46698472D01*
X94610582Y-46697364D01*
X94637821Y-46695108D01*
X94637824Y-46695107D01*
X94637826Y-46695107D01*
X94637829Y-46695106D01*
X94728288Y-46672198D01*
X94819614Y-46653049D01*
X94845077Y-46643112D01*
X94852374Y-46640774D01*
X94878881Y-46634063D01*
X94964335Y-46596579D01*
X95051274Y-46562656D01*
X95074761Y-46548659D01*
X95081581Y-46545149D01*
X95106607Y-46534173D01*
X95184720Y-46483139D01*
X95264894Y-46435366D01*
X95285754Y-46417697D01*
X95291894Y-46413117D01*
X95314785Y-46398164D01*
X95383435Y-46334966D01*
X95407126Y-46314902D01*
X95429078Y-46292949D01*
X95497738Y-46229744D01*
X95514530Y-46208167D01*
X95519604Y-46202422D01*
X96685209Y-45036819D01*
X96746532Y-45003334D01*
X96772890Y-45000500D01*
X101226666Y-45000500D01*
X101293705Y-45020185D01*
X101314347Y-45036819D01*
X101565347Y-45287819D01*
X101598832Y-45349142D01*
X101593848Y-45418834D01*
X101551976Y-45474767D01*
X101486512Y-45499184D01*
X101477666Y-45499500D01*
X100749629Y-45499500D01*
X100749623Y-45499501D01*
X100690016Y-45505908D01*
X100555171Y-45556202D01*
X100555164Y-45556206D01*
X100439955Y-45642452D01*
X100439952Y-45642455D01*
X100353706Y-45757664D01*
X100353702Y-45757671D01*
X100303408Y-45892517D01*
X100297001Y-45952116D01*
X100297000Y-45952135D01*
X100297000Y-46985137D01*
X100277315Y-47052176D01*
X100258434Y-47075009D01*
X100226950Y-47104938D01*
X100226946Y-47104942D01*
X100191899Y-47155294D01*
X100189062Y-47159056D01*
X100150302Y-47206592D01*
X100150299Y-47206597D01*
X100134392Y-47237047D01*
X100130324Y-47243761D01*
X100110702Y-47271954D01*
X100086509Y-47328330D01*
X100084488Y-47332584D01*
X100056091Y-47386951D01*
X100056090Y-47386952D01*
X100046640Y-47419975D01*
X100044007Y-47427371D01*
X100030459Y-47458943D01*
X100018113Y-47519019D01*
X100016990Y-47523595D01*
X100000113Y-47582577D01*
X100000113Y-47582579D01*
X99997503Y-47616841D01*
X99996414Y-47624608D01*
X99993859Y-47637047D01*
X99989500Y-47658258D01*
X99989500Y-47719597D01*
X99989321Y-47724306D01*
X99984662Y-47785474D01*
X99986707Y-47801527D01*
X99989003Y-47819560D01*
X99989500Y-47827388D01*
X99989500Y-49222410D01*
X99969815Y-49289449D01*
X99967076Y-49293532D01*
X99859431Y-49447267D01*
X99763261Y-49653502D01*
X99763258Y-49653511D01*
X99704366Y-49873302D01*
X99704364Y-49873313D01*
X99684532Y-50099998D01*
X99684532Y-50100001D01*
X99704364Y-50326686D01*
X99704366Y-50326697D01*
X99763258Y-50546488D01*
X99763261Y-50546497D01*
X99859431Y-50752732D01*
X99859432Y-50752734D01*
X99967075Y-50906465D01*
X99989402Y-50972671D01*
X99989500Y-50977588D01*
X99989500Y-53637283D01*
X99987243Y-53726362D01*
X99987243Y-53726370D01*
X99998064Y-53786739D01*
X99998718Y-53791404D01*
X100004925Y-53852430D01*
X100004927Y-53852444D01*
X100015208Y-53885213D01*
X100017079Y-53892837D01*
X100023142Y-53926652D01*
X100023142Y-53926655D01*
X100045894Y-53983612D01*
X100047474Y-53988051D01*
X100065841Y-54046588D01*
X100065844Y-54046595D01*
X100082509Y-54076619D01*
X100085879Y-54083714D01*
X100098623Y-54115617D01*
X100098625Y-54115620D01*
X100098626Y-54115622D01*
X100132377Y-54166834D01*
X100134818Y-54170864D01*
X100152921Y-54203478D01*
X100167906Y-54251499D01*
X100169337Y-54266031D01*
X100227978Y-54459345D01*
X100323198Y-54637488D01*
X100323203Y-54637495D01*
X100451352Y-54793647D01*
X100560016Y-54882824D01*
X100607506Y-54921798D01*
X100607509Y-54921799D01*
X100607511Y-54921801D01*
X100785654Y-55017021D01*
X100785656Y-55017021D01*
X100785659Y-55017023D01*
X100978967Y-55075662D01*
X101180000Y-55095462D01*
X101313347Y-55082328D01*
X101381992Y-55095347D01*
X101432702Y-55143411D01*
X101449500Y-55205731D01*
X101449500Y-56224217D01*
X101429815Y-56291256D01*
X101413181Y-56311898D01*
X100701967Y-57023111D01*
X100640644Y-57056596D01*
X100625096Y-57058958D01*
X100563311Y-57064364D01*
X100563302Y-57064366D01*
X100343511Y-57123258D01*
X100343502Y-57123261D01*
X100137267Y-57219431D01*
X100137265Y-57219432D01*
X99983535Y-57327075D01*
X99917329Y-57349402D01*
X99912412Y-57349500D01*
X98835527Y-57349500D01*
X98768488Y-57329815D01*
X98722733Y-57277011D01*
X98712789Y-57207853D01*
X98729800Y-57160710D01*
X98855331Y-56955861D01*
X98948696Y-56730457D01*
X99005651Y-56493219D01*
X99024792Y-56250000D01*
X99005651Y-56006780D01*
X98948696Y-55769542D01*
X98855331Y-55544138D01*
X98731494Y-55342056D01*
X97995928Y-56077621D01*
X97993116Y-56064085D01*
X97923558Y-55929844D01*
X97820362Y-55819348D01*
X97691181Y-55740791D01*
X97639996Y-55726449D01*
X98377942Y-54988504D01*
X98175861Y-54864668D01*
X97950457Y-54771303D01*
X97713219Y-54714348D01*
X97713220Y-54714348D01*
X97470000Y-54695207D01*
X97226780Y-54714348D01*
X96989542Y-54771303D01*
X96764140Y-54864667D01*
X96579441Y-54977851D01*
X96511996Y-54996095D01*
X96445393Y-54974978D01*
X96415385Y-54946434D01*
X96337546Y-54842454D01*
X96314709Y-54825358D01*
X96222335Y-54756206D01*
X96222328Y-54756202D01*
X96087482Y-54705908D01*
X96087483Y-54705908D01*
X96027883Y-54699501D01*
X96027881Y-54699500D01*
X96027873Y-54699500D01*
X96027864Y-54699500D01*
X93832129Y-54699500D01*
X93832123Y-54699501D01*
X93772516Y-54705908D01*
X93637671Y-54756202D01*
X93637664Y-54756206D01*
X93522455Y-54842452D01*
X93522452Y-54842455D01*
X93436206Y-54957664D01*
X93436202Y-54957671D01*
X93385908Y-55092517D01*
X93379501Y-55152116D01*
X93379500Y-55152135D01*
X93379500Y-57347870D01*
X93379501Y-57347876D01*
X93385908Y-57407483D01*
X93436202Y-57542328D01*
X93436206Y-57542335D01*
X93522452Y-57657544D01*
X93522455Y-57657547D01*
X93637664Y-57743793D01*
X93637671Y-57743797D01*
X93682618Y-57760561D01*
X93772517Y-57794091D01*
X93832127Y-57800500D01*
X94434216Y-57800499D01*
X94501255Y-57820183D01*
X94521897Y-57836818D01*
X95733566Y-59048487D01*
X95794938Y-59113050D01*
X95794941Y-59113053D01*
X95845281Y-59148092D01*
X95849043Y-59150928D01*
X95896587Y-59189694D01*
X95896590Y-59189695D01*
X95896593Y-59189698D01*
X95927045Y-59205604D01*
X95933758Y-59209672D01*
X95961951Y-59229295D01*
X96018329Y-59253489D01*
X96022578Y-59255507D01*
X96076951Y-59283909D01*
X96104489Y-59291788D01*
X96109974Y-59293358D01*
X96117368Y-59295990D01*
X96148942Y-59309540D01*
X96148945Y-59309540D01*
X96148946Y-59309541D01*
X96209022Y-59321887D01*
X96213600Y-59323010D01*
X96227501Y-59326987D01*
X96272582Y-59339887D01*
X96306839Y-59342495D01*
X96314614Y-59343586D01*
X96348255Y-59350500D01*
X96348259Y-59350500D01*
X96409599Y-59350500D01*
X96414305Y-59350678D01*
X96449063Y-59353325D01*
X96475476Y-59355337D01*
X96475476Y-59355336D01*
X96475477Y-59355337D01*
X96509560Y-59350996D01*
X96517390Y-59350500D01*
X99912412Y-59350500D01*
X99979451Y-59370185D01*
X99983523Y-59372917D01*
X100137266Y-59480568D01*
X100343504Y-59576739D01*
X100563308Y-59635635D01*
X100725230Y-59649801D01*
X100789998Y-59655468D01*
X100790000Y-59655468D01*
X100790002Y-59655468D01*
X100846673Y-59650509D01*
X101016692Y-59635635D01*
X101236496Y-59576739D01*
X101442734Y-59480568D01*
X101629139Y-59350047D01*
X101790047Y-59189139D01*
X101920568Y-59002734D01*
X102016739Y-58796496D01*
X102075635Y-58576692D01*
X102081039Y-58514906D01*
X102106490Y-58449840D01*
X102116878Y-58438041D01*
X102454920Y-58099999D01*
X107131127Y-58099999D01*
X107131128Y-58100000D01*
X108094314Y-58100000D01*
X108082359Y-58111955D01*
X108024835Y-58224852D01*
X108005014Y-58350000D01*
X108024835Y-58475148D01*
X108082359Y-58588045D01*
X108094314Y-58600000D01*
X107131128Y-58600000D01*
X107183730Y-58796317D01*
X107183734Y-58796326D01*
X107279865Y-59002482D01*
X107410342Y-59188820D01*
X107571179Y-59349657D01*
X107757517Y-59480134D01*
X107963673Y-59576265D01*
X107963682Y-59576269D01*
X108159999Y-59628872D01*
X108160000Y-59628871D01*
X108160000Y-58665686D01*
X108171955Y-58677641D01*
X108284852Y-58735165D01*
X108378519Y-58750000D01*
X108441481Y-58750000D01*
X108535148Y-58735165D01*
X108648045Y-58677641D01*
X108660000Y-58665686D01*
X108660000Y-59628872D01*
X108856317Y-59576269D01*
X108856326Y-59576265D01*
X109062482Y-59480134D01*
X109248820Y-59349657D01*
X109409657Y-59188820D01*
X109540134Y-59002482D01*
X109636265Y-58796326D01*
X109636269Y-58796317D01*
X109688872Y-58600000D01*
X108725686Y-58600000D01*
X108737641Y-58588045D01*
X108795165Y-58475148D01*
X108814986Y-58350000D01*
X108795165Y-58224852D01*
X108737641Y-58111955D01*
X108725686Y-58100000D01*
X109688872Y-58100000D01*
X109688872Y-58099999D01*
X109636269Y-57903682D01*
X109636265Y-57903673D01*
X109540134Y-57697517D01*
X109409657Y-57511179D01*
X109248820Y-57350342D01*
X109062482Y-57219865D01*
X108856328Y-57123734D01*
X108660000Y-57071127D01*
X108660000Y-58034314D01*
X108648045Y-58022359D01*
X108535148Y-57964835D01*
X108441481Y-57950000D01*
X108378519Y-57950000D01*
X108284852Y-57964835D01*
X108171955Y-58022359D01*
X108160000Y-58034314D01*
X108160000Y-57071127D01*
X107963671Y-57123734D01*
X107757517Y-57219865D01*
X107571179Y-57350342D01*
X107410342Y-57511179D01*
X107279865Y-57697517D01*
X107183734Y-57903673D01*
X107183730Y-57903682D01*
X107131127Y-58099999D01*
X102454920Y-58099999D01*
X103148487Y-57406433D01*
X103213053Y-57345059D01*
X103248112Y-57294686D01*
X103250925Y-57290957D01*
X103289698Y-57243407D01*
X103305609Y-57212945D01*
X103309668Y-57206246D01*
X103329295Y-57178049D01*
X103353489Y-57121667D01*
X103355495Y-57117443D01*
X103383910Y-57063049D01*
X103385081Y-57058958D01*
X103393359Y-57030022D01*
X103395996Y-57022615D01*
X103409540Y-56991058D01*
X103421894Y-56930938D01*
X103423003Y-56926422D01*
X103439887Y-56867418D01*
X103442495Y-56833155D01*
X103443587Y-56825376D01*
X103448803Y-56800000D01*
X103450500Y-56791741D01*
X103450500Y-56730401D01*
X103450679Y-56725692D01*
X103455337Y-56664525D01*
X103450997Y-56630441D01*
X103450500Y-56622602D01*
X103450500Y-56381187D01*
X111949500Y-56381187D01*
X111966387Y-56493219D01*
X111988604Y-56640615D01*
X111988605Y-56640617D01*
X111988606Y-56640623D01*
X112065938Y-56891326D01*
X112179767Y-57127696D01*
X112179768Y-57127697D01*
X112179770Y-57127700D01*
X112179772Y-57127704D01*
X112258657Y-57243407D01*
X112327567Y-57344479D01*
X112506014Y-57536801D01*
X112506018Y-57536804D01*
X112506019Y-57536805D01*
X112711143Y-57700386D01*
X112938357Y-57831568D01*
X113182584Y-57927420D01*
X113438370Y-57985802D01*
X113438376Y-57985802D01*
X113438379Y-57985803D01*
X113634500Y-58000500D01*
X113634506Y-58000500D01*
X113765500Y-58000500D01*
X113961620Y-57985803D01*
X113961622Y-57985802D01*
X113961630Y-57985802D01*
X114217416Y-57927420D01*
X114461643Y-57831568D01*
X114688857Y-57700386D01*
X114893981Y-57536805D01*
X114917759Y-57511179D01*
X114940378Y-57486801D01*
X115072433Y-57344479D01*
X115220228Y-57127704D01*
X115334063Y-56891323D01*
X115411396Y-56640615D01*
X115450500Y-56381182D01*
X115450500Y-56118818D01*
X115411396Y-55859385D01*
X115334063Y-55608677D01*
X115302983Y-55544138D01*
X115220232Y-55372303D01*
X115220231Y-55372302D01*
X115220230Y-55372301D01*
X115220228Y-55372296D01*
X115072433Y-55155521D01*
X115016600Y-55095347D01*
X114893985Y-54963198D01*
X114770432Y-54864668D01*
X114688857Y-54799614D01*
X114461643Y-54668432D01*
X114217416Y-54572580D01*
X114217411Y-54572578D01*
X114217402Y-54572576D01*
X113998336Y-54522576D01*
X113961630Y-54514198D01*
X113961629Y-54514197D01*
X113961625Y-54514197D01*
X113961620Y-54514196D01*
X113765500Y-54499500D01*
X113765494Y-54499500D01*
X113634506Y-54499500D01*
X113634500Y-54499500D01*
X113438379Y-54514196D01*
X113438374Y-54514197D01*
X113182597Y-54572576D01*
X113182578Y-54572582D01*
X112938356Y-54668432D01*
X112711143Y-54799614D01*
X112506014Y-54963198D01*
X112327567Y-55155520D01*
X112179768Y-55372302D01*
X112179767Y-55372303D01*
X112065938Y-55608673D01*
X111988606Y-55859376D01*
X111988605Y-55859381D01*
X111988604Y-55859385D01*
X111977984Y-55929844D01*
X111949500Y-56118812D01*
X111949500Y-56381187D01*
X103450500Y-56381187D01*
X103450500Y-55160862D01*
X103470000Y-55094453D01*
X103470000Y-54174270D01*
X103470299Y-54168190D01*
X103474629Y-54124220D01*
X103539052Y-54174363D01*
X103657424Y-54215000D01*
X103751073Y-54215000D01*
X103843446Y-54199586D01*
X103953514Y-54140019D01*
X103970000Y-54122110D01*
X103970000Y-55090000D01*
X104292828Y-55090000D01*
X104292844Y-55089999D01*
X104352372Y-55083598D01*
X104352379Y-55083596D01*
X104487086Y-55033354D01*
X104487093Y-55033350D01*
X104602187Y-54947190D01*
X104602190Y-54947187D01*
X104688350Y-54832093D01*
X104688354Y-54832086D01*
X104738596Y-54697379D01*
X104738598Y-54697372D01*
X104744999Y-54637844D01*
X104745000Y-54637827D01*
X104745000Y-54090000D01*
X103999560Y-54090000D01*
X104038278Y-54047941D01*
X104088551Y-53933330D01*
X104098886Y-53808605D01*
X104068163Y-53687281D01*
X104004606Y-53590000D01*
X104745000Y-53590000D01*
X104745000Y-53042172D01*
X104744999Y-53042155D01*
X104738598Y-52982627D01*
X104738596Y-52982620D01*
X104688354Y-52847913D01*
X104688350Y-52847906D01*
X104602190Y-52732812D01*
X104602187Y-52732809D01*
X104487093Y-52646649D01*
X104487086Y-52646645D01*
X104352379Y-52596403D01*
X104352372Y-52596401D01*
X104292844Y-52590000D01*
X103970000Y-52590000D01*
X103970000Y-53559382D01*
X103900948Y-53505637D01*
X103782576Y-53465000D01*
X103688927Y-53465000D01*
X103596554Y-53480414D01*
X103486486Y-53539981D01*
X103474369Y-53553142D01*
X103473073Y-53539981D01*
X103470299Y-53511808D01*
X103470000Y-53505728D01*
X103470000Y-52590000D01*
X103147155Y-52590000D01*
X103087627Y-52596401D01*
X103087620Y-52596403D01*
X102952913Y-52646645D01*
X102945132Y-52650895D01*
X102943940Y-52648713D01*
X102890842Y-52668510D01*
X102846018Y-52663486D01*
X102844342Y-52662977D01*
X102844341Y-52662977D01*
X102749505Y-52634209D01*
X102651031Y-52604337D01*
X102450000Y-52584538D01*
X102248968Y-52604337D01*
X102150495Y-52634209D01*
X102080628Y-52634832D01*
X102021515Y-52597584D01*
X101991924Y-52534289D01*
X101990500Y-52515548D01*
X101990500Y-50977588D01*
X102010185Y-50910549D01*
X102012925Y-50906465D01*
X102017841Y-50899444D01*
X102120568Y-50752734D01*
X102216739Y-50546496D01*
X102275635Y-50326692D01*
X102295468Y-50100000D01*
X102275635Y-49873308D01*
X102216739Y-49653504D01*
X102120568Y-49447266D01*
X102012924Y-49293532D01*
X101990597Y-49227326D01*
X101990500Y-49222410D01*
X101990500Y-48624499D01*
X102010185Y-48557460D01*
X102062989Y-48511705D01*
X102114500Y-48500499D01*
X102750371Y-48500499D01*
X102750372Y-48500499D01*
X102809983Y-48494091D01*
X102944831Y-48443796D01*
X103060046Y-48357546D01*
X103146296Y-48242331D01*
X103154055Y-48221525D01*
X103195924Y-48165592D01*
X103261388Y-48141173D01*
X103329661Y-48156023D01*
X103346397Y-48167001D01*
X103466491Y-48260474D01*
X103685190Y-48378828D01*
X103920386Y-48459571D01*
X104165665Y-48500500D01*
X104414335Y-48500500D01*
X104659614Y-48459571D01*
X104894810Y-48378828D01*
X105113509Y-48260474D01*
X105309744Y-48107738D01*
X105469595Y-47934092D01*
X105529479Y-47898105D01*
X105599317Y-47900205D01*
X105656933Y-47939729D01*
X105661733Y-47946016D01*
X105681068Y-47973096D01*
X105793182Y-48085210D01*
X105826666Y-48146531D01*
X105829500Y-48172890D01*
X105829500Y-49267283D01*
X105827243Y-49356362D01*
X105827243Y-49356370D01*
X105838064Y-49416739D01*
X105838718Y-49421404D01*
X105844925Y-49482430D01*
X105844927Y-49482444D01*
X105855208Y-49515213D01*
X105857079Y-49522837D01*
X105863142Y-49556652D01*
X105863142Y-49556655D01*
X105885894Y-49613612D01*
X105887474Y-49618051D01*
X105905841Y-49676588D01*
X105905844Y-49676595D01*
X105922509Y-49706619D01*
X105925879Y-49713714D01*
X105938622Y-49745614D01*
X105938627Y-49745624D01*
X105972377Y-49796833D01*
X105974818Y-49800863D01*
X106004588Y-49854498D01*
X106004589Y-49854499D01*
X106004591Y-49854502D01*
X106026968Y-49880567D01*
X106031693Y-49886835D01*
X106050599Y-49915520D01*
X106050600Y-49915522D01*
X106093965Y-49958887D01*
X106097168Y-49962343D01*
X106137133Y-50008894D01*
X106164299Y-50029923D01*
X106170186Y-50035107D01*
X106933548Y-50798468D01*
X106994941Y-50863053D01*
X106994944Y-50863055D01*
X106994947Y-50863058D01*
X107029053Y-50886795D01*
X107045303Y-50898106D01*
X107049044Y-50900926D01*
X107096593Y-50939698D01*
X107127045Y-50955604D01*
X107133756Y-50959671D01*
X107161951Y-50979295D01*
X107218332Y-51003490D01*
X107222567Y-51005501D01*
X107276951Y-51033909D01*
X107309973Y-51043356D01*
X107317365Y-51045989D01*
X107348940Y-51059539D01*
X107348941Y-51059540D01*
X107362054Y-51062234D01*
X107409055Y-51071892D01*
X107413595Y-51073006D01*
X107472582Y-51089886D01*
X107506841Y-51092494D01*
X107514609Y-51093585D01*
X107548255Y-51100500D01*
X107548259Y-51100500D01*
X107609601Y-51100500D01*
X107614308Y-51100678D01*
X107650651Y-51103446D01*
X107675475Y-51105337D01*
X107675475Y-51105336D01*
X107675476Y-51105337D01*
X107709559Y-51100996D01*
X107717389Y-51100500D01*
X107732412Y-51100500D01*
X107799451Y-51120185D01*
X107803523Y-51122917D01*
X107957266Y-51230568D01*
X108163504Y-51326739D01*
X108383308Y-51385635D01*
X108545230Y-51399801D01*
X108609998Y-51405468D01*
X108610000Y-51405468D01*
X108610002Y-51405468D01*
X108666673Y-51400509D01*
X108836692Y-51385635D01*
X109056496Y-51326739D01*
X109262734Y-51230568D01*
X109449139Y-51100047D01*
X109610047Y-50939139D01*
X109740568Y-50752734D01*
X109836739Y-50546496D01*
X109895635Y-50326692D01*
X109915468Y-50100000D01*
X109895635Y-49873308D01*
X109836739Y-49653504D01*
X109740568Y-49447266D01*
X109637451Y-49299999D01*
X109610045Y-49260858D01*
X109449141Y-49099954D01*
X109262734Y-48969432D01*
X109262732Y-48969431D01*
X109056497Y-48873261D01*
X109056488Y-48873258D01*
X108836697Y-48814366D01*
X108836693Y-48814365D01*
X108836692Y-48814365D01*
X108836691Y-48814364D01*
X108836686Y-48814364D01*
X108610002Y-48794532D01*
X108609998Y-48794532D01*
X108383313Y-48814364D01*
X108383302Y-48814366D01*
X108163511Y-48873258D01*
X108163497Y-48873263D01*
X108020329Y-48940024D01*
X107951252Y-48950516D01*
X107887468Y-48921996D01*
X107880244Y-48915323D01*
X107866819Y-48901898D01*
X107833334Y-48840575D01*
X107830500Y-48814217D01*
X107830500Y-48534500D01*
X107850185Y-48467461D01*
X107902989Y-48421706D01*
X107954500Y-48410500D01*
X112847705Y-48410500D01*
X112914744Y-48430185D01*
X112960499Y-48482989D01*
X112970443Y-48552147D01*
X112953432Y-48599290D01*
X112864668Y-48744138D01*
X112771303Y-48969542D01*
X112714348Y-49206780D01*
X112695207Y-49450000D01*
X112714348Y-49693219D01*
X112771303Y-49930457D01*
X112864668Y-50155861D01*
X112988504Y-50357942D01*
X113724070Y-49622375D01*
X113726884Y-49635915D01*
X113796442Y-49770156D01*
X113899638Y-49880652D01*
X114028819Y-49959209D01*
X114080002Y-49973549D01*
X113342056Y-50711494D01*
X113544138Y-50835331D01*
X113769542Y-50928696D01*
X114006780Y-50985651D01*
X114006779Y-50985651D01*
X114250000Y-51004792D01*
X114493219Y-50985651D01*
X114730457Y-50928696D01*
X114955861Y-50835331D01*
X115157942Y-50711494D01*
X114421568Y-49975121D01*
X114538458Y-49924349D01*
X114655739Y-49828934D01*
X114742928Y-49705415D01*
X114773354Y-49619802D01*
X115511494Y-50357942D01*
X115635331Y-50155861D01*
X115728696Y-49930457D01*
X115785651Y-49693219D01*
X115804792Y-49450000D01*
X115785651Y-49206780D01*
X115728696Y-48969542D01*
X115635331Y-48744138D01*
X115522149Y-48559442D01*
X115503904Y-48491996D01*
X115525020Y-48425394D01*
X115553560Y-48395389D01*
X115657546Y-48317546D01*
X115743796Y-48202331D01*
X115794091Y-48067483D01*
X115800500Y-48007873D01*
X115800499Y-45812128D01*
X115794091Y-45752517D01*
X115782648Y-45721838D01*
X115743797Y-45617671D01*
X115743793Y-45617664D01*
X115657547Y-45502455D01*
X115657544Y-45502452D01*
X115542335Y-45416206D01*
X115542328Y-45416202D01*
X115407482Y-45365908D01*
X115407483Y-45365908D01*
X115347883Y-45359501D01*
X115347881Y-45359500D01*
X115347873Y-45359500D01*
X115347864Y-45359500D01*
X113152129Y-45359500D01*
X113152123Y-45359501D01*
X113092516Y-45365908D01*
X112996604Y-45401682D01*
X112953271Y-45409500D01*
X107017018Y-45409500D01*
X107009342Y-45409023D01*
X106986307Y-45406152D01*
X106982221Y-45405643D01*
X106982220Y-45405643D01*
X106888974Y-45409500D01*
X106857933Y-45409500D01*
X106833181Y-45411550D01*
X106826993Y-45412063D01*
X106733765Y-45415919D01*
X106707020Y-45421527D01*
X106699412Y-45422635D01*
X106672179Y-45424891D01*
X106599984Y-45443173D01*
X106581702Y-45447803D01*
X106561581Y-45452022D01*
X106490392Y-45466949D01*
X106490380Y-45466953D01*
X106464935Y-45476881D01*
X106457616Y-45479226D01*
X106431123Y-45485935D01*
X106345663Y-45523420D01*
X106258726Y-45557343D01*
X106258717Y-45557348D01*
X106235244Y-45571335D01*
X106228409Y-45574853D01*
X106203397Y-45585824D01*
X106203390Y-45585828D01*
X106125278Y-45636860D01*
X106045104Y-45684635D01*
X106024250Y-45702297D01*
X106018087Y-45706892D01*
X105995215Y-45721835D01*
X105995211Y-45721838D01*
X105983415Y-45732697D01*
X105920759Y-45763617D01*
X105851333Y-45755754D01*
X105797180Y-45711604D01*
X105775859Y-45651699D01*
X105775108Y-45642623D01*
X105752196Y-45552146D01*
X105733049Y-45460830D01*
X105723116Y-45435376D01*
X105720771Y-45428053D01*
X105714064Y-45401567D01*
X105714063Y-45401563D01*
X105695613Y-45359501D01*
X105676574Y-45316095D01*
X105642655Y-45229171D01*
X105642655Y-45229170D01*
X105628664Y-45205689D01*
X105625147Y-45198855D01*
X105614175Y-45173842D01*
X105614173Y-45173837D01*
X105563134Y-45095716D01*
X105515366Y-45015550D01*
X105497702Y-44994694D01*
X105493106Y-44988530D01*
X105478166Y-44965662D01*
X105478165Y-44965661D01*
X105478164Y-44965659D01*
X105414955Y-44896996D01*
X105394899Y-44873315D01*
X105372961Y-44851377D01*
X105309747Y-44782709D01*
X105309739Y-44782702D01*
X105288177Y-44765920D01*
X105282419Y-44760836D01*
X103029171Y-42507587D01*
X103024080Y-42501822D01*
X103007295Y-42480257D01*
X102938634Y-42417049D01*
X102916685Y-42395100D01*
X102892991Y-42375033D01*
X102824342Y-42311837D01*
X102824341Y-42311836D01*
X102801460Y-42296887D01*
X102795303Y-42292296D01*
X102774450Y-42274634D01*
X102694276Y-42226860D01*
X102616163Y-42175827D01*
X102616160Y-42175825D01*
X102591144Y-42164852D01*
X102584306Y-42161332D01*
X102560831Y-42147344D01*
X102473891Y-42113420D01*
X102388437Y-42075937D01*
X102388433Y-42075936D01*
X102388431Y-42075935D01*
X102361943Y-42069227D01*
X102354623Y-42066882D01*
X102329175Y-42056953D01*
X102329170Y-42056951D01*
X102237844Y-42037801D01*
X102147375Y-42014891D01*
X102120146Y-42012635D01*
X102112539Y-42011526D01*
X102092542Y-42007334D01*
X102085793Y-42005919D01*
X102085791Y-42005918D01*
X101992546Y-42002062D01*
X101961623Y-41999500D01*
X101961620Y-41999500D01*
X101930591Y-41999500D01*
X101837336Y-41995643D01*
X101837335Y-41995643D01*
X101810208Y-41999024D01*
X101802537Y-41999500D01*
X96197018Y-41999500D01*
X96189342Y-41999023D01*
X96166307Y-41996152D01*
X96162221Y-41995643D01*
X96162220Y-41995643D01*
X96068974Y-41999500D01*
X96037933Y-41999500D01*
X96013181Y-42001550D01*
X96006993Y-42002063D01*
X95913765Y-42005919D01*
X95887020Y-42011527D01*
X95879412Y-42012635D01*
X95852179Y-42014891D01*
X95779984Y-42033173D01*
X95761702Y-42037803D01*
X95741581Y-42042022D01*
X95670392Y-42056949D01*
X95670380Y-42056953D01*
X95644935Y-42066881D01*
X95637616Y-42069226D01*
X95611123Y-42075935D01*
X95525663Y-42113420D01*
X95438726Y-42147343D01*
X95438717Y-42147348D01*
X95415244Y-42161335D01*
X95408409Y-42164853D01*
X95383397Y-42175824D01*
X95383390Y-42175828D01*
X95305278Y-42226860D01*
X95225104Y-42274635D01*
X95204250Y-42292297D01*
X95198087Y-42296892D01*
X95175216Y-42311834D01*
X95139578Y-42344641D01*
X95106564Y-42375033D01*
X95087376Y-42391284D01*
X95082869Y-42395102D01*
X95060922Y-42417049D01*
X94992262Y-42480256D01*
X94975471Y-42501826D01*
X94970382Y-42507588D01*
X93804791Y-43673181D01*
X93743468Y-43706666D01*
X93717110Y-43709500D01*
X91206454Y-43709500D01*
X91177507Y-43706074D01*
X91043298Y-43673853D01*
X91043299Y-43673853D01*
X90800000Y-43654706D01*
X90556702Y-43673853D01*
X90319380Y-43730830D01*
X90093910Y-43824222D01*
X89885826Y-43951737D01*
X89885823Y-43951738D01*
X89700241Y-44110241D01*
X89541738Y-44295823D01*
X89541737Y-44295826D01*
X89414222Y-44503910D01*
X89320830Y-44729380D01*
X89263853Y-44966702D01*
X89244706Y-45210000D01*
X85350500Y-45210000D01*
X85350500Y-41574500D01*
X85370185Y-41507461D01*
X85422989Y-41461706D01*
X85474500Y-41450500D01*
X85689500Y-41450500D01*
X119175686Y-41499816D01*
G37*
%TD.AperFunction*%
%TD*%
M02*
